<svg xmlns="http://www.w3.org/2000/svg" width="32" height="32" fill="none" viewBox="0 0 32 32"><path fill="#fff" d="M24 21.333h-.773l-1.08-1.08A9.43 9.43 0 0 0 24 14.667a9.326 9.326 0 0 0-9.333-9.334c-2 0-4 .667-5.614 1.867-4.12 3.093-4.96 8.947-1.866 13.067s8.946 4.96 13.066 1.866l1.08 1.08V24L28 30.667 30.667 28zm-9.333 0A6.67 6.67 0 0 1 8 14.667 6.67 6.67 0 0 1 14.667 8a6.67 6.67 0 0 1 6.666 6.667 6.67 6.67 0 0 1-6.666 6.666M4 8l-2.667 2.667V1.333h9.334L8 4H4zm24-6.667v9.334L25.333 8V4h-4l-2.666-2.667zm-20 24L10.667 28H1.333v-9.333L4 21.333v4z"/></svg>
