<svg xmlns="http://www.w3.org/2000/svg" width="40" height="40" fill="none" viewBox="0 0 40 40"><path fill="#b01525" d="M20 0C8.954 0 0 8.954 0 20s8.954 20 20 20 20-8.954 20-20S31.046 0 20 0m2.769 30.295a.57.57 0 0 1-.571.571h-4.396a.57.57 0 0 1-.57-.57V15.95a.57.57 0 0 1 .57-.571h4.396a.57.57 0 0 1 .57.571zm-.503-18.097c-.596.553-1.353.834-2.253.834-.917 0-1.683-.28-2.279-.834a2.77 2.77 0 0 1-.914-2.102 2.8 2.8 0 0 1 .914-2.128c.596-.554 1.363-.834 2.279-.834.899 0 1.657.28 2.253.834a2.8 2.8 0 0 1 .914 2.128 2.77 2.77 0 0 1-.914 2.102"/></svg>