<svg width="124" height="40" viewBox="0 0 124 40" fill="none" xmlns="http://www.w3.org/2000/svg">
  <g clip-path="url(#clip0_11_6942)">
    <path d="M118.299 14.7328H123.989C123.269 9.21549 119.225 6.31543 113.604 6.31543C107.915 6.31543 104.11 9.32165 104.11 14.4852C104.11 20.3561 109.011 21.6646 111.616 22.1953C114.975 22.8672 118.265 22.938 118.265 25.9087C118.265 27.9246 116.62 28.9149 114.289 28.9149C111.411 28.9149 109.491 27.4295 109.011 24.7417H103.391C103.733 30.5418 107.812 33.6541 113.81 33.6541C119.362 33.6541 123.92 31.037 123.92 25.3783C123.92 19.2951 118.676 18.1988 115.009 17.6328C112.507 17.2439 109.765 16.8901 109.765 14.1669C109.765 12.2571 111.171 11.09 113.535 11.09C116.277 11.09 117.922 12.6816 118.299 14.7328Z" fill="#262626" />
    <path d="M100.272 7.19922H94.8906V32.8401H100.272V7.19922Z" fill="#262626" />
    <path d="M78.6439 23.8925H85.6699C84.5731 26.6513 82.1054 27.9596 79.2607 27.9596C74.257 27.9596 71.9264 23.9633 71.9264 20.0021C71.9264 16.0056 74.1198 11.9385 79.2265 11.9385C82.3454 11.9385 84.6758 13.4239 85.567 16.0764L91.3591 16.0764C90.3653 10.0995 85.2928 6.66895 79.2951 6.66895C71.8921 6.66895 66.3398 11.8677 66.3398 20.0729C66.3398 28.3841 72.3718 33.3001 79.2607 33.3001C86.0469 33.3001 91.3591 28.7378 91.3591 21.5937V19.507H78.6439V23.8925Z" fill="#262626" />
    <path d="M54.0371 6.66895C47.868 6.66895 43.3097 10.6653 43.3439 17.3143H48.8962C48.8276 14.4142 50.6098 11.7617 53.7629 11.7617C56.5048 11.7617 58.1156 13.7423 58.1156 16.0057C58.1156 18.2692 56.5048 19.5424 53.523 20.9218C49.4445 22.7962 46.5314 23.9987 43.5495 25.0597V32.8404H64.3191V27.606H50.0606C50.0606 27.606 50.1081 27.5907 50.1314 27.5834C52.5566 26.8251 54.3786 26.0013 56.5391 25.0243C61.1659 22.9024 63.805 20.2497 63.805 15.7228C63.805 10.1701 59.8293 6.66895 54.0371 6.66895Z" fill="#262626" />
    <path d="M28.7434 23.8216C21.7516 23.857 20.6206 28.207 20.2437 31.8852L20.0724 33.512H18.667L18.4957 31.8852C18.1188 28.207 16.9535 23.857 10.2016 23.8216C9.07064 21.4165 8.59082 19.4713 8.59082 17.2786C8.59082 11.7968 12.9435 6.6685 19.3867 6.6685C25.8301 6.6685 30.1142 11.7613 30.1142 17.3141C30.1143 19.4713 29.9086 21.4165 28.7434 23.8216ZM19.3183 0.0195312C8.69373 0.0195312 -0.0117188 9.0028 -0.0117188 20.0017C-0.0117188 31.0363 8.69373 40.0194 19.3183 40.0194C30.0457 40.0194 38.7168 31.0363 38.7168 20.0017C38.7168 9.00282 30.0457 0.0195312 19.3183 0.0195312Z" fill="#299400" />
  </g>
  <defs>
    <clipPath id="clip0_11_6942">
      <rect width="124" height="40" fill="white" />
    </clipPath>
  </defs>
</svg>
