<svg width="186" height="24" viewBox="0 0 186 24" fill="none" xmlns="http://www.w3.org/2000/svg">
  <path d="M43.0992 21.1056C41.8772 21.1056 40.7727 20.8354 39.7857 20.2949C38.8104 19.7544 38.0408 19.0083 37.4768 18.0565C36.9246 17.093 36.6484 16.0179 36.6484 14.8311C36.6484 13.6444 36.9246 12.5751 37.4768 11.6234C38.0408 10.6599 38.8163 9.90789 39.8033 9.36739C40.7903 8.82689 41.8948 8.55664 43.1168 8.55664C44.0333 8.55664 44.8793 8.70939 45.6548 9.01489C46.4303 9.32039 47.0883 9.76689 47.6288 10.3544L46.8004 11.1828C45.8369 10.2075 44.6208 9.71989 43.1521 9.71989C42.1768 9.71989 41.2897 9.94314 40.4907 10.3896C39.6917 10.8361 39.0631 11.4471 38.6048 12.2226C38.1583 12.9981 37.9351 13.8676 37.9351 14.8311C37.9351 15.7946 38.1583 16.6641 38.6048 17.4396C39.0631 18.2151 39.6917 18.8261 40.4907 19.2726C41.2897 19.7191 42.1768 19.9424 43.1521 19.9424C44.6326 19.9424 45.8487 19.4489 46.8004 18.4619L47.6288 19.2903C47.0883 19.8778 46.4244 20.3301 45.6372 20.6474C44.8617 20.9529 44.0157 21.1056 43.0992 21.1056Z" fill="#1C1C20" />
  <path d="M58.6168 19.9071V23.2383H57.4359V20.9999H49.1345V23.2383H47.9536V19.9071H48.4824C49.1051 19.8719 49.5281 19.4136 49.7514 18.5324C49.9746 17.6511 50.1274 16.4174 50.2096 14.8311L50.333 11.7291H57.1715V19.9071H58.6168ZM51.3553 14.9016C51.2965 16.2176 51.1849 17.3045 51.0204 18.1623C50.8559 19.0083 50.5621 19.5899 50.1391 19.9071H55.9201V12.8395H51.461L51.3553 14.9016Z" fill="#1C1C20" />
  <path d="M69.163 16.7523H61.408C61.4785 17.7158 61.8486 18.4971 62.5184 19.0964C63.1881 19.6839 64.0341 19.9776 65.0564 19.9776C65.6321 19.9776 66.1609 19.8778 66.6426 19.678C67.1244 19.4665 67.5415 19.161 67.894 18.7615L68.599 19.5723C68.1877 20.0658 67.6707 20.4418 67.048 20.7003C66.437 20.9588 65.7614 21.088 65.0211 21.088C64.0694 21.088 63.2234 20.8883 62.4831 20.4888C61.7546 20.0775 61.1847 19.5135 60.7735 18.7968C60.3622 18.08 60.1566 17.2693 60.1566 16.3645C60.1566 15.4598 60.3505 14.649 60.7382 13.9323C61.1377 13.2155 61.6782 12.6574 62.3597 12.2579C63.053 11.8584 63.8285 11.6586 64.6862 11.6586C65.544 11.6586 66.3136 11.8584 66.9951 12.2579C67.6766 12.6574 68.2112 13.2155 68.599 13.9323C68.9867 14.6373 69.1806 15.448 69.1806 16.3645L69.163 16.7523ZM64.6862 12.7338C63.7932 12.7338 63.0412 13.0216 62.4302 13.5974C61.831 14.1614 61.4902 14.9016 61.408 15.8181H67.9821C67.8999 14.9016 67.5532 14.1614 66.9422 13.5974C66.343 13.0216 65.591 12.7338 64.6862 12.7338Z" fill="#1C1C20" />
  <path d="M79.34 11.7291V20.9999H78.0887V12.8395H73.6472L73.5238 15.1308C73.4298 17.0578 73.2065 18.5383 72.854 19.5723C72.5015 20.6063 71.8729 21.1233 70.9682 21.1233C70.7214 21.1233 70.4218 21.0763 70.0693 20.9823L70.1574 19.9071C70.3689 19.9541 70.5158 19.9776 70.598 19.9776C71.0798 19.9776 71.444 19.7544 71.6908 19.3079C71.9375 18.8614 72.102 18.3091 72.1843 17.6511C72.2665 16.9931 72.337 16.1236 72.3958 15.0426L72.5544 11.7291H79.34Z" fill="#1C1C20" />
  <path d="M86.0875 11.6586C87.2978 11.6586 88.226 11.9641 88.8723 12.5751C89.5185 13.1744 89.8416 14.0674 89.8416 15.2541V20.9999H88.6431V19.5546C88.3611 20.0364 87.944 20.4124 87.3918 20.6826C86.8513 20.9529 86.205 21.088 85.453 21.088C84.419 21.088 83.5965 20.8413 82.9855 20.3478C82.3745 19.8543 82.069 19.2021 82.069 18.3914C82.069 17.6041 82.351 16.9696 82.915 16.4879C83.4908 16.0061 84.4014 15.7653 85.6469 15.7653H88.5903V15.2013C88.5903 14.4023 88.367 13.7971 87.9205 13.3859C87.474 12.9629 86.8219 12.7514 85.9641 12.7514C85.3766 12.7514 84.8126 12.8513 84.2721 13.051C83.7316 13.239 83.2675 13.5034 82.8798 13.8441L82.3158 12.91C82.7858 12.5105 83.3498 12.205 84.0078 11.9935C84.6658 11.7703 85.359 11.6586 86.0875 11.6586ZM85.6469 20.101C86.3519 20.101 86.957 19.9424 87.4623 19.6251C87.9675 19.2961 88.3435 18.8261 88.5903 18.2151V16.6994H85.6821C84.0959 16.6994 83.3028 17.2516 83.3028 18.3561C83.3028 18.8966 83.5084 19.3255 83.9196 19.6428C84.3309 19.9483 84.9066 20.101 85.6469 20.101Z" fill="#1C1C20" />
  <path d="M93.1729 11.7291H94.4243V15.8358H100.258V11.7291H101.51V20.9999H100.258V16.9109H94.4243V20.9999H93.1729V11.7291Z" fill="#1C1C20" />
  <path d="M108.891 21.088C107.998 21.088 107.193 20.8883 106.476 20.4888C105.76 20.0775 105.196 19.5135 104.784 18.7968C104.373 18.08 104.167 17.2693 104.167 16.3645C104.167 15.4598 104.373 14.649 104.784 13.9323C105.196 13.2155 105.76 12.6574 106.476 12.2579C107.193 11.8584 107.998 11.6586 108.891 11.6586C109.784 11.6586 110.589 11.8584 111.306 12.2579C112.022 12.6574 112.58 13.2155 112.98 13.9323C113.391 14.649 113.597 15.4598 113.597 16.3645C113.597 17.2693 113.391 18.08 112.98 18.7968C112.58 19.5135 112.022 20.0775 111.306 20.4888C110.589 20.8883 109.784 21.088 108.891 21.088ZM108.891 19.9776C109.549 19.9776 110.136 19.8308 110.653 19.537C111.182 19.2315 111.593 18.8026 111.887 18.2504C112.181 17.6981 112.328 17.0695 112.328 16.3645C112.328 15.6595 112.181 15.0309 111.887 14.4786C111.593 13.9264 111.182 13.5034 110.653 13.2096C110.136 12.9041 109.549 12.7514 108.891 12.7514C108.233 12.7514 107.64 12.9041 107.111 13.2096C106.594 13.5034 106.183 13.9264 105.877 14.4786C105.583 15.0309 105.436 15.6595 105.436 16.3645C105.436 17.0695 105.583 17.6981 105.877 18.2504C106.183 18.8026 106.594 19.2315 107.111 19.537C107.64 19.8308 108.233 19.9776 108.891 19.9776Z" fill="#1C1C20" />
  <path d="M126.788 16.2059C128.046 16.4996 128.674 17.2575 128.674 18.4795C128.674 19.2903 128.375 19.913 127.775 20.3478C127.176 20.7825 126.283 20.9999 125.096 20.9999H120.884V11.7291H124.973C126.031 11.7291 126.859 11.9348 127.458 12.346C128.057 12.7573 128.357 13.3448 128.357 14.1085C128.357 14.6138 128.216 15.0485 127.934 15.4128C127.664 15.7653 127.282 16.0296 126.788 16.2059ZM122.1 15.8534H124.885C125.602 15.8534 126.148 15.7183 126.524 15.448C126.912 15.1778 127.106 14.7841 127.106 14.2671C127.106 13.7501 126.912 13.3624 126.524 13.1039C126.148 12.8454 125.602 12.7161 124.885 12.7161H122.1V15.8534ZM125.044 20.0129C125.843 20.0129 126.442 19.8836 126.841 19.6251C127.241 19.3666 127.441 18.9613 127.441 18.409C127.441 17.8568 127.258 17.4514 126.894 17.1929C126.53 16.9226 125.954 16.7875 125.167 16.7875H122.1V20.0129H125.044Z" fill="#1C1C20" />
  <path d="M0 24L13.875 0L17.3438 6L13.875 12H20.8125L27.75 24H0Z" fill="#0061FF" />
  <path fill-rule="evenodd" clip-rule="evenodd" d="M179.308 16.6829C179.308 15.3469 180.367 14.3621 181.632 14.3621C182.965 14.3621 183.955 15.4155 183.955 16.6829C183.955 18.0187 182.896 19.0035 181.632 19.0035C180.299 19.0035 179.308 17.9587 179.308 16.6829ZM177.301 16.8712C177.386 19.3203 179.402 20.9046 181.649 20.9046C184.075 20.9046 185.997 19.1062 185.997 16.7426C185.997 14.2935 184.058 12.6923 181.828 12.5979C181.589 12.5896 181.35 12.6409 181.111 12.7351C181.512 12.2811 184.374 8.94992 184.852 8.62451H182.418C181.606 9.48939 180.786 10.4314 179.949 11.4249C178.659 12.9064 177.301 14.7902 177.301 16.8712Z" fill="#1C1C20" />
  <path fill-rule="evenodd" clip-rule="evenodd" d="M147.36 19.0711L148.458 20.9935H150.636L143.568 8.62451L136.5 20.9935H138.677L139.776 19.0711H147.36ZM146.267 17.1579L143.568 12.4349L140.869 17.1579H146.267Z" fill="#1C1C20" />
  <path d="M164.907 8.62451V10.5447H169.542V20.9806H171.748V10.5447H176.383V8.62451H164.907Z" fill="#1C1C20" />
  <path fill-rule="evenodd" clip-rule="evenodd" d="M158.782 10.5534H154.933L152.727 10.5447V8.64187H159.041C161.174 8.64187 162.918 10.0712 162.918 12.2153C162.918 13.8082 161.977 15.0396 160.241 15.5647L163.638 20.9807H161.155L157.878 15.7456H154.933V20.9807H152.727V13.8771H154.933H158.782C159.752 13.8771 160.749 13.2485 160.749 12.2153C160.749 11.2423 159.835 10.5534 158.782 10.5534Z" fill="#1C1C20" />
</svg>
