<svg width="158" height="40" viewBox="0 0 158 40" fill="none" xmlns="http://www.w3.org/2000/svg">
  <mask id="mask0_11_6951" style="mask-type:luminance" maskUnits="userSpaceOnUse" x="0" y="0" width="158" height="40">
    <path d="M157.263 0H0V40H157.263V0Z" fill="white" />
  </mask>
  <g mask="url(#mask0_11_6951)">
    <path d="M60.1146 0.941406L46.5469 36.3897H53.8382L56.6539 28.9862H71.0591L73.8614 36.3897H81.0974L67.58 0.941406H60.1146ZM59.1246 22.4804L63.8716 10.0066L68.5918 22.4804H59.1246Z" fill="#7c7c7c" />
    <path d="M144.359 11.0391C141.807 11.0391 139.314 11.7955 137.193 13.2127C135.072 14.6299 133.419 16.6443 132.443 19.001C131.466 21.3577 131.212 23.951 131.708 26.4529C132.206 28.9547 133.435 31.253 135.239 33.0566C137.042 34.8604 139.34 36.0889 141.842 36.5865C144.344 37.0841 146.938 36.8287 149.295 35.8525C151.65 34.8763 153.665 33.2233 155.082 31.1022C156.5 28.9813 157.256 26.4876 157.256 23.9367C157.256 20.516 155.897 17.2355 153.479 14.8167C151.06 12.3979 147.779 11.0391 144.359 11.0391ZM144.359 30.2214C143.116 30.2214 141.901 29.8529 140.868 29.1625C139.835 28.4721 139.029 27.4909 138.554 26.3427C138.078 25.1947 137.954 23.9314 138.197 22.7126C138.439 21.4939 139.037 20.3743 139.916 19.4957C140.795 18.617 141.914 18.0185 143.133 17.7761C144.352 17.5337 145.615 17.6581 146.763 18.1337C147.91 18.6092 148.893 19.4145 149.583 20.4477C150.273 21.481 150.641 22.6957 150.641 23.9384C150.643 24.7638 150.481 25.5815 150.166 26.3443C149.85 27.1072 149.388 27.8003 148.804 28.384C148.221 28.9678 147.527 29.4305 146.764 29.7458C146.002 30.0611 145.184 30.2226 144.359 30.2214Z" fill="#7c7c7c" />
    <path d="M89.7854 27.2482L83.896 11.4863H76.9414L86.4204 36.3904H93.3197L102.629 11.4863H95.6748L89.7854 27.2482Z" fill="#7c7c7c" />
    <path d="M124.503 4.86719H117.885V11.4852H114.016V17.4315H117.885V28.0327C117.885 34.0342 121.195 36.6137 125.849 36.6137C127.428 36.6366 128.995 36.3308 130.449 35.7159V29.5469C129.658 29.8387 128.823 29.9933 127.98 30.0041C125.97 30.0041 124.503 29.2186 124.503 26.5268V17.4315H130.449V11.4852H124.503V4.86719Z" fill="#7c7c7c" />
    <path d="M108.07 9.69202C110.735 9.69202 112.895 7.53223 112.895 4.86798C112.895 2.20374 110.735 0.0439453 108.07 0.0439453C105.406 0.0439453 103.246 2.20374 103.246 4.86798C103.246 7.53223 105.406 9.69202 108.07 9.69202Z" fill="#7c7c7c" />
    <path d="M111.379 11.4863H104.762V36.3904H111.379V11.4863Z" fill="#7c7c7c" />
    <path d="M12.9439 39.924C20.0688 39.924 25.8448 34.148 25.8448 27.023C25.8448 19.898 20.0688 14.1221 12.9439 14.1221C5.81892 14.1221 0.0429688 19.898 0.0429688 27.023C0.0429688 34.148 5.81892 39.924 12.9439 39.924Z" fill="#7c7c7c" />
    <path d="M35.3229 38.2961C39.6283 38.2961 43.1184 34.8059 43.1184 30.5006C43.1184 26.1952 39.6283 22.7051 35.3229 22.7051C31.0176 22.7051 27.5273 26.1952 27.5273 30.5006C27.5273 34.8059 31.0176 38.2961 35.3229 38.2961Z" fill="#7c7c7c" />
    <path d="M15.4099 12.4401C18.0743 12.4401 20.234 10.2803 20.234 7.61603C20.234 4.95179 18.0743 2.79199 15.4099 2.79199C12.7457 2.79199 10.5859 4.95179 10.5859 7.61603C10.5859 10.2803 12.7457 12.4401 15.4099 12.4401Z" fill="#7c7c7c" />
    <path d="M32.2936 21.0219C38.0865 21.0219 42.7826 16.3258 42.7826 10.5329C42.7826 4.74 38.0865 0.0439453 32.2936 0.0439453C26.5007 0.0439453 21.8047 4.74 21.8047 10.5329C21.8047 16.3258 26.5007 21.0219 32.2936 21.0219Z" fill="#7c7c7c" />
  </g>
</svg>
