<svg xmlns="http://www.w3.org/2000/svg" width="32" height="32" fill="none" viewBox="0 0 32 32"><path fill="#b01525" stroke="#b01525" stroke-width=".3" d="M7.938 2.951a2.43 2.43 0 0 1 2.8 1.123h.001l2.137 3.701a2.445 2.445 0 0 1-.894 3.336l-.252.146a1.57 1.57 0 0 0-.746 1.701c.049.216.143.42.276.597a31 31 0 0 0 2.893 3.324 31 31 0 0 0 3.324 2.894l.138.092a1.57 1.57 0 0 0 2.16-.561l.147-.253a2.444 2.444 0 0 1 3.335-.895l3.701 2.137h-.001a2.43 2.43 0 0 1 1.124 2.802l-.071.206-.018.045c-.343.874-.648 1.636-.931 2.243-.282.603-.551 1.072-.828 1.349-.833.833-1.997 1.245-3.393 1.245-1.152 0-2.468-.28-3.9-.835-2.958-1.146-6.163-3.36-9.03-6.226s-5.08-6.072-6.225-9.03C2.46 8.937 2.57 6.325 4.095 4.8c.276-.277.746-.546 1.348-.827.607-.284 1.37-.589 2.244-.932l.044-.018zm.58 1.777-.104.03-.046.018c-.47.185-1.138.447-1.73.703-.295.129-.57.254-.788.367-.226.116-.374.21-.436.271-.453.453-.694 1.152-.698 2.06-.004.907.23 2.009.708 3.243 1.05 2.71 3.11 5.689 5.805 8.384s5.673 4.755 8.383 5.805c1.235.479 2.336.711 3.244.707.907-.004 1.606-.244 2.059-.697.062-.061.155-.21.271-.436.113-.22.24-.494.368-.79.256-.59.519-1.259.703-1.728l.017-.046a.57.57 0 0 0-.248-.71l-3.7-2.137a.58.58 0 0 0-.724.119l-.066.091-.145.253a3.433 3.433 0 0 1-4.884 1.135l-.149-.105a33 33 0 0 1-3.523-3.068 33 33 0 0 1-3.066-3.523 3.432 3.432 0 0 1 1.028-5.031l.253-.147a.58.58 0 0 0 .212-.788L9.125 5.007l-.001-.001a.57.57 0 0 0-.605-.278Zm8.768 3.353a5.976 5.976 0 0 1 5.673 5.961v.001a.933.933 0 0 1-1.864 0 4.11 4.11 0 0 0-4.106-4.105v-.001a.93.93 0 1 1 .001-1.864zm-.296-4.375a10.337 10.337 0 0 1 10.336 10.337.933.933 0 0 1-1.865 0 8.473 8.473 0 0 0-8.47-8.472.933.933 0 0 1 0-1.865Z"/></svg>
