<svg width="44" height="44" viewBox="0 0 44 44" fill="none" xmlns="http://www.w3.org/2000/svg">
<rect width="44" height="44" fill="#B01525"/>
<path d="M21.9994 5.70312C30.9624 5.70312 38.2957 13.0365 38.2957 21.9994C38.2957 30.9624 30.9624 38.2957 21.9994 38.2957C13.0365 38.2957 5.70312 30.9624 5.70312 21.9994C5.70312 13.0365 13.0365 5.70312 21.9994 5.70312ZM21.9994 8.96238C18.9031 8.96238 16.1328 9.94016 14.0142 11.7328L32.2661 29.9846C33.8957 27.7031 35.0365 24.9328 35.0365 21.9994C35.0365 14.8291 29.1698 8.96238 21.9994 8.96238ZM29.9846 32.2661L11.7328 14.0142C9.94016 16.1328 8.96238 18.9031 8.96238 21.9994C8.96238 29.1698 14.8291 35.0365 21.9994 35.0365C25.0957 35.0365 27.8661 34.0587 29.9846 32.2661Z" fill="white"/>
</svg>
