<svg width="44" height="44" viewBox="0 0 44 44" fill="none" xmlns="http://www.w3.org/2000/svg">
<rect width="44" height="44" fill="#B01525"/>
<path d="M7.33594 9.40361L9.42186 7.33398L36.6693 34.5814L34.5996 36.6673L28.6189 30.6866C27.6085 31.7784 26.1419 32.6747 24.447 33.1147V36.6673H19.5582V33.1147C16.25 32.2836 13.8545 29.8066 13.8545 26.8895H17.1137C17.1137 28.6495 19.3463 30.1488 22.0026 30.1488C23.8441 30.1488 25.49 29.4318 26.3211 28.3888L21.4811 23.5488C18.0589 22.6851 13.8545 21.5932 13.8545 17.1118C13.8545 16.7369 13.8545 16.3784 13.9685 16.0362L7.33594 9.40361ZM19.5582 10.8866V7.33398H24.447V10.8866C27.7552 11.7177 30.1508 14.1947 30.1508 17.1118H26.8915C26.8915 15.3518 24.6589 13.8525 22.0026 13.8525C21.3996 13.8525 20.8293 13.934 20.2915 14.0644L17.7656 11.5384L19.5582 10.8866Z" fill="white"/>
</svg>
