<svg width="20" height="20" viewBox="0 0 20 20" fill="none" xmlns="http://www.w3.org/2000/svg">
<path d="M10.0511 15.4213L10.051 15.4212L10.0493 15.423L9.99966 15.4726L9.94327 15.4213L9.94323 15.4213C7.96318 13.6247 6.32219 12.1354 5.17576 10.7946C4.02885 9.45323 3.38464 8.26905 3.38464 7.08333C3.38464 5.44428 4.61225 4.21667 6.2513 4.21667C7.5152 4.21667 8.74595 5.03842 9.17971 6.15149L9.19212 6.18333H9.2263H10.7763H10.8105L10.8229 6.15149C11.2567 5.03842 12.4874 4.21667 13.7513 4.21667C15.3904 4.21667 16.618 5.44428 16.618 7.08333C16.618 8.26904 15.9738 9.45322 14.8258 10.7946C13.6784 12.1354 12.0353 13.6246 10.0511 15.4213ZM9.96764 17.8286L10.0013 17.8593L10.035 17.8286L11.2432 16.7287C13.3881 14.7838 15.1725 13.1643 16.4202 11.6379C17.6684 10.1108 18.3846 8.6706 18.3846 7.08333C18.3846 4.48066 16.3455 2.45 13.7513 2.45C12.3062 2.45 10.9193 3.11324 10.0013 4.1571C9.08328 3.11324 7.69637 2.45 6.2513 2.45C3.65708 2.45 1.61797 4.48066 1.61797 7.08333C1.61797 8.6706 2.33415 10.1108 3.58238 11.6379C4.83006 13.1643 6.61453 14.7838 8.75938 16.7287L9.96764 17.8286Z" fill="#1A1A1A" stroke="#1A1A1A" stroke-width="0.1"/>
</svg>
