<svg width="20" height="20" viewBox="0 0 20 20" fill="none" xmlns="http://www.w3.org/2000/svg">
<path d="M9.16797 15.0003H10.8346V13.3337H9.16797V15.0003ZM10.0013 1.66699C8.90695 1.66699 7.82332 1.88254 6.81227 2.30133C5.80123 2.72012 4.88257 3.33395 4.10875 4.10777C2.54594 5.67057 1.66797 7.79019 1.66797 10.0003C1.66797 12.2105 2.54594 14.3301 4.10875 15.8929C4.88257 16.6667 5.80123 17.2805 6.81227 17.6993C7.82332 18.1181 8.90695 18.3337 10.0013 18.3337C12.2114 18.3337 14.3311 17.4557 15.8939 15.8929C17.4567 14.3301 18.3346 12.2105 18.3346 10.0003C18.3346 8.90598 18.1191 7.82234 17.7003 6.8113C17.2815 5.80025 16.6677 4.88159 15.8939 4.10777C15.12 3.33395 14.2014 2.72012 13.1903 2.30133C12.1793 1.88254 11.0957 1.66699 10.0013 1.66699ZM10.0013 16.667C6.3263 16.667 3.33464 13.6753 3.33464 10.0003C3.33464 6.32533 6.3263 3.33366 10.0013 3.33366C13.6763 3.33366 16.668 6.32533 16.668 10.0003C16.668 13.6753 13.6763 16.667 10.0013 16.667ZM10.0013 5.00033C9.11725 5.00033 8.2694 5.35151 7.64428 5.97664C7.01916 6.60176 6.66797 7.4496 6.66797 8.33366H8.33464C8.33464 7.89163 8.51023 7.46771 8.82279 7.15515C9.13535 6.84259 9.55927 6.66699 10.0013 6.66699C10.4433 6.66699 10.8673 6.84259 11.1798 7.15515C11.4924 7.46771 11.668 7.89163 11.668 8.33366C11.668 10.0003 9.16797 9.79199 9.16797 12.5003H10.8346C10.8346 10.6253 13.3346 10.417 13.3346 8.33366C13.3346 7.4496 12.9834 6.60176 12.3583 5.97664C11.7332 5.35151 10.8854 5.00033 10.0013 5.00033Z" fill="#7C7C7C"/>
</svg>
