<svg width="40" height="40" viewBox="0 0 40 40" fill="none" xmlns="http://www.w3.org/2000/svg">
  <path d="M19.9997 3.33203C29.1663 3.33203 36.6663 10.832 36.6663 19.9987C36.6663 29.1654 29.1663 36.6654 19.9997 36.6654C10.833 36.6654 3.33301 29.1654 3.33301 19.9987C3.33301 10.832 10.833 3.33203 19.9997 3.33203ZM19.9997 6.66536C16.833 6.66536 13.9997 7.66536 11.833 9.4987L30.4997 28.1654C32.1663 25.832 33.333 22.9987 33.333 19.9987C33.333 12.6654 27.333 6.66536 19.9997 6.66536ZM28.1663 30.4987L9.49967 11.832C7.66634 13.9987 6.66634 16.832 6.66634 19.9987C6.66634 27.332 12.6663 33.332 19.9997 33.332C23.1663 33.332 25.9997 32.332 28.1663 30.4987Z" fill="white" />
</svg>
