<svg width="28" height="29" viewBox="0 0 28 29" fill="none" xmlns="http://www.w3.org/2000/svg">
  <path d="M18.1741 13.6744L12.6901 10.6738C12.3747 10.5013 12.002 10.5077 11.6929 10.6909C11.3837 10.8742 11.1992 11.198 11.1992 11.5575V17.5072C11.1992 17.865 11.3825 18.1882 11.6897 18.3718C11.8501 18.4676 12.028 18.5157 12.2062 18.5157C12.3694 18.5157 12.5331 18.4754 12.6836 18.3943L18.1678 15.4454C18.4934 15.2702 18.6966 14.9318 18.6981 14.5619C18.6994 14.192 18.4987 13.8521 18.1741 13.6744ZM12.6539 16.7588V12.312L16.7526 14.5547L12.6539 16.7588Z" fill="white" />
  <path d="M26.5836 9.82061L26.5825 9.80924C26.5615 9.60943 26.3522 7.83211 25.4882 6.92811C24.4895 5.86483 23.3572 5.73566 22.8127 5.67373C22.7676 5.66861 22.7264 5.66388 22.6894 5.65896L22.6461 5.65441C19.3642 5.41577 14.4078 5.38319 14.3582 5.383L14.3538 5.38281L14.3495 5.383C14.2998 5.38319 9.34347 5.41577 6.03203 5.65441L5.98828 5.65896C5.95305 5.66369 5.91423 5.66805 5.87199 5.67297C5.33372 5.73509 4.21362 5.86445 3.21208 6.96618C2.38914 7.86052 2.15126 9.59977 2.12683 9.79523L2.12399 9.82061C2.1166 9.90375 1.94141 11.8832 1.94141 13.8703V15.7279C1.94141 17.7151 2.1166 19.6945 2.12399 19.7778L2.12531 19.7903C2.14634 19.9869 2.35543 21.7317 3.21549 22.6361C4.15453 23.6637 5.34186 23.7997 5.98052 23.8728C6.08146 23.8844 6.1684 23.8942 6.22768 23.9046L6.28507 23.9126C8.18 24.0929 14.1212 24.1817 14.3731 24.1853L14.3807 24.1855L14.3883 24.1853C14.4379 24.1851 19.3941 24.1526 22.676 23.9139L22.7194 23.9094C22.7608 23.9039 22.8074 23.899 22.8586 23.8937C23.3938 23.8368 24.5078 23.7188 25.4956 22.6321C26.3185 21.7375 26.5566 19.9983 26.5808 19.803L26.5836 19.7777C26.591 19.6943 26.7664 17.7151 26.7664 15.7279V13.8703C26.7662 11.8832 26.591 9.90394 26.5836 9.82061ZM25.3115 15.7279C25.3115 17.5672 25.1508 19.4614 25.1357 19.6352C25.074 20.1142 24.823 21.2146 24.422 21.6504C23.8038 22.3306 23.1688 22.398 22.7051 22.447C22.6491 22.4529 22.5972 22.4586 22.5502 22.4645C19.3759 22.694 14.6067 22.7292 14.387 22.7306C14.1406 22.727 8.28625 22.6374 6.44909 22.4667C6.35496 22.4514 6.25325 22.4396 6.14605 22.4275C5.60229 22.3652 4.85795 22.28 4.28559 21.6504L4.27214 21.636C3.87819 21.2256 3.63444 20.1966 3.5725 19.6409C3.56095 19.5095 3.39618 17.5929 3.39618 15.7279V13.8703C3.39618 12.0332 3.55641 10.1411 3.57194 9.9636C3.64561 9.39938 3.9013 8.36565 4.28559 7.94783C4.92273 7.24706 5.59452 7.16941 6.03885 7.11808C6.08128 7.11316 6.12086 7.10861 6.15741 7.10388C9.37794 6.87319 14.1815 6.83891 14.3538 6.83758C14.5262 6.83872 19.328 6.87319 22.5199 7.10388C22.5591 7.1088 22.6019 7.11372 22.6479 7.11903C23.105 7.17111 23.7957 7.2499 24.4296 7.92605L24.4355 7.9323C24.8294 8.34273 25.0732 9.38972 25.1351 9.95659C25.1461 10.0806 25.3115 12.0013 25.3115 13.8703V15.7279Z" fill="white" />
</svg>
