<svg width="32" height="32" viewBox="0 0 32 32" fill="none" xmlns="http://www.w3.org/2000/svg">
  <path d="M23.9999 21.333H23.2266L22.1466 20.253C23.3333 18.6663 23.9999 16.6663 23.9999 14.6663C23.9999 9.50634 19.8266 5.33301 14.6666 5.33301C12.6666 5.33301 10.6666 5.99967 9.05325 7.19967C4.93325 10.293 4.09325 16.1463 7.18659 20.2663C10.2799 24.3863 16.1333 25.2263 20.2533 22.133L21.3333 23.213V23.9997L27.9999 30.6663L30.6666 27.9997L23.9999 21.333ZM14.6666 21.333C10.9866 21.333 7.99992 18.3463 7.99992 14.6663C7.99992 10.9863 10.9866 7.99967 14.6666 7.99967C18.3466 7.99967 21.3333 10.9863 21.3333 14.6663C21.3333 18.3463 18.3466 21.333 14.6666 21.333ZM3.99992 7.99967L1.33325 10.6663V1.33301H10.6666L7.99992 3.99967H3.99992V7.99967ZM27.9999 1.33301V10.6663L25.3333 7.99967V3.99967H21.3333L18.6666 1.33301H27.9999ZM7.99992 25.333L10.6666 27.9997H1.33325V18.6663L3.99992 21.333V25.333H7.99992Z" fill="white" />
</svg>
