<svg width="40" height="40" viewBox="0 0 40 40" fill="none" xmlns="http://www.w3.org/2000/svg">
  <path d="M20.0002 6.61601C12.6502 6.61601 6.61683 12.6493 6.61683 19.9993C6.61683 27.3493 12.6502 33.3827 20.0002 33.3827C27.3502 33.3827 33.3835 27.3493 33.3835 19.9993C33.3835 12.6493 27.3502 6.61601 20.0002 6.61601ZM20.0002 3.33268C29.2335 3.33268 36.6668 10.766 36.6668 19.9993C36.6668 29.2327 29.2335 36.666 20.0002 36.666C10.7668 36.666 3.3335 29.2327 3.3335 19.9993C3.3335 10.766 10.7668 3.33268 20.0002 3.33268ZM23.1335 19.216L26.6668 22.7327V13.3327H17.2668L20.7835 16.866L12.5002 25.166L14.8335 27.4993" fill="white" />
</svg>
