<svg width="342" height="121" viewBox="0 0 342 121" fill="none" xmlns="http://www.w3.org/2000/svg">
<rect y="0.49707" width="342" height="120" fill="white"/>
<path d="M208.807 81.749C208.807 85.1622 210.17 88.2486 212.375 90.4797C214.573 92.7032 217.613 94.0783 220.977 94.0783C224.341 94.0783 227.382 92.7032 229.581 90.4791C231.786 88.2484 233.15 85.162 233.15 81.749C233.15 78.3342 231.786 75.2475 229.581 73.0165C227.383 70.7922 224.341 69.4171 220.977 69.4171C217.613 69.4171 214.572 70.7922 212.374 73.0163C210.17 75.2473 208.807 78.3339 208.807 81.749ZM210.478 92.3452C207.797 89.632 206.139 85.8855 206.139 81.749C206.139 77.6106 207.796 73.8639 210.477 71.1508C213.165 68.4304 216.877 66.749 220.977 66.749C225.077 66.749 228.79 68.431 231.478 71.151C234.16 73.8642 235.818 77.6103 235.818 81.749C235.818 85.8855 234.16 89.6318 231.478 92.3446C228.789 95.0647 225.076 96.7464 220.977 96.7464C216.877 96.7464 213.166 95.0644 210.478 92.3452Z" fill="#1A1A1A" stroke="#1A1A1A" stroke-width="0.5"/>
<path d="M104.561 81.749C104.561 85.1622 105.924 88.2486 108.129 90.4797C110.327 92.7032 113.367 94.0783 116.731 94.0783C120.093 94.0783 123.134 92.703 125.332 90.4789C127.538 88.2481 128.901 85.162 128.901 81.749C128.901 78.3342 127.538 75.2475 125.333 73.0168C123.135 70.7922 120.094 69.4171 116.731 69.4171C113.367 69.4171 110.326 70.7922 108.128 73.0163C105.924 75.2473 104.561 78.3339 104.561 81.749ZM106.232 92.3452C103.551 89.632 101.893 85.8855 101.893 81.749C101.893 77.6106 103.55 73.8639 106.231 71.1508C108.919 68.4304 112.631 66.749 116.731 66.749C120.83 66.749 124.542 68.4307 127.23 71.1513C129.911 73.8642 131.569 77.6106 131.569 81.749C131.569 85.8855 129.911 89.6315 127.229 92.3444C124.541 95.0642 120.829 96.7464 116.731 96.7464C112.631 96.7464 108.919 95.0644 106.232 92.3452Z" fill="#1A1A1A" stroke="#1A1A1A" stroke-width="0.5"/>
<path d="M202.522 87.6336C202.254 86.7761 202.042 85.9002 201.894 85.012C201.715 83.94 201.621 82.849 201.621 81.7482C201.621 79.1108 202.144 76.5848 203.09 74.2718C204.073 71.8714 205.508 69.7159 207.285 67.9176C209.07 66.1105 211.203 64.6546 213.572 63.6623C215.856 62.7058 218.358 62.1776 220.976 62.1776C223.593 62.1776 226.092 62.7064 228.374 63.6645C230.28 64.4646 232.033 65.5641 233.577 66.9048L233.62 66.8512L234.669 67.9122C236.445 69.7076 237.879 71.8639 238.863 74.2697C239.809 76.5831 240.332 79.1103 240.332 81.7482C240.332 82.0916 240.32 82.4731 240.296 82.8877C240.283 83.1199 240.266 83.3445 240.247 83.5614H252.73V83.5659C255.418 83.4968 257.871 83.1265 259.56 81.523C261.31 79.8616 262.409 76.787 262.409 71.2297C262.409 71.1419 262.291 70.9872 262.115 70.8025C261.794 70.4642 261.336 70.1305 260.874 69.8178L260.831 69.7903C257.707 67.5713 257.843 64.6023 257.98 61.6053C258.005 61.0551 258.031 60.5028 258.032 60.0196H258.026L258.033 59.8236C258.104 59.0263 258.175 57.0528 258.238 54.6363C258.319 51.4878 258.391 47.6044 258.435 44.5068C258.438 44.207 258.452 43.9671 258.465 43.716C258.552 42.1136 258.67 39.9426 255.123 38.7535C246.04 35.7087 230.777 34.0276 214.791 33.4203C195.826 32.6994 175.884 33.4969 164.011 35.324L164.011 35.3208C159.294 36.086 154.714 37.6548 150.157 39.6889C145.556 41.7422 140.96 44.279 136.266 46.9465L136.25 46.9569C134.914 47.6941 134.24 48.07 133.598 48.4278C129.103 50.9336 125.576 52.9 123.124 53.4944C122.221 53.7249 120.851 53.7754 118.876 53.8474C118.305 53.8682 117.678 53.8912 116.911 53.925H116.895C111.192 54.123 100.687 56.9095 92.5224 61.3876C86.7829 64.5351 82.2731 68.4669 81.6819 72.7857C81.5562 73.7582 81.7921 77.8707 82.2451 81.6893C82.5437 84.2079 82.9273 86.5336 83.3433 87.5923C87.6628 88.0843 93.766 87.6627 98.2851 87.6627C98.014 86.8028 97.8011 85.924 97.6514 85.0318C97.4708 83.9541 97.3764 82.8562 97.3764 81.7482C97.3764 79.1111 97.899 76.585 98.8451 74.2723C99.827 71.8716 101.262 69.7161 103.039 67.9176C104.824 66.11 106.957 64.6543 109.326 63.6621C111.61 62.7056 114.111 62.1776 116.732 62.1776C119.347 62.1776 121.846 62.7064 124.128 63.6645C126.07 64.4801 127.856 65.61 129.425 66.9926L129.467 66.9493L130.424 67.9176C132.2 69.7159 133.636 71.8714 134.618 74.2718C135.564 76.5848 136.087 79.1108 136.087 81.7482C136.087 82.8496 135.993 83.9422 135.814 85.0152C135.665 85.9013 135.455 86.7751 135.186 87.6304C150.402 87.4301 165.704 87.4978 180.984 87.5659C188.173 87.5979 195.359 87.6299 202.522 87.6336ZM204.52 84.5744C204.68 85.528 204.913 86.444 205.214 87.3146C205.334 87.6622 205.37 88.0163 205.322 88.3618C205.274 88.7067 205.143 89.0389 204.928 89.3425L204.932 89.3449C204.718 89.6488 204.448 89.8852 204.137 90.0472H204.131C203.815 90.2112 203.468 90.2966 203.104 90.2966V90.2913C195.736 90.2889 188.357 90.2558 180.973 90.2232C165.513 90.1547 150.03 90.0859 134.632 90.2958C134.256 90.3022 133.903 90.2222 133.588 90.0619C133.271 89.9007 132.997 89.6654 132.782 89.3647L132.777 89.3543C132.566 89.0565 132.434 88.7222 132.385 88.3679C132.337 88.0237 132.371 87.6683 132.492 87.3191C132.793 86.4477 133.028 85.531 133.187 84.5777C133.339 83.6679 133.419 82.7223 133.419 81.7482C133.419 79.4438 132.971 77.2568 132.159 75.2723C131.398 73.4135 130.314 71.7182 128.978 70.2577L128.523 69.7977C126.981 68.2393 125.14 66.9824 123.096 66.1239C121.134 65.3002 118.984 64.8456 116.732 64.8456C114.467 64.8456 112.31 65.2994 110.348 66.1215C108.307 66.976 106.471 68.2287 104.936 69.7831C103.392 71.3463 102.149 73.2086 101.305 75.2729C100.493 77.2571 100.044 79.4441 100.044 81.7482C100.044 82.7287 100.125 83.6796 100.278 84.5942C100.438 85.5491 100.674 86.4674 100.977 87.3412C101.099 87.687 101.134 88.041 101.087 88.3868V88.3922C101.039 88.7404 100.91 89.072 100.701 89.3706C100.495 89.6686 100.225 89.9055 99.9065 90.0728C99.5882 90.2427 99.2376 90.3307 98.8713 90.3307H83.9852C83.5855 90.3075 83.1922 90.2547 82.795 90.2048L82.7947 90.2075C82.4028 90.1632 82.0476 90.0263 81.7459 89.8102L81.7475 89.8078C81.446 89.5914 81.2038 89.303 81.0359 88.9567C80.4394 87.719 79.9463 84.941 79.5979 82.0019C79.124 78.0103 78.8962 73.573 79.0453 72.4365V72.4314C79.7708 67.1329 84.831 62.5679 91.2407 59.053C99.7451 54.3888 110.767 51.4822 116.796 51.2682C117.465 51.2383 118.154 51.2127 118.782 51.19C120.574 51.1246 121.817 51.0788 122.478 50.912H122.489C124.591 50.4051 127.982 48.5142 132.306 46.1039L134.968 44.6224C139.713 41.9285 144.364 39.3618 149.073 37.2604C153.827 35.1385 158.625 33.499 163.605 32.6925L163.615 32.6874C175.61 30.8414 195.744 30.0354 214.885 30.763C231.098 31.379 246.629 33.1012 255.967 36.2311C261.437 38.0646 261.256 41.3938 261.123 43.8516C261.108 44.1186 261.094 44.3753 261.092 44.5383C261.048 47.6733 260.976 51.5756 260.895 54.6988C260.83 57.2137 260.759 59.239 260.694 60.0154L260.691 60.053C260.687 60.644 260.662 61.1832 260.637 61.72C260.533 63.9916 260.43 66.2418 262.374 67.6222L262.429 67.6625C263.008 68.0569 263.586 68.4875 264.043 68.968C264.663 69.6195 265.077 70.362 265.077 71.2297C265.077 77.6191 263.657 81.3034 261.395 83.4509C259.079 85.6497 256.038 86.143 252.761 86.2241C250.426 86.6232 242.672 86.2295 239.773 86.2295C239.452 86.2295 239.144 86.1633 238.854 86.0325H238.849C238.571 85.9061 238.319 85.7172 238.098 85.4651H238.093C237.885 85.2263 237.732 84.9539 237.638 84.6534C237.547 84.36 237.518 84.0515 237.552 83.7354V83.7249C237.592 83.3813 237.621 83.0529 237.639 82.742C237.655 82.451 237.664 82.1201 237.664 81.7482C237.664 79.4427 237.215 77.255 236.404 75.2702C235.643 73.4106 234.554 71.7121 233.209 70.2468L232.765 69.7977C231.221 68.2367 229.381 66.98 227.342 66.1239C225.381 65.3002 223.23 64.8456 220.976 64.8456C218.712 64.8456 216.556 65.2997 214.593 66.1217C212.553 66.9763 210.717 68.229 209.182 69.7831C207.637 71.346 206.394 73.2086 205.55 75.2723C204.737 77.2568 204.289 79.4438 204.289 81.7482C204.289 82.7218 204.369 83.666 204.52 84.5744ZM260.689 60.0196V60.0269C260.688 60.0621 260.691 60.0317 260.693 60.0196H260.689Z" fill="#1A1A1A" stroke="#1A1A1A" stroke-width="0.5"/>
<path d="M168.651 70.3858C167.359 70.3858 166.301 69.3281 166.301 68.0357C166.301 66.7428 167.359 65.6852 168.651 65.6852C169.944 65.6852 171.002 66.7428 171.002 68.0357C171.002 69.3281 169.944 70.3858 168.651 70.3858ZM175.702 73.9116V62.1594H161.6V73.9116H175.702ZM175.702 59.8094C176.995 59.8094 178.053 60.867 178.053 62.1594V73.9116C178.053 75.204 176.995 76.2616 175.702 76.2616H161.6C160.308 76.2616 159.25 75.204 159.25 73.9116V62.1594C159.25 60.867 160.308 59.8094 161.6 59.8094H162.775V57.4588C162.775 54.1686 165.361 51.583 168.651 51.583C171.942 51.583 174.528 54.1686 174.528 57.4588V59.8094H175.702ZM168.651 53.933C166.653 53.933 165.126 55.461 165.126 57.4588V59.8094H172.177V57.4588C172.177 55.461 170.649 53.933 168.651 53.933Z" fill="#B01525" stroke="#B01525" stroke-width="0.5"/>
</svg>
