<svg width="36" height="36" viewBox="0 0 36 36" fill="none" xmlns="http://www.w3.org/2000/svg">
  <path d="M2.25 6V8.25C2.25 14.475 5.565 19.92 10.5 22.95V30H33V27C33 23.01 25.005 21 21 21C21 21 20.745 21 20.625 21C13.5 21 7.5 15 7.5 8.25V6M21 6C19.4087 6 17.8826 6.63214 16.7574 7.75736C15.6321 8.88258 15 10.4087 15 12C15 13.5913 15.6321 15.1174 16.7574 16.2426C17.8826 17.3679 19.4087 18 21 18C22.5913 18 24.1174 17.3679 25.2426 16.2426C26.3679 15.1174 27 13.5913 27 12C27 10.4087 26.3679 8.88258 25.2426 7.75736C24.1174 6.63214 22.5913 6 21 6Z" fill="white" />
</svg>
