<svg width="342" height="121" viewBox="0 0 342 121" fill="none" xmlns="http://www.w3.org/2000/svg">
<rect y="0.49707" width="342" height="120" fill="white"/>
<path d="M93.543 82.2666C93.543 85.5852 94.8936 88.5856 97.0779 90.7553C99.2639 92.9263 102.289 94.2686 105.636 94.2686C108.983 94.2686 112.008 92.926 114.193 90.755C116.377 88.5856 117.728 85.5849 117.728 82.2666C117.728 78.9476 116.377 75.9463 114.193 73.7764C112.008 71.6046 108.983 70.2618 105.636 70.2618C102.289 70.2618 99.2641 71.6046 97.0782 73.7761C94.8939 75.946 93.543 78.9476 93.543 82.2666ZM95.2018 92.6416C92.5281 89.9861 90.875 86.3183 90.875 82.2666C90.875 78.2147 92.5281 74.5461 95.202 71.8898C97.8741 69.2354 101.563 67.5938 105.636 67.5938C109.709 67.5938 113.397 69.2351 116.07 71.8901C118.743 74.5461 120.396 78.2144 120.396 82.2666C120.396 86.3183 118.743 89.9858 116.07 92.6413C113.398 95.2955 109.709 96.9366 105.636 96.9366C101.563 96.9366 97.8743 95.2958 95.2018 92.6416Z" fill="#1A1A1A" stroke="#1A1A1A" stroke-width="0.5"/>
<path d="M210.902 82.2666C210.902 85.5852 212.253 88.5859 214.437 90.755C216.623 92.9263 219.648 94.2686 222.995 94.2686C226.342 94.2686 229.368 92.9263 231.554 90.7553C233.738 88.5862 235.089 85.5852 235.089 82.2666C235.089 78.9473 233.738 75.9458 231.554 73.7758C229.368 71.6043 226.342 70.2618 222.995 70.2618C219.648 70.2618 216.623 71.6046 214.437 73.7761C212.253 75.946 210.902 78.9476 210.902 82.2666ZM212.561 92.6413C209.887 89.9861 208.234 86.3183 208.234 82.2666C208.234 78.2144 209.888 74.5459 212.561 71.8898C215.233 69.2354 218.922 67.5938 222.995 67.5938C227.069 67.5938 230.758 69.2351 233.43 71.8896C236.104 74.5459 237.757 78.2147 237.757 82.2666C237.757 86.3186 236.103 89.9864 233.43 92.6416C230.757 95.2958 227.068 96.9366 222.995 96.9366C218.922 96.9366 215.233 95.2958 212.561 92.6413Z" fill="#1A1A1A" stroke="#1A1A1A" stroke-width="0.5"/>
<path d="M205.667 36.5565L223.857 28.2947V43.4687H237.788L236.54 57.4577L257.701 54.1083C258.06 56.1037 258.453 58.8899 258.765 60.8523C260.064 69.0114 260.867 76.6055 260.386 81.147C259.999 84.7919 256.61 86.5944 252.487 87.4514C248.769 88.2246 244.425 88.2339 241.457 88.18H241.447C241.113 88.1712 240.798 88.0946 240.51 87.9535C240.217 87.8097 239.961 87.6064 239.752 87.3476C239.545 87.0901 239.4 86.7987 239.322 86.4815C239.242 86.1635 239.234 85.8377 239.299 85.512H239.305C239.409 84.9925 239.489 84.4546 239.544 83.9008C239.595 83.3901 239.621 82.8444 239.621 82.2657C239.621 80.0318 239.174 77.9043 238.366 75.967C237.524 73.95 236.29 72.1333 234.758 70.6115L234.363 70.2142C232.914 68.8666 231.223 67.7735 229.362 67.0083C227.409 66.2047 225.259 65.7615 222.997 65.7615C220.743 65.7615 218.598 66.2057 216.647 67.0102C214.616 67.8479 212.783 69.0773 211.245 70.604L210.796 71.0496C209.468 72.4727 208.389 74.1309 207.629 75.9537C206.82 77.8936 206.373 80.0257 206.373 82.2657C206.373 82.8394 206.398 83.3786 206.447 83.8807C206.499 84.4031 206.579 84.9375 206.687 85.4802C206.753 85.8111 206.744 86.1384 206.664 86.4535C206.583 86.7753 206.432 87.0706 206.216 87.331L206.214 87.3289C205.999 87.589 205.737 87.7908 205.441 87.93C205.14 88.0712 204.819 88.1437 204.49 88.1437H124.141C123.811 88.1437 123.491 88.0712 123.19 87.93C122.894 87.7913 122.634 87.5888 122.419 87.3289L122.416 87.331C122.2 87.0706 122.049 86.7753 121.968 86.4535C121.888 86.1384 121.88 85.8111 121.945 85.4802C122.053 84.9335 122.133 84.3991 122.184 83.8815C122.233 83.3789 122.258 82.8399 122.258 82.2657C122.258 80.0251 121.812 77.8926 121.003 75.9526C120.161 73.9324 118.927 72.1149 117.397 70.5949C115.863 69.0723 114.032 67.845 111.997 67.008C110.046 66.2052 107.897 65.7615 105.636 65.7615C103.374 65.7615 101.224 66.2049 99.2709 67.008C97.4099 67.7735 95.7181 68.8666 94.2696 70.2142L93.8737 70.6115C92.3428 72.1328 91.1088 73.9495 90.267 75.9665C89.4586 77.9038 89.0123 80.0315 89.0123 82.2657C89.0123 82.841 89.0376 83.381 89.0867 83.8847C89.1371 84.401 89.2174 84.9343 89.3252 85.4802C89.3906 85.81 89.3828 86.1382 89.3028 86.4538C89.2222 86.775 89.072 87.0698 88.8554 87.331C88.6427 87.5877 88.381 87.7892 88.08 87.93C87.7791 88.0712 87.4589 88.1437 87.1292 88.1437H81.5177C73.7529 88.1437 72 82.3575 72 75.9446H72.0053C72.0051 73.2035 72.3287 70.426 72.6129 67.9848C72.7932 66.4357 72.9578 65.0227 73.008 63.9448C73.068 62.6081 73.3941 61.4534 73.8047 60.5065C74.529 58.8361 75.5328 57.795 75.8028 57.5354L75.9351 57.4191L76.0784 57.3099L76.0768 57.3075C83.7498 51.9755 92.065 46.2546 100.497 40.5045C108.69 34.9168 116.989 29.3078 124.887 24.0237L124.897 24.0133C126.322 23.0795 127.915 22.429 129.405 21.977C132.153 21.1435 134.572 20.9941 134.854 20.9797L134.91 20.9779C143.909 20.7289 163.285 21.1635 190.143 21.6262C195.318 26.6029 200.492 31.5798 205.667 36.5565ZM255.523 57.5661L233.404 60.8526L234.717 46.1367H221.189V32.432L205.126 39.7278L189.048 24.2657C162.512 23.811 143.911 23.3916 135.019 23.6344L134.985 23.6363C134.814 23.644 132.667 23.7649 130.176 24.5202C128.91 24.9041 127.559 25.4554 126.356 26.2438L126.354 26.2414C118.66 31.3893 110.368 36.9947 101.998 42.7035C93.791 48.3005 85.492 54.0112 77.6146 59.4854C77.3895 59.7088 76.7376 60.4185 76.2433 61.5593C75.9455 62.2458 75.7091 63.0847 75.6654 64.0596C75.6075 65.3042 75.4418 66.7273 75.2601 68.2868C74.9805 70.6873 74.6627 73.418 74.6627 75.9446H74.668C74.668 80.9549 75.9298 85.4757 81.5177 85.4757H86.6158C86.5438 85.0453 86.4846 84.5982 86.4395 84.135C86.3768 83.4907 86.3442 82.8661 86.3442 82.2657C86.3442 79.6777 86.8647 77.2045 87.8076 74.9452C88.7116 72.7793 90.0053 70.8121 91.6016 69.1304V69.1019L91.9975 68.7086C93.7742 66.9429 95.8985 65.5198 98.2597 64.5486C100.539 63.6111 103.032 63.0935 105.636 63.0935C108.239 63.0935 110.73 63.6113 113.009 64.5486C115.37 65.5203 117.495 66.9437 119.273 68.7086C121.052 70.4752 122.485 72.5858 123.463 74.9313C124.405 77.1938 124.926 79.6719 124.926 82.2657C124.926 82.8653 124.894 83.4888 124.831 84.1318C124.786 84.596 124.726 85.0443 124.654 85.4757H203.977C203.905 85.0451 203.846 84.5998 203.801 84.1411V84.136C203.738 83.4917 203.705 82.8666 203.705 82.2657C203.705 79.6719 204.226 77.1946 205.169 74.9324C206.147 72.5866 207.581 70.4754 209.36 68.7086L210.347 67.7287L210.389 67.7748C211.942 66.4389 213.711 65.3442 215.635 64.5508C217.913 63.6119 220.4 63.0935 222.997 63.0935C225.601 63.0935 228.093 63.6108 230.373 64.5489C232.734 65.5201 234.859 66.9432 236.635 68.7086L237.031 69.1022V69.1304C238.627 70.8124 239.921 72.7798 240.825 74.9457C241.768 77.205 242.289 79.6777 242.289 82.2657C242.289 82.8778 242.256 83.5112 242.192 84.1612C242.146 84.6182 242.084 85.0752 242.004 85.5309C244.812 85.5709 248.677 85.5253 251.945 84.8458C255.008 84.2089 257.509 83.0376 257.739 80.876C258.193 76.5842 257.406 69.2254 256.139 61.2691C255.944 60.0455 255.738 58.808 255.523 57.5661Z" fill="#1A1A1A" stroke="#1A1A1A" stroke-width="0.5"/>
<path fill-rule="evenodd" clip-rule="evenodd" d="M228.729 37.3833L249.615 16.4971L251.522 18.4039L230.635 39.2902L228.729 37.3833Z" fill="#B01525" stroke="#B01525" stroke-width="0.5"/>
<path fill-rule="evenodd" clip-rule="evenodd" d="M251.522 37.3833L230.635 16.4971L228.729 18.4039L249.615 39.2902L251.522 37.3833Z" fill="#B01525" stroke="#B01525" stroke-width="0.5"/>
</svg>
