<svg width="342" height="121" viewBox="0 0 342 121" fill="none" xmlns="http://www.w3.org/2000/svg">
<rect y="0.49707" width="342" height="120" fill="white"/>
<path d="M211.068 81.7266C211.068 85.1446 212.441 88.2345 214.66 90.4669C216.877 92.6976 219.944 94.077 223.337 94.077C226.728 94.077 229.795 92.6976 232.012 90.4666C234.231 88.2342 235.603 85.1446 235.603 81.7266C235.603 78.3091 234.231 75.2195 232.012 72.9872C229.795 70.7564 226.728 69.377 223.337 69.377C219.944 69.377 216.877 70.7564 214.66 72.9872C212.441 75.2195 211.068 78.3091 211.068 81.7266ZM212.773 92.343C210.071 89.6246 208.4 85.8711 208.4 81.7266C208.4 77.5826 210.071 73.8295 212.774 71.111C215.477 68.3909 219.212 66.709 223.337 66.709C227.461 66.709 231.195 68.3909 233.898 71.111C236.601 73.8295 238.271 77.5826 238.271 81.7266C238.271 85.8711 236.6 89.6243 233.899 92.3428C231.195 95.0631 227.461 96.745 223.337 96.745C219.212 96.745 215.477 95.0631 212.773 92.343Z" fill="#1A1A1A" stroke="#B01525" stroke-width="0.5"/>
<path d="M97.7247 81.7274C97.7247 85.1449 99.0966 88.2345 101.316 90.4669C103.533 92.6976 106.6 94.077 109.991 94.077C113.382 94.077 116.45 92.6973 118.668 90.4663C120.887 88.234 122.259 85.1446 122.259 81.7274C122.259 78.3099 120.887 75.2203 118.668 72.988C116.45 70.7567 113.382 69.377 109.991 69.377C106.6 69.377 103.533 70.7564 101.316 72.9874C99.0966 75.2198 97.7247 78.3097 97.7247 81.7274ZM99.4293 92.343C96.7271 89.6246 95.0566 85.8714 95.0566 81.7274C95.0566 77.5831 96.7271 73.8297 99.4293 71.1113C102.133 68.3909 105.867 66.709 109.991 66.709C114.115 66.709 117.85 68.3912 120.554 71.1118C123.256 73.8303 124.927 77.5831 124.927 81.7274C124.927 85.8714 123.256 89.624 120.554 92.3425C117.849 95.0628 114.115 96.745 109.991 96.745C105.867 96.745 102.133 95.0631 99.4293 92.343Z" fill="#1A1A1A" stroke="#B01525" stroke-width="0.5"/>
<path d="M211.874 33.9238C215.232 34.8451 218.452 36.0668 221.496 37.3923C224.533 38.7146 227.383 40.1326 230.02 41.4592C232.153 42.5323 234.169 43.5461 236.001 44.3508C237.793 45.1382 239.431 45.7377 240.872 46.0183L240.948 46.0344L240.947 46.0376C243.442 46.5915 246.395 46.7782 249.17 46.953C249.867 46.9967 250.552 47.0405 251.098 47.0792L251.143 47.0845C252.315 47.1389 253.61 47.2177 254.753 47.3214C255.737 47.4108 256.597 47.517 257.162 47.6392C257.636 47.7419 258.047 47.9868 258.356 48.3289V48.3342C258.66 48.6736 258.86 49.1034 258.914 49.5815C259.015 50.4513 259.007 51.9398 258.948 53.57C258.862 55.9349 258.677 58.5293 258.554 59.9722C258.554 60.6547 258.504 62.5184 258.467 63.9055C258.449 64.5677 258.434 65.0965 258.434 65.4391C258.434 65.7966 258.605 66.1215 258.86 66.4211C259.193 66.8136 259.68 67.1858 260.179 67.5399C260.233 67.5724 260.262 67.5964 260.29 67.6189C260.866 68.007 261.448 68.4374 261.923 68.9337L261.925 68.9312C262.551 69.5849 262.968 70.3301 262.968 71.2004C262.968 72.3512 262.863 73.8447 262.721 75.2929C262.523 77.3196 262.255 79.2222 262.11 79.9575C262.01 80.62 261.767 81.2784 261 82.0215C260.396 82.6077 259.423 83.2568 257.808 84.0369L257.765 84.0556C256.611 84.5849 253.94 85.2333 251.012 85.7874C247.938 86.3691 244.533 86.8634 242.305 87.0139C241.962 87.0374 241.63 86.984 241.32 86.8592C241.012 86.7351 240.735 86.5411 240.5 86.2823L240.498 86.2847C240.265 86.0291 240.099 85.7335 240.004 85.4102C239.91 85.0913 239.889 84.7552 239.945 84.4142C240.01 84.006 240.062 83.5596 240.1 83.0764C240.134 82.6421 240.151 82.1914 240.151 81.7264C240.151 79.4332 239.7 77.2518 238.882 75.2671C238.031 73.202 236.783 71.3389 235.233 69.7746L235.211 69.752C233.658 68.193 231.805 66.9361 229.75 66.0789C227.775 65.2552 225.609 64.8006 223.336 64.8006C221.053 64.8006 218.881 65.2552 216.905 66.0786C215.053 66.8494 213.37 67.9433 211.922 69.2885L211.453 69.761C209.898 71.3269 208.645 73.1929 207.792 75.2615C206.972 77.2481 206.52 79.4316 206.52 81.7264C206.52 82.7048 206.6 83.6538 206.753 84.5668C206.913 85.5222 207.149 86.4411 207.452 87.3149H207.457C207.575 87.6561 207.608 88.0099 207.559 88.361V88.3661C207.51 88.7084 207.379 89.0392 207.164 89.3429L207.168 89.3453C206.955 89.6462 206.682 89.8842 206.365 90.0486C206.049 90.2124 205.701 90.2988 205.337 90.2988V90.2935C196.994 90.2897 188.634 90.2505 180.27 90.2116C162.836 90.1299 145.375 90.048 128.017 90.2879C127.642 90.2924 127.292 90.211 126.979 90.052H126.973C126.661 89.893 126.389 89.6572 126.171 89.3538C125.953 89.0507 125.817 88.7145 125.767 88.3618C125.716 88.011 125.751 87.6519 125.874 87.3021C126.18 86.4246 126.416 85.5092 126.575 84.5631C126.728 83.6509 126.808 82.7034 126.808 81.7272C126.808 79.4239 126.356 77.2355 125.538 75.2478C124.771 73.3853 123.682 71.6892 122.341 70.2309L121.873 69.761C120.319 68.1986 118.466 66.9398 116.409 66.081C114.434 65.256 112.266 64.8006 109.992 64.8006C107.71 64.8006 105.538 65.2552 103.561 66.0786C101.503 66.9364 99.6499 68.1933 98.0997 69.752C96.5483 71.3128 95.2983 73.1769 94.4466 75.2471C93.6286 77.2353 93.1769 79.4239 93.1769 81.7272C93.1769 82.7088 93.2578 83.6618 93.4123 84.5785C93.5726 85.5286 93.8106 86.4486 94.1182 87.3298V87.3352C94.2385 87.6823 94.274 88.0358 94.2263 88.3808C94.1769 88.7281 94.0464 89.0606 93.8367 89.3615L93.8316 89.372C93.6161 89.6745 93.3474 89.9101 93.0379 90.071C92.7223 90.235 92.3738 90.321 92.0045 90.321H77.0131L76.987 90.3156C76.602 90.3071 76.1921 90.2428 75.8074 90.1988C75.4259 90.1542 75.0732 90.016 74.7682 89.7986C74.4643 89.583 74.2199 89.2938 74.0511 88.9461C73.4505 87.7076 72.9537 84.9254 72.6023 81.9809C72.125 77.9839 71.8953 73.5422 72.0458 72.4037V72.3986C72.7768 67.0938 77.8733 62.5239 84.3289 59.0037C92.8938 54.3336 103.989 51.4225 110.056 51.2085C110.729 51.1786 111.422 51.153 112.053 51.1303C113.861 51.065 115.116 51.0191 115.782 50.8515H115.798C117.909 50.3457 121.326 48.4524 125.682 46.0381L128.365 44.5536L128.367 44.5571C133.168 41.8434 137.87 39.2629 142.574 37.1759L142.576 37.1802C147.366 35.0546 152.196 33.4129 157.203 32.6069L157.214 32.6018C166.503 31.1824 176.67 30.2953 186.817 30.5365C195.375 30.7395 203.909 31.7494 211.874 33.9238ZM220.433 39.8309C217.482 38.546 214.379 37.3667 211.175 36.4878C203.434 34.3745 195.114 33.3924 186.755 33.1939C176.811 32.9577 166.792 33.8353 157.61 35.2384L157.609 35.2352C152.85 36.0025 148.235 37.5735 143.647 39.6094V39.6145C138.972 41.6887 134.359 44.2204 129.657 46.8777L129.647 46.8881C128.326 47.6125 127.625 48.0013 126.974 48.362C122.452 50.8686 118.903 52.8352 116.427 53.4326L116.428 53.4363C115.518 53.6652 114.137 53.7157 112.147 53.7877C111.572 53.8085 110.941 53.8315 110.171 53.8653H110.155C104.408 54.0638 93.8228 56.8546 85.6005 61.3383C79.8201 64.49 75.2786 68.4273 74.6823 72.753C74.5553 73.7273 74.793 77.8447 75.2495 81.6682C75.5502 84.1887 75.9368 86.5169 76.357 87.5798L77.0131 87.6537L91.4227 87.6529C91.1516 86.7954 90.9376 85.9144 90.7858 85.0161C90.6038 83.9374 90.5089 82.8376 90.5089 81.7272C90.5089 79.0816 91.0348 76.5507 91.9872 74.2359C92.9739 71.8376 94.4197 69.6799 96.2134 67.8758C98.0106 66.0684 100.157 64.6122 102.54 63.6192C104.839 62.6616 107.356 62.1326 109.992 62.1326C112.62 62.1326 115.134 62.6621 117.431 63.6216C119.403 64.4449 121.214 65.5869 122.801 66.9831L122.842 66.9436L123.769 67.8758C125.563 69.6802 127.01 71.8381 127.998 74.2367C128.95 76.5509 129.476 79.0816 129.476 81.7272C129.476 82.8318 129.382 83.9259 129.201 85.0006C129.051 85.8933 128.839 86.769 128.57 87.6225C145.746 87.3923 163.027 87.4731 180.281 87.5542C188.452 87.5926 196.619 87.6308 204.76 87.6359C204.489 86.7759 204.276 85.8966 204.126 85.0044C203.946 83.9286 203.852 82.8326 203.852 81.7264C203.852 79.0888 204.379 76.5629 205.332 74.2503C206.14 72.2917 207.256 70.4918 208.617 68.9118L208.569 68.8691L209.556 67.8758C211.354 66.0684 213.499 64.612 215.883 63.6192C218.182 62.6614 220.7 62.1326 223.336 62.1326C225.963 62.1326 228.475 62.6613 230.771 63.6194C233.146 64.6101 235.288 66.0626 237.086 67.8654L237.114 67.8931C238.908 69.7029 240.354 71.8613 241.341 74.2559C242.294 76.5669 242.819 79.0909 242.819 81.7264C242.819 82.2403 242.798 82.7608 242.757 83.2851C242.731 83.6167 242.694 83.9611 242.646 84.3171C244.772 84.1375 247.778 83.6909 250.522 83.1717C253.263 82.6527 255.701 82.0751 256.652 81.6413C257.986 80.9954 258.735 80.5119 259.145 80.1144C259.384 79.883 259.453 79.7115 259.477 79.5498C259.484 79.5175 259.495 79.4799 259.495 79.4468C259.634 78.7401 259.888 76.9391 260.074 75.0427C260.203 73.7164 260.3 72.3234 260.3 71.2004C260.3 71.1132 260.183 70.9595 260.007 70.7759V70.7709C259.714 70.464 259.28 70.146 258.832 69.8429L258.807 69.8317C258.771 69.8058 258.652 69.7303 258.622 69.7004C257.984 69.2469 257.346 68.7517 256.827 68.141C256.191 67.3926 255.766 66.5177 255.766 65.4391L255.809 63.843C255.842 62.6248 255.886 60.9874 255.886 59.9709L255.891 59.9655L255.894 59.7847C256.02 58.3084 256.21 55.6938 256.291 53.4761C256.338 52.1653 256.351 50.967 256.295 50.1861C255.821 50.1037 255.201 50.0311 254.514 49.9687C253.423 49.8699 252.142 49.7928 250.97 49.7392L249.003 49.6104C246.143 49.43 243.098 49.2376 240.372 48.632L240.323 48.6245C238.682 48.299 236.879 47.6427 234.938 46.7894C233.016 45.9453 230.978 44.9202 228.822 43.8354C226.209 42.5216 223.391 41.1188 220.433 39.8309Z" fill="#1A1A1A" stroke="#B01525" stroke-width="0.5"/>
<path fill-rule="evenodd" clip-rule="evenodd" d="M168.349 65.0493C168.448 65.096 168.521 65.1686 168.604 65.3805C168.646 65.4826 168.649 65.5197 168.655 65.6014L168.664 65.6998C168.691 65.9189 168.699 66.8474 168.696 67.9813C168.69 70.1797 168.648 73.2264 168.647 73.2384L168.603 73.7186L168.134 73.8272C168.02 73.8536 166.498 73.8985 165.15 73.9105C164.213 73.9185 163.338 73.9145 163.043 73.8838C162.135 73.7877 162.101 73.5874 162.229 73.1434L162.237 64.905L168.232 64.9114L168.349 65.0493ZM195.814 62.3989L195.79 64.4213L195.286 64.5416C195.166 64.5702 193.649 64.6158 192.305 64.6281C191.365 64.6363 190.485 64.6321 190.189 64.6011C189.269 64.5051 189.238 64.2962 189.375 63.8535L189.376 62.3989H186.853C186.85 62.7986 186.849 63.1956 186.853 63.5849C186.859 64.1697 186.876 64.7519 186.91 65.3223C186.931 65.675 187.041 65.9624 187.2 66.1929C187.401 66.4834 187.686 66.6977 187.98 66.846C188.484 67.1 189.425 67.0733 190.242 67.0504C190.518 67.0426 190.784 67.0352 190.909 67.0352C191.097 67.0352 191.545 67.0459 192.059 67.0579C193.856 67.0997 196.642 67.1651 197.284 66.8031C197.56 66.647 197.799 66.4466 197.969 66.1819C198.14 65.9149 198.248 65.5699 198.265 65.1235C198.282 64.6561 198.291 64.1225 198.294 63.5571L198.295 62.3989H195.814ZM192.039 74.2386L195.841 74.2394L195.849 76.3525H198.323L198.324 71.7512L192.039 71.7491V74.2386ZM181.832 65.0496C181.93 65.0963 182.003 65.1691 182.086 65.3805C182.13 65.4888 182.131 65.5208 182.137 65.6011L182.146 65.7004C182.174 65.9194 182.181 66.8476 182.179 67.9813C182.173 70.1811 182.131 73.2285 182.13 73.2402L182.084 73.717L181.619 73.8267C181.505 73.8536 179.988 73.8982 178.639 73.9102C177.7 73.9185 176.821 73.9145 176.525 73.8835C175.618 73.7891 175.585 73.5839 175.711 73.1445L175.719 64.905L181.715 64.9114L181.832 65.0496ZM173.246 74.6044C173.267 74.9571 173.377 75.245 173.536 75.4755C173.737 75.7658 174.023 75.9801 174.316 76.1281C174.82 76.3821 175.762 76.3555 176.579 76.3325C176.855 76.3248 177.12 76.3173 177.245 76.3173C177.433 76.3173 177.881 76.328 178.396 76.34C180.193 76.3819 182.978 76.447 183.62 76.0855C183.896 75.9294 184.135 75.7287 184.305 75.4641C184.476 75.1973 184.585 74.8526 184.601 74.4062C184.648 73.1397 184.631 71.311 184.616 69.6472L184.6 67.5144C184.6 67.1779 184.616 66.7561 184.632 66.3388C184.693 64.6998 184.751 63.1542 183.508 62.5862C183.012 62.3597 182.045 62.3845 181.222 62.4058L180.557 62.4203H177.029C176.903 62.4203 176.648 62.4131 176.384 62.4056C175.585 62.3834 174.706 62.3589 174.209 62.6409C173.942 62.7925 173.693 63.0233 173.514 63.3255C173.357 63.5923 173.254 63.9165 173.241 64.2924C173.136 67.4215 173.066 71.6237 173.246 74.6044ZM150.407 64.905L154.209 64.9058L154.244 76.3194L156.691 76.3173L156.692 62.4176L150.407 62.4155V64.905ZM136.643 64.9058L145.488 64.9088L142.702 68.819C142.406 69.2422 141.668 70.2518 140.803 71.4345C139.578 73.1117 138.092 75.1442 137.264 76.3179L140.08 76.3133C140.262 76.0281 140.506 75.7031 140.712 75.4291C141.846 73.8934 142.956 72.3361 144.076 70.7899C144.338 70.4223 144.662 69.9786 144.986 69.5343C145.369 69.0093 145.753 68.4834 146.152 67.9111C146.235 67.7913 146.383 67.5952 146.563 67.3553C147.11 66.6278 148.001 65.4429 148.001 65.3538V62.4203H136.643V64.9058ZM159.764 74.6052C159.785 74.9577 159.895 75.245 160.053 75.4753C160.254 75.7656 160.54 75.9798 160.834 76.1281C161.338 76.3824 162.28 76.3555 163.096 76.3325C163.372 76.3248 163.637 76.3173 163.762 76.3173C163.951 76.3173 164.398 76.328 164.912 76.34C166.71 76.3819 169.496 76.4472 170.138 76.0852C170.414 75.9291 170.653 75.7287 170.823 75.4641C170.994 75.1975 171.102 74.8528 171.118 74.4062C171.177 72.804 171.735 63.3674 170.025 62.5862C169.529 62.3597 168.563 62.3845 167.739 62.4058L167.075 62.4203H163.546C163.421 62.4203 163.166 62.4131 162.902 62.4056C162.102 62.3834 161.223 62.3589 160.727 62.6401C160.459 62.7922 160.21 63.0235 160.032 63.3261C159.874 63.5929 159.771 63.9168 159.759 64.2924C159.653 67.422 159.584 71.6231 159.764 74.6052Z" fill="#B01525" stroke="#B01525" stroke-width="0.5"/>
</svg>
