<svg width="36" height="36" viewBox="0 0 36 36" fill="none" xmlns="http://www.w3.org/2000/svg">
  <path d="M18 13.5C19.1935 13.5 20.3381 13.9741 21.182 14.818C22.0259 15.6619 22.5 16.8065 22.5 18C22.5 19.1935 22.0259 20.3381 21.182 21.182C20.3381 22.0259 19.1935 22.5 18 22.5C16.8065 22.5 15.6619 22.0259 14.818 21.182C13.9741 20.3381 13.5 19.1935 13.5 18C13.5 16.8065 13.9741 15.6619 14.818 14.818C15.6619 13.9741 16.8065 13.5 18 13.5ZM18 6.75C25.5 6.75 31.905 11.415 34.5 18C31.905 24.585 25.5 29.25 18 29.25C10.5 29.25 4.095 24.585 1.5 18C4.095 11.415 10.5 6.75 18 6.75ZM4.77 18C7.245 23.04 12.36 26.25 18 26.25C23.64 26.25 28.755 23.04 31.23 18C28.755 12.96 23.64 9.75 18 9.75C12.36 9.75 7.245 12.96 4.77 18Z" fill="white" />
</svg>
