<svg width="342" height="121" viewBox="0 0 342 121" fill="none" xmlns="http://www.w3.org/2000/svg">
<rect y="0.49707" width="342" height="120" fill="white"/>
<path d="M209.596 82.2131C209.596 85.4898 210.945 88.454 213.128 90.598C215.316 92.7471 218.345 94.0763 221.697 94.0763C225.049 94.0763 228.077 92.7474 230.265 90.598C232.448 88.4542 233.797 85.4898 233.797 82.2131C233.797 78.9362 232.448 75.972 230.265 73.828C228.077 71.6789 225.048 70.3497 221.697 70.3497C218.345 70.3497 215.316 71.6789 213.128 73.828C210.945 75.972 209.596 78.9365 209.596 82.2131ZM211.262 92.495C208.584 89.8637 206.928 86.2288 206.928 82.2131C206.928 78.1972 208.584 74.5622 211.262 71.931C213.935 69.3054 217.624 67.6816 221.697 67.6816C225.769 67.6816 229.458 69.3054 232.131 71.931C234.809 74.5622 236.465 78.1972 236.465 82.2131C236.465 86.2291 234.809 89.864 232.131 92.495C229.458 95.1209 225.769 96.7444 221.697 96.7444C217.624 96.7444 213.935 95.1206 211.262 92.495Z" fill="#1A1A1A" stroke="#1A1A1A" stroke-width="0.5"/>
<path d="M82.5662 86.7198C82.0139 86.2222 81.4763 85.282 81.0062 84.0344C79.9384 81.2018 79.0108 76.351 79.0001 71.5064C78.9894 66.5419 79.9464 61.5247 82.6903 58.4794C83.6163 57.4511 84.7401 56.6467 86.0883 56.1384H86.0936C91.4193 54.1537 103.796 51.6342 113.213 49.718L117.474 48.8541C120.63 48.2199 123.052 47.733 124.337 47.3963C125.762 47.0279 128.118 45.0546 130.895 42.7286L131.803 41.9716C134.862 39.3466 138.303 36.8994 142.044 34.9934C145.311 33.3288 148.819 32.0711 152.52 31.4572H152.53C155.661 30.9702 167.297 30.5786 178.342 30.5084C187.729 30.4486 196.729 30.6196 199.806 31.1586C201.455 31.3539 202.833 32.0801 203.896 33.2506C204.927 34.3872 205.639 35.9336 205.986 37.802L206.004 37.8951C206.343 39.9765 206.809 45.9916 207.07 49.3707L207.105 49.8173L264.18 49.7245C264.788 49.7234 265.342 49.9656 265.746 50.3573C266.154 50.7535 266.41 51.3079 266.417 51.9245C266.436 53.973 266.524 56.0901 266.612 58.2062C266.714 60.6624 266.816 63.1188 266.816 65.4208C266.816 65.9011 267.168 66.2666 267.584 66.6991C269.104 68.2794 271.126 70.3813 269.168 78.6314L269.163 78.63C268.177 82.9784 252.121 83.6702 245.49 83.9555C244.729 83.9883 244.104 84.0155 243.601 84.0441C242.435 84.3389 242.277 84.5504 242.015 84.901C241.894 85.0638 241.759 85.2449 241.521 85.5163C241.264 85.8098 240.949 86.0229 240.601 86.1489H240.596C240.243 86.2759 239.869 86.3143 239.496 86.2569L239.291 86.2196L239.088 86.1643L237.962 85.838L238.14 84.6844C238.205 84.2631 238.254 83.8506 238.285 83.4499C238.315 83.055 238.331 82.6425 238.331 82.2138C238.331 80.0062 237.886 77.907 237.08 75.998C236.24 74.0069 235.005 72.2089 233.47 70.6977L233.433 70.6606C231.902 69.1657 230.077 67.9595 228.05 67.1343C226.093 66.337 223.947 65.8971 221.697 65.8971C219.446 65.8971 217.297 66.3381 215.338 67.1369C213.302 67.9669 211.469 69.1822 209.934 70.6894L209.468 71.1467C208.145 72.5533 207.07 74.187 206.315 75.9793C205.509 77.891 205.064 79.9963 205.064 82.2138C205.064 82.6988 205.085 83.1775 205.127 83.6478C205.168 84.1206 205.231 84.5915 205.315 85.0579L205.31 85.0587C205.37 85.3882 205.355 85.7134 205.27 86.0259L205.275 86.0272C205.19 86.3367 205.035 86.6256 204.814 86.885C204.598 87.136 204.339 87.3319 204.044 87.4661C203.752 87.5987 203.437 87.6667 203.108 87.6656L128.676 87.5317C128.329 87.5306 128.006 87.4589 127.715 87.3209C127.413 87.1785 127.152 86.9741 126.939 86.7134C126.72 86.4466 126.571 86.1465 126.494 85.8231L126.499 85.822C126.422 85.4995 126.42 85.167 126.494 84.8351C126.618 84.277 126.715 83.6956 126.781 83.0931C126.843 82.5281 126.875 81.9376 126.875 81.3234C126.875 79.1058 126.43 76.9999 125.624 75.0879C124.869 73.2972 123.796 71.6651 122.475 70.2601L122.005 69.7994C120.471 68.2924 118.638 67.0769 116.602 66.2466C114.643 65.448 112.495 65.007 110.243 65.007C107.984 65.007 105.831 65.4472 103.871 66.2444C102.008 67.0022 100.317 68.0806 98.8714 69.4082V69.413L98.4701 69.8068C96.9357 71.3135 95.701 73.1093 94.8611 75.0994C94.0551 77.0092 93.6103 79.1114 93.6103 81.3234C93.6103 81.9422 93.6428 82.5403 93.7066 83.114C93.7736 83.7164 93.872 84.3007 93.9998 84.8639V84.8693C94.0737 85.203 94.0721 85.5387 93.9948 85.8618C93.9177 86.1833 93.7701 86.4818 93.5527 86.7465C93.3374 87.013 93.073 87.2193 92.7704 87.3607C92.4718 87.5002 92.1477 87.5709 91.8078 87.5685C90.4764 87.5624 89.1595 87.5445 87.8633 87.5023C86.4962 87.4578 85.167 87.3903 83.8909 87.2886H83.8858C83.6425 87.2684 83.4098 87.2107 83.1846 87.115C82.956 87.017 82.7508 86.886 82.5662 86.7198ZM83.4971 83.0964C83.7786 83.8439 84.0406 84.3805 84.258 84.6438C85.5384 84.7433 86.7606 84.8066 87.9466 84.845C89.0728 84.8815 90.1843 84.9 91.2904 84.908C91.1925 84.409 91.1151 83.9077 91.0594 83.4058C90.982 82.7081 90.9423 82.0123 90.9423 81.3234C90.9423 78.7629 91.4647 76.3115 92.4118 74.0674C93.3171 71.9223 94.61 69.9765 96.2034 68.3159V68.2866L96.6046 67.8922C98.3858 66.1428 100.512 64.7335 102.87 63.7744C105.144 62.8496 107.635 62.339 110.243 62.339C112.844 62.339 115.331 62.8502 117.602 63.7765C119.543 64.5681 121.328 65.6658 122.895 67.0078L122.937 66.9661L123.88 67.893C125.658 69.6395 127.093 71.7302 128.073 74.056C129.02 76.3024 129.543 78.7576 129.543 81.3234C129.543 81.9992 129.503 82.6841 129.428 83.3744C129.373 83.8741 129.297 84.3751 129.2 84.8754L202.603 85.0075C202.548 84.6358 202.503 84.2586 202.469 83.8773C202.421 83.3274 202.396 82.7716 202.396 82.2138C202.396 79.6479 202.919 77.1933 203.866 74.9473C204.846 72.6213 206.281 70.5304 208.059 68.7834L208.987 67.8722L209.027 67.9117C210.599 66.563 212.39 65.4611 214.338 64.6668C216.61 63.7402 219.096 63.229 221.697 63.229C224.297 63.229 226.781 63.7394 229.05 64.6642C231.405 65.6233 233.532 67.0326 235.319 68.7834L235.362 68.8266C237.129 70.5736 238.554 72.6552 239.53 74.966C240.473 77.2005 240.995 79.6388 240.999 82.1841C241.426 81.9245 242.026 81.6916 242.984 81.4518L243.187 81.4139L243.192 81.4088C243.244 81.4011 243.312 81.3947 243.398 81.3896H243.403C243.824 81.3651 244.522 81.3349 245.375 81.2981C251.421 81.0379 266.089 80.4064 266.568 78.0583L266.573 78.0167C268.197 71.1747 266.753 69.6729 265.666 68.5438C264.843 67.6881 264.148 66.9659 264.148 65.4208C264.148 62.9654 264.051 60.6378 263.955 58.3102C263.873 56.3487 263.791 54.3861 263.764 52.3826L206.714 52.4752C206.132 52.4763 205.598 52.2578 205.199 51.8954C204.794 51.5273 204.524 51.0104 204.479 50.4237L204.413 49.5686C204.152 46.1952 203.685 40.1656 203.367 38.2753L203.354 38.203C203.097 36.8706 202.611 35.7975 201.926 35.043C201.294 34.3464 200.471 33.915 199.484 33.8029C199.444 33.7949 199.388 33.785 199.348 33.785C196.403 33.2693 187.585 33.1068 178.352 33.1658C167.43 33.2351 155.98 33.6135 152.947 34.082C149.551 34.6471 146.302 35.8165 143.253 37.3695C139.691 39.1843 136.415 41.5173 133.502 44.0199L132.604 44.7712C129.582 47.3021 127.018 49.4496 125.004 49.9704C123.682 50.3165 121.213 50.813 117.996 51.4597L116.577 51.7449L113.744 52.3237C104.414 54.2225 92.1522 56.7182 87.0258 58.6277C86.1006 58.9783 85.3207 59.5396 84.6705 60.2616C82.4293 62.749 81.6481 67.1148 81.6575 71.5064C81.6673 76.0172 82.5182 80.499 83.4971 83.0964Z" fill="#1A1A1A"/>
<path d="M243.588 84.0451L243.554 84.0467M82.5662 86.7198C82.0139 86.2222 81.4763 85.282 81.0062 84.0344C79.9384 81.2018 79.0108 76.351 79.0001 71.5064C78.9894 66.5419 79.9464 61.5247 82.6903 58.4794C83.6163 57.4511 84.7401 56.6467 86.0883 56.1384H86.0936C91.4193 54.1537 103.796 51.6342 113.213 49.718L117.474 48.8541C120.63 48.2199 123.052 47.733 124.337 47.3963C125.762 47.0279 128.118 45.0546 130.895 42.7286L131.803 41.9716C134.862 39.3466 138.303 36.8994 142.044 34.9934C145.311 33.3288 148.819 32.0711 152.52 31.4572H152.53C155.661 30.9702 167.297 30.5786 178.342 30.5084C187.729 30.4486 196.729 30.6196 199.806 31.1586C201.455 31.3539 202.833 32.0801 203.896 33.2506C204.927 34.3872 205.639 35.9336 205.986 37.802L206.004 37.8951C206.343 39.9765 206.809 45.9916 207.07 49.3707L207.105 49.8173L264.18 49.7245C264.788 49.7234 265.342 49.9656 265.746 50.3573C266.154 50.7535 266.41 51.3079 266.417 51.9245C266.436 53.973 266.524 56.0901 266.612 58.2062C266.714 60.6624 266.816 63.1188 266.816 65.4208C266.816 65.9011 267.168 66.2666 267.584 66.6991C269.104 68.2794 271.126 70.3813 269.168 78.6314L269.163 78.63C268.177 82.9784 252.121 83.6703 245.49 83.9555C244.729 83.9883 244.104 84.0155 243.601 84.0441C242.435 84.3389 242.277 84.5504 242.015 84.901C241.894 85.0638 241.759 85.2449 241.521 85.5163C241.264 85.8098 240.949 86.0229 240.601 86.1489H240.596C240.243 86.2759 239.869 86.3143 239.496 86.2569L239.291 86.2196L239.088 86.1643L237.962 85.838L238.14 84.6844C238.205 84.2631 238.254 83.8506 238.285 83.4499C238.315 83.055 238.331 82.6425 238.331 82.2138C238.331 80.0062 237.886 77.907 237.08 75.998C236.24 74.0069 235.005 72.2089 233.47 70.6977L233.433 70.6606C231.902 69.1657 230.077 67.9595 228.05 67.1343C226.093 66.337 223.947 65.8971 221.697 65.8971C219.446 65.8971 217.297 66.3381 215.338 67.1369C213.302 67.9669 211.469 69.1822 209.934 70.6894L209.468 71.1467C208.145 72.5533 207.07 74.1869 206.315 75.9793C205.509 77.891 205.064 79.9963 205.064 82.2138C205.064 82.6988 205.085 83.1775 205.127 83.6478C205.168 84.1206 205.231 84.5915 205.315 85.0579L205.31 85.0587C205.37 85.3882 205.355 85.7134 205.27 86.0259L205.275 86.0272C205.19 86.3367 205.035 86.6256 204.814 86.885C204.598 87.136 204.339 87.3319 204.044 87.4661C203.752 87.5987 203.437 87.6667 203.108 87.6656L128.676 87.5317C128.329 87.5306 128.006 87.4589 127.715 87.3209C127.413 87.1785 127.152 86.9741 126.939 86.7134C126.72 86.4466 126.571 86.1465 126.494 85.8231L126.499 85.822C126.422 85.4995 126.42 85.167 126.494 84.8351C126.618 84.277 126.715 83.6956 126.781 83.0931C126.843 82.5281 126.875 81.9376 126.875 81.3234C126.875 79.1058 126.43 76.9999 125.624 75.0879C124.869 73.2972 123.796 71.6651 122.475 70.2601L122.005 69.7994C120.471 68.2924 118.638 67.0769 116.602 66.2466C114.643 65.448 112.495 65.007 110.243 65.007C107.984 65.007 105.831 65.4472 103.871 66.2444C102.008 67.0022 100.317 68.0806 98.8714 69.4082V69.413L98.4701 69.8068C96.9357 71.3135 95.701 73.1093 94.8611 75.0994C94.0551 77.0092 93.6103 79.1114 93.6103 81.3234C93.6103 81.9421 93.6428 82.5403 93.7066 83.114C93.7736 83.7164 93.872 84.3007 93.9998 84.8639V84.8693C94.0737 85.203 94.0721 85.5387 93.9948 85.8618C93.9177 86.1833 93.7701 86.4818 93.5527 86.7465C93.3374 87.013 93.073 87.2193 92.7704 87.3607C92.4718 87.5002 92.1477 87.5709 91.8078 87.5685C90.4764 87.5624 89.1595 87.5445 87.8633 87.5023C86.4962 87.4578 85.167 87.3903 83.8909 87.2886H83.8858C83.6425 87.2684 83.4098 87.2107 83.1846 87.115C82.956 87.017 82.7508 86.886 82.5662 86.7198ZM83.4971 83.0964C83.7786 83.8439 84.0406 84.3805 84.258 84.6438C85.5384 84.7433 86.7606 84.8066 87.9466 84.845C89.0728 84.8815 90.1843 84.9 91.2904 84.908C91.1925 84.409 91.1151 83.9077 91.0594 83.4058C90.982 82.7081 90.9423 82.0123 90.9423 81.3234C90.9423 78.7629 91.4647 76.3115 92.4118 74.0674C93.3171 71.9223 94.61 69.9765 96.2034 68.3159V68.2866L96.6046 67.8922C98.3858 66.1428 100.512 64.7335 102.87 63.7744C105.144 62.8496 107.635 62.339 110.243 62.339C112.844 62.339 115.331 62.8502 117.602 63.7765C119.543 64.5681 121.328 65.6658 122.895 67.0078L122.937 66.9661L123.88 67.893C125.658 69.6395 127.093 71.7302 128.073 74.056C129.02 76.3024 129.543 78.7576 129.543 81.3234C129.543 81.9992 129.503 82.6841 129.428 83.3744C129.373 83.8741 129.297 84.3751 129.2 84.8754L202.603 85.0075C202.548 84.6358 202.503 84.2586 202.469 83.8773C202.421 83.3274 202.396 82.7716 202.396 82.2138C202.396 79.6479 202.919 77.1933 203.866 74.9474C204.846 72.6213 206.281 70.5304 208.059 68.7834L208.987 67.8722L209.027 67.9117C210.599 66.563 212.39 65.4611 214.338 64.6668C216.61 63.7402 219.096 63.229 221.697 63.229C224.297 63.229 226.781 63.7394 229.05 64.6642C231.405 65.6233 233.532 67.0326 235.319 68.7834L235.362 68.8266C237.129 70.5736 238.554 72.6552 239.53 74.966C240.473 77.2005 240.995 79.6388 240.999 82.1841C241.426 81.9245 242.026 81.6916 242.984 81.4518L243.187 81.4139L243.192 81.4088C243.244 81.4011 243.312 81.3947 243.398 81.3896H243.403C243.824 81.3651 244.522 81.3349 245.375 81.2981C251.421 81.0379 266.089 80.4064 266.568 78.0583L266.573 78.0167C268.197 71.1747 266.753 69.6729 265.666 68.5438C264.843 67.6881 264.148 66.9659 264.148 65.4208C264.148 62.9654 264.051 60.6378 263.955 58.3102C263.873 56.3487 263.791 54.3861 263.764 52.3826L206.714 52.4752C206.132 52.4763 205.598 52.2578 205.199 51.8954C204.794 51.5273 204.524 51.0104 204.479 50.4237L204.413 49.5686C204.152 46.1952 203.685 40.1656 203.367 38.2753L203.354 38.203C203.097 36.8706 202.611 35.7975 201.926 35.043C201.294 34.3464 200.471 33.915 199.484 33.8029C199.444 33.7949 199.388 33.785 199.348 33.785C196.403 33.2693 187.585 33.1068 178.352 33.1658C167.43 33.2351 155.98 33.6135 152.947 34.082C149.551 34.6471 146.302 35.8165 143.253 37.3695C139.691 39.1843 136.415 41.5173 133.502 44.0199L132.604 44.7712C129.582 47.3021 127.018 49.4496 125.004 49.9704C123.682 50.3165 121.213 50.813 117.996 51.4597L116.577 51.7449L113.744 52.3237C104.414 54.2225 92.1522 56.7182 87.0258 58.6277C86.1006 58.9783 85.3207 59.5396 84.6705 60.2616C82.4293 62.749 81.6481 67.1148 81.6575 71.5064C81.6673 76.0172 82.5182 80.499 83.4971 83.0964Z" stroke="#1A1A1A" stroke-width="0.5"/>
<path d="M83.4894 27.9078C84.6692 27.3402 85.8669 26.9584 87.0637 26.8136L87.0637 26.8136C88.3866 26.653 89.7075 26.7772 91.0041 27.2521L91.0075 27.255L91.0493 27.2708C96.3447 29.2654 107.307 35.4854 115.676 40.2344L83.4894 27.9078ZM83.4894 27.9078L85.2902 29.4776C85.9663 29.2216 86.6468 29.0438 87.325 28.9618C88.3255 28.8403 89.3225 28.9327 90.2912 29.2914L90.2926 29.2919L90.2925 29.2919C95.4297 31.228 106.318 37.4067 114.584 42.0979L114.611 42.113L114.611 42.1131L117.127 43.5386L117.128 43.539L118.384 44.2559L118.384 44.2559C119.162 44.7002 119.891 45.1159 120.564 45.4981C121.606 45.278 122.44 45.091 123.029 44.9366L123.03 44.9364C123.199 44.8928 123.387 44.8229 123.593 44.7277C122.471 44.1043 121.074 43.3074 119.464 42.388L119.456 42.3836L119.456 42.3833L115.676 40.2345L83.4894 27.9078Z" fill="#B01525" stroke="#B01525" stroke-width="0.5"/>
<path fill-rule="evenodd" clip-rule="evenodd" d="M105.682 89.2803H114.781V91.9769H105.682V89.2803Z" fill="#B01525" stroke="#B01525" stroke-width="0.5"/>
<path fill-rule="evenodd" clip-rule="evenodd" d="M105.682 84.2622H108.522C107.936 83.7729 107.563 83.037 107.563 82.2142C107.563 80.7406 108.758 79.5459 110.231 79.5459C111.705 79.5459 112.9 80.7406 112.9 82.2142C112.9 83.037 112.527 83.7729 111.941 84.2622H114.781V86.9588H105.682V84.2622Z" fill="#B01525" stroke="#B01525" stroke-width="0.5"/>
<path fill-rule="evenodd" clip-rule="evenodd" d="M95.4629 93.9619H125.001V96.6585H95.4629V93.9619Z" fill="#B01525" stroke="#B01525" stroke-width="0.5"/>
</svg>
