<svg width="29" height="29" viewBox="0 0 29 29" fill="none" xmlns="http://www.w3.org/2000/svg">
  <rect x="0.09375" width="28.3096" height="29"  />
  <path d="M19.1757 4.55078H9.72912C7.13156 4.55078 5.00586 6.72832 5.00586 9.38924V19.0666C5.00586 21.7268 7.13156 23.9051 9.72912 23.9051H19.1757C21.7732 23.9051 23.8989 21.7268 23.8989 19.0666V9.38924C23.8989 6.72832 21.7732 4.55078 19.1757 4.55078ZM22.3244 19.0666C22.3244 20.8448 20.9124 22.2922 19.1757 22.2922H9.72912C7.99309 22.2922 6.58036 20.8448 6.58036 19.0666V9.38924C6.58036 7.61063 7.99309 6.16368 9.72912 6.16368H19.1757C20.9124 6.16368 22.3244 7.61063 22.3244 9.38924V19.0666Z" fill="white" />
  <path d="M19.5714 10.1907C20.2236 10.1907 20.7523 9.64915 20.7523 8.9811C20.7523 8.31305 20.2236 7.77148 19.5714 7.77148C18.9193 7.77148 18.3906 8.31305 18.3906 8.9811C18.3906 9.64915 18.9193 10.1907 19.5714 10.1907Z" fill="white" />
  <path d="M14.4547 9.38477C11.8456 9.38477 9.73145 11.5507 9.73145 14.2232C9.73145 16.8948 11.8456 19.0622 14.4547 19.0622C17.0631 19.0622 19.178 16.8948 19.178 14.2232C19.178 11.5507 17.0631 9.38477 14.4547 9.38477ZM14.4547 17.4493C12.7158 17.4493 11.3059 16.005 11.3059 14.2232C11.3059 12.4415 12.7158 10.9977 14.4547 10.9977C16.1936 10.9977 17.6035 12.4415 17.6035 14.2232C17.6035 16.005 16.1936 17.4493 14.4547 17.4493Z" fill="white" />
</svg>
