<svg width="29" height="29" viewBox="0 0 29 29" fill="none" xmlns="http://www.w3.org/2000/svg">
  <path d="M24.1083 5.78511C23.7555 5.46185 23.254 5.35413 22.7995 5.50392L3.51681 11.8603C2.9913 12.0335 2.63493 12.5026 2.60893 13.0553C2.58297 13.608 2.89372 14.1085 3.40061 14.3303L8.16937 16.4168C8.19263 16.5247 9.5616 22.8741 9.60816 23.0899C9.66791 23.3671 9.80862 23.614 10.1067 23.69C10.4082 23.7668 10.6212 23.602 10.8462 23.4336C10.9714 23.3399 14.385 20.7838 14.385 20.7838L18.5221 24.1692C18.7631 24.3665 19.0576 24.4694 19.3579 24.4694C19.5009 24.4693 19.6452 24.446 19.7857 24.3984C20.2211 24.2508 20.5439 23.8954 20.6491 23.4478L24.5026 7.06426C24.6121 6.59846 24.4611 6.10837 24.1083 5.78511ZM11.1544 17.6124C11.1521 17.618 11.1497 17.6243 11.1476 17.6318L10.3498 20.4188L9.45962 16.29L15.5811 12.8889L11.3012 17.3639C11.2338 17.4344 11.1842 17.5197 11.1544 17.6124ZM11.4076 21.4041L11.7699 20.1382L12.1165 18.9274L13.3582 19.9436L11.4076 21.4041ZM23.2488 6.76932L19.3954 23.1529C19.3934 23.161 19.3909 23.1722 19.372 23.1786C19.3533 23.1849 19.3443 23.1777 19.3378 23.1724L14.8108 19.4679C14.8107 19.4678 14.8106 19.4677 14.8105 19.4676L12.713 17.7512L19.4516 10.7053C19.6716 10.4752 19.6905 10.1188 19.4959 9.86671C19.3012 9.6146 18.9516 9.5426 18.6733 9.69731L8.69544 15.2411L3.91691 13.1503C3.90235 13.144 3.89434 13.1404 3.89549 13.1158C3.89665 13.0912 3.90496 13.0885 3.92004 13.0835L23.2028 6.72713C23.2121 6.72409 23.2226 6.72058 23.2381 6.73471C23.2536 6.74893 23.2511 6.75972 23.2488 6.76932Z" fill="white" />
</svg>
