<svg width="40" height="40" viewBox="0 0 40 40" fill="none" xmlns="http://www.w3.org/2000/svg">
  <path d="M28.333 25.3663C28.333 26.9997 26.9997 28.333 25.3663 28.333C23.733 28.333 22.4163 26.9997 22.4163 25.3663C22.4163 23.733 23.733 22.4163 25.3663 22.4163C26.9997 22.4163 28.333 23.733 28.333 25.3663ZM14.7163 17.6663C16.3497 17.6663 17.6663 16.3497 17.6663 14.7163C17.6663 13.0663 16.3497 11.7497 14.7163 11.7497C13.0663 11.7497 11.7497 13.0663 11.7497 14.7163C11.7497 16.3497 13.0663 17.6663 14.7163 17.6663ZM11.6663 25.883L14.1663 28.383L28.383 14.1663L25.883 11.6663L11.6663 25.883ZM36.6663 19.9997C36.6663 29.1663 29.1663 36.6663 19.9997 36.6663C10.833 36.6663 3.33301 29.1663 3.33301 19.9997C3.33301 10.833 10.833 3.33301 19.9997 3.33301C29.1663 3.33301 36.6663 10.833 36.6663 19.9997ZM33.333 19.9997C33.333 12.6497 27.3497 6.66634 19.9997 6.66634C12.6497 6.66634 6.66634 12.6497 6.66634 19.9997C6.66634 27.3497 12.6497 33.333 19.9997 33.333C27.3497 33.333 33.333 27.3497 33.333 19.9997Z" fill="white" />
</svg>
