<svg width="217" height="29" viewBox="0 0 217 29" fill="none" xmlns="http://www.w3.org/2000/svg">
<path d="M38.0044 12.486V20.354H44.6376C45.6666 20.354 46.4755 20.3109 47.0737 20.2297C47.6719 20.1435 48.1648 19.9713 48.5524 19.708C48.9353 19.4494 49.2177 19.0618 49.3948 18.5451C49.5719 18.0329 49.6628 17.3341 49.6628 16.4536C49.6628 15.2859 49.5479 14.4195 49.3133 13.8644C49.0837 13.3094 48.6961 12.9408 48.1504 12.759C47.6 12.5772 46.7673 12.486 45.6378 12.486H38.0044ZM38.0044 3.12495V10.39H44.8387C45.9202 10.39 46.7579 10.2798 47.3608 10.0596C47.959 9.83965 48.3897 9.4518 48.6433 8.89671C48.9019 8.34162 49.031 7.54704 49.031 6.51811C49.031 5.20682 48.7966 4.31189 48.3322 3.83805C47.868 3.36422 46.9922 3.12495 45.7 3.12495H38.0044ZM46.5855 22.5077H35.6211V1H45.9824C47.8633 1 49.2464 1.40693 50.127 2.22531C51.0028 3.04369 51.443 4.40752 51.443 6.31721C51.443 7.23122 51.3858 7.98742 51.2661 8.57617C51.1465 9.16964 50.8879 9.68635 50.4956 10.1362C50.103 10.5862 49.5192 10.9498 48.7439 11.2228C49.6675 11.4811 50.371 11.8209 50.8497 12.2517C51.3283 12.6775 51.6538 13.2088 51.8212 13.8501C51.9887 14.4866 52.0749 15.3147 52.0749 16.3339C52.0749 18.368 51.6538 19.9089 50.8161 20.9475C49.9786 21.986 48.5668 22.5077 46.5855 22.5077ZM153.797 22.5077L161.641 1H165.111L173.123 22.5077H170.572L168.959 18.0856H158.109L156.382 22.5077H153.797ZM168.188 15.9894L163.422 2.7804L158.684 15.9894H168.188Z" fill="#8C1C0B"/>
<path d="M65.2147 18.1183C65.2147 17.2137 65.076 16.5581 64.8032 16.1464C64.5256 15.7397 64.0518 15.4717 63.3818 15.3471C62.7117 15.2228 61.6494 15.1606 60.1897 15.1606C58.955 15.1606 58.0648 15.3377 57.5238 15.687C56.9831 16.0364 56.7151 16.7255 56.7151 17.745C56.7151 18.6016 56.8347 19.2669 57.074 19.7407C57.3086 20.2145 57.6818 20.5447 58.1844 20.7362C58.6917 20.9227 59.3664 21.0185 60.2182 21.0185C61.4101 21.0185 62.3385 20.9658 63.0038 20.8653C63.6688 20.7649 64.2049 20.5063 64.6069 20.09C65.0138 19.6736 65.2147 19.0132 65.2147 18.1183ZM65.186 15.1606V13.0069C65.186 11.7531 65.076 10.8389 64.8558 10.2741C64.6356 9.70961 64.2336 9.33141 63.645 9.1496C63.0563 8.96286 62.1039 8.87194 60.7926 8.87194C59.8546 8.87194 59.1415 8.93413 58.6582 9.05377C58.1748 9.17361 57.8255 9.39852 57.6053 9.72399C57.3851 10.0492 57.2607 10.528 57.232 11.1693L57.2607 11.6047H54.93C54.93 10.2982 55.1789 9.32669 55.6718 8.69485C56.1647 8.05849 56.8204 7.65156 57.6387 7.47447C58.4571 7.29737 59.5435 7.20645 60.9075 7.20645C62.4677 7.20645 63.7072 7.33102 64.6212 7.57974C65.5402 7.82394 66.2436 8.33594 66.7415 9.10178C67.2344 9.87214 67.4833 11.0113 67.4833 12.5187V22.5117H65.3249L65.4111 20.6165C65.0616 21.2529 64.6883 21.7267 64.296 22.0331C63.9034 22.3393 63.4105 22.5404 62.817 22.6457C62.2235 22.7462 61.4052 22.7987 60.3572 22.7987C59.0028 22.7987 57.902 22.6791 57.0596 22.4351C56.2125 22.1909 55.5618 21.7173 55.1071 21.0185C54.6476 20.3149 54.418 19.3003 54.418 17.9747C54.418 16.7399 54.6476 15.7875 55.1023 15.1175C55.5569 14.4475 56.1982 13.9928 57.0215 13.7584C57.8493 13.5239 58.8926 13.4089 60.161 13.4089C61.3239 13.4089 62.2332 13.4664 62.8841 13.586C63.5348 13.7009 64.023 13.8781 64.3485 14.1173C64.674 14.3566 64.9516 14.7059 65.186 15.1606ZM73.223 14.9023C73.2756 16.515 73.3858 17.7163 73.5579 18.5059C73.7254 19.2956 74.0989 19.8985 74.6683 20.3102C75.2425 20.7265 76.128 20.9324 77.3293 20.9324C78.65 20.9324 79.612 20.7218 80.2152 20.3005C80.8228 19.8794 81.201 19.2765 81.3494 18.4916C81.5024 17.7019 81.579 16.5054 81.579 14.9023C81.579 13.3611 81.5072 12.2076 81.3684 11.4467C81.2297 10.6811 80.8659 10.0876 80.2773 9.67124C79.6886 9.25487 78.7411 9.04433 77.444 9.04433C76.1233 9.04433 75.1709 9.23578 74.5725 9.61849C73.979 10.0014 73.601 10.5758 73.4527 11.3367C73.2996 12.0977 73.223 13.2893 73.223 14.9023ZM73.223 20.784V29.0012H70.9257V7.46503H73.1656L73.0841 9.38888C73.6298 8.5705 74.295 7.9961 75.0751 7.67084C75.86 7.34045 76.7933 7.17773 77.8747 7.17773C79.6024 7.17773 80.8995 7.47445 81.7752 8.07284C82.6559 8.67103 83.2254 9.51323 83.4981 10.5902C83.771 11.6669 83.905 13.1122 83.905 14.9308C83.905 16.2566 83.8427 17.3668 83.7136 18.2714C83.589 19.171 83.3354 19.9609 82.9477 20.6404C82.565 21.3247 81.9763 21.8513 81.1866 22.2293C80.4017 22.6073 79.3728 22.7987 78.1093 22.7987C76.9704 22.7987 75.994 22.66 75.1853 22.3873C74.3763 22.1097 73.7254 21.5736 73.223 20.784ZM86.8833 22.5117V7.46503H89.1519V19.7838L96.8809 7.46503H99.6615V22.5117H97.3931V10.2791L89.7262 22.5117H89.1519H86.8833ZM113.374 18.1183C113.374 17.2137 113.236 16.5581 112.963 16.1464C112.685 15.7397 112.212 15.4717 111.542 15.3471C110.872 15.2228 109.809 15.1606 108.349 15.1606C107.115 15.1606 106.225 15.3377 105.684 15.687C105.143 16.0364 104.875 16.7255 104.875 17.745C104.875 18.6016 104.995 19.2669 105.234 19.7407C105.468 20.2145 105.842 20.5447 106.344 20.7362C106.851 20.9227 107.526 21.0185 108.378 21.0185C109.57 21.0185 110.498 20.9658 111.164 20.8653C111.829 20.7649 112.365 20.5063 112.767 20.09C113.174 19.6736 113.374 19.0132 113.374 18.1183ZM113.346 15.1606V13.0069C113.346 11.7531 113.236 10.8389 113.016 10.2741C112.795 9.70961 112.393 9.33141 111.805 9.1496C111.216 8.96286 110.264 8.87194 108.952 8.87194C108.014 8.87194 107.301 8.93413 106.818 9.05377C106.335 9.17361 105.985 9.39852 105.765 9.72399C105.545 10.0492 105.421 10.528 105.392 11.1693L105.421 11.6047H103.09C103.09 10.2982 103.339 9.32669 103.832 8.69485C104.324 8.05849 104.98 7.65156 105.799 7.47447C106.617 7.29737 107.703 7.20645 109.067 7.20645C110.628 7.20645 111.867 7.33102 112.781 7.57974C113.7 7.82394 114.403 8.33594 114.901 9.10178C115.394 9.87214 115.643 11.0113 115.643 12.5187V22.5117H113.485L113.571 20.6165C113.221 21.2529 112.848 21.7267 112.456 22.0331C112.063 22.3393 111.57 22.5404 110.977 22.6457C110.383 22.7462 109.565 22.7987 108.517 22.7987C107.163 22.7987 106.062 22.6791 105.219 22.4351C104.372 22.1909 103.722 21.7173 103.267 21.0185C102.807 20.3149 102.578 19.3003 102.578 17.9747C102.578 16.7399 102.807 15.7875 103.262 15.1175C103.717 14.4475 104.358 13.9928 105.181 13.7584C106.009 13.5239 107.052 13.4089 108.321 13.4089C109.484 13.4089 110.393 13.4664 111.044 13.586C111.695 13.7009 112.183 13.8781 112.508 14.1173C112.834 14.3566 113.111 14.7059 113.346 15.1606ZM119.028 7.46503H121.325V13.61H129.222V7.46503H131.519V22.5117H129.222V15.4477H121.325V22.5117H119.028V7.46503ZM138.465 22.5117H140.762V9.30268H145.96V7.46503H133.268V9.30268H138.465V22.5117ZM177.538 15.5339V20.7025H182.85C184.631 20.7025 185.521 19.8413 185.521 18.1134C185.521 17.1372 185.291 16.4623 184.827 16.089C184.368 15.7206 183.707 15.5339 182.85 15.5339H177.538ZM177.538 9.21649V13.7822H182.793C183.721 13.7822 184.363 13.61 184.722 13.2655C185.081 12.916 185.263 12.3226 185.263 11.4804C185.263 10.614 185.071 10.0158 184.688 9.69525C184.305 9.3745 183.674 9.21649 182.793 9.21649H177.538ZM183.252 22.4829H175.241V7.43629H182.855C184.358 7.43629 185.521 7.71373 186.339 8.27375C187.158 8.83376 187.565 9.84362 187.565 11.3127C187.565 12.0736 187.339 12.7486 186.885 13.3277C186.43 13.9068 185.736 14.2751 184.798 14.4428C186.813 14.9261 187.818 16.1514 187.818 18.1134C187.818 19.7645 187.421 20.9036 186.631 21.5353C185.842 22.1671 184.717 22.4829 183.252 22.4829ZM194.415 22.5117H196.712V9.30268H201.909V7.46503H189.217V9.30268H194.415V22.5117ZM216.489 14.9882C216.489 16.5628 216.374 17.855 216.149 18.8602C215.924 19.8698 215.551 20.6596 215.039 21.2338C214.531 21.8033 213.856 22.2102 213.024 22.4446C212.186 22.6791 211.124 22.7987 209.827 22.7987C208.544 22.7987 207.491 22.684 206.663 22.4495C205.831 22.2149 205.165 21.8082 204.658 21.2338C204.151 20.6596 203.782 19.8698 203.557 18.8649C203.332 17.8597 203.222 16.5772 203.222 15.017C203.222 12.9257 203.423 11.3224 203.83 10.2025C204.237 9.08248 204.912 8.30721 205.85 7.86703C206.788 7.42665 208.113 7.20645 209.827 7.20645C211.148 7.20645 212.215 7.32138 213.038 7.55593C213.861 7.78556 214.531 8.18757 215.039 8.75723C215.551 9.32669 215.924 10.1116 216.149 11.1118C216.374 12.112 216.489 13.4042 216.489 14.9882ZM214.163 14.9882C214.163 13.7104 214.096 12.6864 213.967 11.9302C213.837 11.1693 213.612 10.5852 213.297 10.1689C212.98 9.75743 212.555 9.47013 212.014 9.31232C211.473 9.15431 210.746 9.07304 209.827 9.07304C208.645 9.07304 207.754 9.22141 207.156 9.52286C206.563 9.82432 206.146 10.394 205.907 11.2315C205.668 12.0689 205.548 13.3277 205.548 15.017C205.548 16.7065 205.668 17.9699 205.912 18.8027C206.156 19.6354 206.572 20.1952 207.166 20.492C207.759 20.784 208.645 20.9324 209.827 20.9324C210.736 20.9324 211.459 20.8558 211.995 20.7025C212.531 20.5447 212.961 20.2671 213.277 19.8603C213.598 19.4534 213.823 18.8649 213.957 18.0943C214.096 17.3237 214.163 16.2901 214.163 14.9882Z" fill="black"/>
<path fill-rule="evenodd" clip-rule="evenodd" d="M17.9771 22.3815H12.2732H11.9861L1 1.14062H6.99132L15.125 16.8673L23.259 1.14062H29.2503L18.2641 22.3815H17.9771Z" fill="#8C1C0B" stroke="white" stroke-width="0.533291" stroke-miterlimit="22.9256"/>
<path fill-rule="evenodd" clip-rule="evenodd" d="M9.34324 17.8335H14.967V22.3795H6.99214L6.99112 22.3813H1L11.9859 1.14062H12.273H17.977H18.2641L29.2501 22.3813H23.259L15.125 6.65483L9.34324 17.8335Z" fill="#1A1A1A" stroke="white" stroke-width="0.533291" stroke-miterlimit="22.9256"/>
</svg>
