<?xml version="1.0" encoding="UTF-8" standalone="no"?>
<!-- Created with Inkscape (http://www.inkscape.org/) -->

<svg
   xmlns:dc="http://purl.org/dc/elements/1.1/"
   xmlns:cc="http://creativecommons.org/ns#"
   xmlns:rdf="http://www.w3.org/1999/02/22-rdf-syntax-ns#"
   xmlns:svg="http://www.w3.org/2000/svg"
   xmlns="http://www.w3.org/2000/svg"
   xmlns:sodipodi="http://sodipodi.sourceforge.net/DTD/sodipodi-0.dtd"
   xmlns:inkscape="http://www.inkscape.org/namespaces/inkscape"
   width="399.37973"
   height="158.69"
   id="svg3045"
   version="1.1"
   inkscape:version="0.48.4 r9939"
   sodipodi:docname="yandex_logo2.svg">
  <defs
     id="defs3047">
    <clipPath
       clipPathUnits="userSpaceOnUse"
       id="clipPath16">
      <path
         inkscape:connector-curvature="0"
         d="m 0,841.89 595.276,0 L 595.276,0 0,0 0,841.89 z"
         id="path18" />
    </clipPath>
  </defs>
  <sodipodi:namedview
     id="base"
     pagecolor="#ffffff"
     bordercolor="#666666"
     borderopacity="1.0"
     inkscape:pageopacity="0.0"
     inkscape:pageshadow="2"
     inkscape:zoom="0.35"
     inkscape:cx="371.83273"
     inkscape:cy="-294.93748"
     inkscape:document-units="px"
     inkscape:current-layer="layer1"
     showgrid="false"
     inkscape:window-width="1280"
     inkscape:window-height="662"
     inkscape:window-x="-8"
     inkscape:window-y="-8"
     inkscape:window-maximized="1"
     fit-margin-top="0"
     fit-margin-left="0"
     fit-margin-right="0"
     fit-margin-bottom="0" />
  <metadata
     id="metadata3050">
    <rdf:RDF>
      <cc:Work
         rdf:about="">
        <dc:format>image/svg+xml</dc:format>
        <dc:type
           rdf:resource="http://purl.org/dc/dcmitype/StillImage" />
        <dc:title></dc:title>
      </cc:Work>
    </rdf:RDF>
  </metadata>
  <g
     inkscape:label="Layer 1"
     inkscape:groupmode="layer"
     id="layer1"
     transform="translate(-3.1672651,-4.4458)">
    <g
       transform="matrix(1.25,0,0,-1.25,-195.29556,666.6548)"
       id="g12">
      <g
         id="g14"
         clip-path="url(#clipPath16)">
        <g
           id="g20"
           transform="translate(200.876,468.6572)">
          <path
             inkscape:connector-curvature="0"
             d="m 0,0 -6.274,0 c -9.854,0 -19.41,7.189 -19.41,25.163 0,18.725 8.958,26.362 18.066,26.362 L 0,51.525 0,0 z m 9.854,61.11 -17.024,0 c -16.721,0 -30.907,-12.731 -30.907,-37.445 0,-14.828 6.871,-25.761 19.111,-31.153 l -22.841,-41.339 c -0.746,-1.349 0,-2.395 1.191,-2.395 l 10.601,0 c 0.896,0 1.494,0.299 1.792,1.046 l 20.754,40.592 7.469,0 0,-40.592 c 0,-0.448 0.448,-1.046 1.041,-1.046 l 9.261,0 c 0.896,0 1.195,0.449 1.195,1.195 l 0,109.638 c 0,1.051 -0.598,1.499 -1.643,1.499"
             style="fill:#ed1c24;fill-opacity:1;fill-rule:nonzero;stroke:none"
             id="path22" />
        </g>
        <g
           id="g24"
           transform="translate(266.8525,492.5288)">
          <path
             inkscape:connector-curvature="0"
             d="m 0,0 -9.257,0 c -0.747,0 -1.195,-0.598 -1.195,-1.045 l 0,-28.609 -17.173,0 0,28.609 c 0,0.746 -0.294,1.045 -1.041,1.045 l -9.262,0 c -0.741,0 -1.19,-0.448 -1.19,-1.045 l 0,-72.795 c 0,-0.747 0.299,-1.196 1.041,-1.196 l 9.411,0 c 0.597,0 1.041,0.449 1.041,1.196 l 0,34.747 17.173,0 0,-34.747 c 0,-0.747 0.448,-1.196 1.195,-1.196 l 9.257,0 c 0.747,0 1.045,0.598 1.045,1.196 l 0,72.795 C 1.045,-0.448 0.597,0 0,0"
             style="fill:#231f20;fill-opacity:1;fill-rule:nonzero;stroke:none"
             id="path26" />
        </g>
        <g
           id="g28"
           transform="translate(478.2207,422.2832)">
          <path
             inkscape:connector-curvature="0"
             d="M 0,0 -1.195,5.093 C -1.34,5.541 -1.49,5.69 -1.938,5.69 c -0.746,0 -4.779,-1.643 -10.601,-1.643 -11.348,0 -16.875,10.929 -16.875,28.305 0,15.28 4.631,30.405 12.394,30.405 2.092,0 4.631,-0.597 8.659,-4.346 0.449,-0.448 0.748,-0.598 1.195,-0.598 0.449,0 0.896,0.304 1.346,1.051 l 4.033,6.587 c 0.297,0.453 0.447,0.906 0.447,1.354 0,0.598 -0.598,1.046 -1.494,1.494 -6.125,3.146 -10.303,3.744 -13.887,3.744 -14.037,0 -24.937,-16.773 -24.937,-42.982 0,-22.619 10.453,-35.648 25.385,-35.648 6.275,0 12.992,2.992 15.679,4.943 C 0,-1.195 0.148,-0.598 0,0"
             style="fill:#231f20;fill-opacity:1;fill-rule:nonzero;stroke:none"
             id="path30" />
        </g>
        <g
           id="g32"
           transform="translate(413.3281,458.6826)">
          <path
             inkscape:connector-curvature="0"
             d="m 0,0 17.916,32.801 c 0.299,0.448 0.148,1.045 -0.449,1.045 l -8.809,0 c -2.539,0 -3.435,-0.896 -4.326,-2.843 L -9.111,2.993 c -0.743,-1.648 -1.491,-2.694 -2.237,-3.147 l 0,32.955 c 0,0.597 -0.298,1.045 -0.896,1.045 l -9.705,0 c -0.447,0 -0.897,-0.448 -0.897,-1.045 l 0,-72.945 c 0,-0.448 0.299,-1.045 0.897,-1.045 l 9.705,0 c 0.598,0 0.896,0.448 0.896,1.045 l 0,37.595 c 0.448,-0.299 0.746,-0.747 1.045,-1.349 l 17.02,-35.045 c 0.896,-1.798 2.24,-2.246 4.183,-2.246 l 9.555,0 c 0.598,0 0.746,0.597 0.447,1.045 L 0,0 z"
             style="fill:#231f20;fill-opacity:1;fill-rule:nonzero;stroke:none"
             id="path34" />
        </g>
        <g
           id="g36"
           transform="translate(311.6465,426.9282)">
          <path
             inkscape:connector-curvature="0"
             d="m 0,0 -21.65,0 c 7.618,13.029 10.601,27.707 11.646,45.68 0.299,3.894 0.448,7.942 0.448,10.486 L 0,56.166 0,0 z m 16.128,0 -1.793,0 c -2.24,0 -2.838,0.896 -2.838,2.693 l 0,61.862 c 0,0.747 -0.299,1.046 -0.896,1.046 l -29.861,0 c -0.748,0 -1.195,-0.449 -1.195,-1.046 l 0,-5.392 C -20.455,41.04 -21.501,17.675 -31.056,0 l -3.287,0 c -0.896,0 -1.195,-0.453 -1.195,-1.2 l 0,-21.867 c 0,-0.751 0.598,-1.046 1.046,-1.046 l 7.17,0 c 1.638,0 2.236,1.196 2.236,2.246 l 0,12.432 31.957,0 0,-13.632 c 0,-0.597 0.443,-1.046 1.041,-1.046 l 7.618,0 c 0.892,0 1.787,0.747 1.787,2.246 l 0,20.667 c 0,0.747 -0.447,1.2 -1.189,1.2"
             style="fill:#231f20;fill-opacity:1;fill-rule:nonzero;stroke:none"
             id="path38" />
        </g>
        <g
           id="g40"
           transform="translate(356.5898,461.8247)">
          <path
             inkscape:connector-curvature="0"
             d="m 0,0 c -3.437,0 -8.809,-0.598 -8.809,-0.598 0,0 0,2.246 0.299,4.645 1.339,12.731 4.477,19.169 9.704,19.169 4.781,0 7.763,-6.587 8.51,-18.123 C 9.854,2.698 9.854,0 9.854,0 L 0,0 z m 1.643,32.501 c -16.123,0 -23.293,-20.368 -23.293,-42.534 0,-22.618 10.152,-36.095 25.086,-36.095 7.314,0 13.737,2.842 17.018,4.943 0.598,0.299 0.747,0.747 0.598,1.345 l -1.195,5.093 c -0.149,0.597 -0.448,0.896 -1.195,0.896 -0.593,0 -4.925,-1.643 -11.049,-1.643 -11.497,0 -16.87,10.032 -16.87,23.211 l 0,3.547 c 0,0 5.82,-0.699 9.257,-0.699 l 21.799,0 0,6.293 c 0,23.211 -8.216,35.643 -20.156,35.643"
             style="fill:#231f20;fill-opacity:1;fill-rule:nonzero;stroke:none"
             id="path42" />
        </g>
      </g>
    </g>
  </g>
</svg>
