<svg width="139" height="40" viewBox="0 0 139 40" fill="none" xmlns="http://www.w3.org/2000/svg">
  <g clip-path="url(#clip0_11_6939)">
    <path d="M132.521 34.8299C135.248 34.8299 137.18 34.3393 138.619 33.2827V28.4903C137.142 29.5091 135.362 30.1506 132.862 30.1506C128.658 30.1506 126.916 26.9053 126.916 21.7733C126.916 16.377 129.037 13.6223 132.9 13.6223C135.173 13.6223 137.407 14.4148 138.581 15.1695V10.1884C137.332 9.50912 135.173 9.01855 132.218 9.01855C124.681 9.01855 120.78 14.4148 120.78 21.962C120.818 30.2261 124.644 34.8299 132.521 34.8299ZM95.6694 32.6412V27.8487C93.8515 29.094 90.7457 30.1884 87.9051 30.1884C83.5874 30.1884 81.9588 28.1506 81.6937 23.9997H95.9346V20.9053C95.9346 12.2638 92.1092 9.01855 86.2387 9.01855C79.0425 9.01855 75.6338 14.4903 75.6338 21.9997C75.6338 30.6412 79.9136 34.8299 87.4128 34.8299C91.1624 34.8299 93.9272 33.811 95.6694 32.6412ZM41.6223 9.47139V19.2827H33.7444V9.47139H27.8359V34.3393H33.7444V23.9619H41.6223V34.3393H47.5308V9.47139H41.6223ZM74.1566 29.6601H71.5433V9.47139H54.3482V11.5846C54.3482 17.6601 53.9694 25.5091 51.8863 29.6601H49.9926V39.9997H55.4466V34.3393H68.6648V39.9997H74.1188V29.6601H74.1566ZM114.493 34.3393H121.197L111.728 20.9431L120.061 9.47139H114.114L105.782 20.9431V9.47139H99.8735V34.3393H105.782V22.1129L114.493 34.3393ZM86.0872 13.6223C89.0035 13.6223 89.9125 16.0374 89.9125 19.1695V19.6601H81.6937C81.8452 15.6978 83.2844 13.6223 86.0872 13.6223ZM65.6348 29.6601H57.3024C58.931 25.9242 59.3855 19.1318 59.3855 14.8299V14.0752H65.6348V29.6601Z" fill="#7c7c7c" />
    <path d="M22.9142 34.3396H16.8921V4.64151H14.203C9.27929 4.64151 6.70381 7.09434 6.70381 10.7547C6.70381 14.9057 8.48392 16.8302 12.1578 19.283L15.1877 21.3208L6.47657 34.3396H0L7.84005 22.717C3.33297 19.5094 0.795368 16.3774 0.795368 11.0943C0.795368 4.49057 5.41608 0 14.1651 0H22.8763V34.3396H22.9142Z" fill="#7c7c7c" />
  </g>
  <defs>
    <clipPath id="clip0_11_6939">
      <rect width="139" height="40" fill="white" />
    </clipPath>
  </defs>
</svg>
