<svg width="157" height="31" viewBox="0 0 157 31" fill="none" xmlns="http://www.w3.org/2000/svg"><path d="M15.247 0C6.815 0 0 6.815 0 15.247c0 8.431 6.815 15.247 15.247 15.247 8.431 0 15.247-6.816 15.247-15.247C30.494 6.815 23.608 0 15.247 0Zm-2.178 21.71-1.125 3.303c-4.215-1.405-7.026-5.41-7.026-9.907 0-4.496 2.81-8.431 7.097-9.907l1.124 3.303c-2.81.913-4.637 3.583-4.637 6.534-.07 3.092 1.756 5.761 4.567 6.675Zm5.27 3.373-1.055-3.302c2.881-.913 4.778-3.583 4.778-6.604 0-3.022-1.897-5.621-4.707-6.535l1.124-3.372a10.421 10.421 0 0 1 7.166 9.907c-.07 4.567-3.02 8.572-7.307 9.906Zm136.448-7.167 1.686 2.037c-1.757 1.827-3.935 2.319-5.691 2.319-1.687 0-2.881-.281-3.935-.773-2.248-1.124-3.372-3.372-3.372-6.113 0-4.145 2.81-7.237 6.955-7.237 4.638 0 6.886 3.443 6.535 7.94h-10.54c.071 1.124.703 2.178 1.617 2.74.772.492 1.686.703 2.88.703 1.335.07 2.67-.422 3.865-1.616Zm-8.221-4.216h7.448c-.211-1.616-1.546-3.021-3.654-3.021-2.248 0-3.583 1.546-3.794 3.021Zm-70.824 8.22h3.794l-5.972-6.955 5.902-6.535h-3.724l-4.496 5.2H69.91v-5.2h-2.88v13.42h2.88v-5.34h1.336l4.496 5.41ZM88.18 10.89c-2.46 0-4.076 1.897-4.076 4.286 0 2.388 1.616 4.286 4.076 4.286 2.459 0 4.004-1.827 4.004-4.286 0-2.32-1.475-4.286-4.004-4.286Zm.491-2.74c3.794 0 6.605 2.95 6.605 7.026 0 4.004-2.74 7.096-6.605 7.096-1.826 0-3.302-.632-4.356-1.756v7.026h-2.95V8.5h2.88v1.616c1.124-1.335 2.53-1.968 4.426-1.968Zm38.223.35h-12.015v2.67h4.567v10.75h2.951V11.17h4.567V8.5h-.07Zm-61.9 0H52.977v2.67h4.566v10.75h2.881V11.17h4.567V8.5Zm-15.599 6.746c0-2.53-1.756-4.356-4.216-4.356-2.389 0-4.215 1.826-4.215 4.356s1.756 4.356 4.215 4.356c2.39 0 4.216-1.827 4.216-4.356Zm-11.382 0c0-4.005 3.091-7.026 7.237-7.026 4.145 0 7.237 3.02 7.237 7.026 0 4.005-3.092 7.096-7.237 7.096-4.146 0-7.237-3.091-7.237-7.096ZM141.156 8.5v13.42h-2.881v-8.643l-7.026 8.643h-2.319V8.5h2.881v8.642l7.026-8.642h2.319Zm-28.245 13.42h-2.881V8.5h2.881v13.42Zm-7.518-4.567c0-1.195-.843-2.038-1.968-2.038h-2.951v4.146h2.951c1.125 0 1.968-.914 1.968-2.108Zm2.951 0c0 2.67-1.968 4.567-4.778 4.567h-5.902V8.5h2.881v4.356h3.302c2.74 0 4.497 1.757 4.497 4.497Z" opacity=".85" fill="#1a1a1a"/></svg>