<svg width="164" height="44" viewBox="0 0 164 44" fill="none" xmlns="http://www.w3.org/2000/svg"><g opacity=".85"><mask id="a" style="mask-type:luminance" maskUnits="userSpaceOnUse" x="0" y="0" width="164" height="44"><path d="M164 0H0v43.733h164V0Z" fill="#fff"/></mask><g mask="url(#a)" fill="#1a1a1a"><path d="M69.032 16.352c-2.154 0-3.766.798-4.563 2.116h-.172v-1.71H60.36v18.119h3.938v-5.744h.172c.793 1.318 2.409 2.116 4.563 2.116 4.041 0 7.247-3.301 7.247-7.45 0-4.146-3.206-7.447-7.247-7.447Zm-.797 11.311c-2.197 0-3.938-1.71-3.938-3.865 0-2.176 1.74-3.865 3.938-3.865 2.262 0 3.98 1.69 3.98 3.865 0 2.176-1.74 3.866-3.98 3.866Zm88.872-10.247c-2.252 0-4.015.853-5.088 2.335h-.176c.292-2.68 1.809-3.981 5.076-4.446l5.716-.828v-3.623l-6.096.866c-5.631.784-8.333 3.765-8.333 9.139 0 3.886.25 5.114.944 6.584 1.09 2.357 3.792 3.805 7.057 3.805 4.399 0 7.794-3.12 7.794-7.205-.004-3.93-2.809-6.627-6.894-6.627Zm-.943 10.23c-2.24 0-3.895-1.53-3.895-3.603 0-2.094 1.633-3.624 3.895-3.624 2.218 0 3.856 1.53 3.856 3.624 0 2.073-1.658 3.602-3.856 3.602ZM56.23 12.502l-4.433 8.937-6.04-8.937h-4.71l8.768 12.936-.241.49c-.38.785-.879 1.207-2.033 1.207h-3.103v3.723h3.542c2.701 0 3.791-.685 4.92-2.938l7.75-15.422h-4.42v.004Zm42.795 4.272-.672 8.756c-.104 1.37-.564 1.87-1.654 1.87h-.966v3.564h2.349c2.64 0 3.812-1.207 4.002-3.723l.517-6.804h4.842v10.406h3.981V16.774H99.025Zm22.664 3.2c1.611 0 2.891.905 3.498 2.116l3.52-1.328c-.982-2.675-3.77-4.407-7.1-4.407-4.463 0-7.833 3.218-7.833 7.45 0 4.227 3.374 7.45 7.833 7.45 3.33 0 6.118-1.732 7.1-4.408l-3.52-1.328c-.607 1.207-1.887 2.116-3.498 2.116-2.24 0-3.856-1.59-3.856-3.826 0-2.245 1.616-3.835 3.856-3.835Zm19.452-3.222-6.113 8.945v-8.945h-3.938v14.09h4.356l6.074-8.88v8.88h3.938v-14.09h-4.317Zm-51.336 1.71h-.173c-.793-1.318-2.408-2.115-4.562-2.115-4.041 0-7.247 3.3-7.247 7.45 0 4.145 3.206 7.45 7.247 7.45 2.154 0 3.765-.797 4.562-2.116h.172v1.711h3.939v-14.09h-3.938v1.71Zm-3.934 9.2c-2.24 0-3.98-1.69-3.98-3.865 0-2.176 1.718-3.865 3.98-3.865 2.197 0 3.938 1.689 3.938 3.865-.004 2.154-1.74 3.865-3.938 3.865ZM29.95 22.09c0-5.102-2.78-9.588-6.954-12.143l.056 3.465c2.481 2.132 4.054 5.235 4.054 8.678a11.2 11.2 0 0 1-.927 4.442 14.682 14.682 0 0 1-3.873-6.084c-.96-2.87-1.185-6.01-1.219-9.85l.004-1.65a15.253 15.253 0 0 0-2.684-.87l.005 2.516c.09 13.254 2.386 18.718 5.803 22.824 3.494-2.637 5.734-6.73 5.734-11.328 0 .004 0 .004 0 0ZM11.542 10.597l.004-2.517c-.922.207-1.822.5-2.684.87l.005 1.65c-.04 3.836-.259 6.981-1.22 9.851a14.665 14.665 0 0 1-3.873 6.084c-.59-1.37-.926-2.87-.926-4.442 0-3.448 1.568-6.546 4.054-8.678l.056-3.465C2.778 12.501 0 16.987 0 22.088v.005c0 4.597 2.245 8.69 5.734 11.328 3.425-4.102 5.717-9.57 5.808-22.825Zm4.777-5.074a16.769 16.769 0 0 0-1.34-.056c-.414 0-.853.017-1.345.056V8.5c0 13.048-.504 18.718-2.455 27.526 2.473.624 5.1.624 7.578.004-1.939-8.743-2.439-14.413-2.439-27.53V5.523Z"/></g></g></svg>