<svg width="147" height="30" viewBox="0 0 147 30" fill="none" xmlns="http://www.w3.org/2000/svg"><g opacity=".85" fill="#1a1a1a"><path fill-rule="evenodd" clip-rule="evenodd" d="M0 14.53C0 6.51 6.493.017 14.511 0v5.256c-5.112 0-9.255 4.161-9.255 9.273 0 5.13 4.161 9.274 9.273 9.274a9.27 9.27 0 0 0 9.274-9.31h5.256c0 8.054-6.494 14.566-14.53 14.566S0 22.547 0 14.529Z"/><path d="M8.126 14.528a6.446 6.446 0 0 1 6.44-6.44 6.446 6.446 0 0 1 6.44 6.44c0 3.57-2.889 6.44-6.44 6.44a6.434 6.434 0 0 1-6.44-6.44Zm10.906-8.159a3.69 3.69 0 0 1 3.695-3.695 3.69 3.69 0 0 1 3.695 3.695 3.69 3.69 0 0 1-3.695 3.695 3.69 3.69 0 0 1-3.695-3.695Zm113.438 3.658-.448 2.207c-1.058 4.79-1.435 6.332-2.35 11.103l-.197.18-2.906.09-.144-.198 1.166-4.915.341-1.614a130.496 130.496 0 0 0-3.749-.054c-.968 0-1.722.018-2.475.036a184.747 184.747 0 0 0-1.328 6.475l-.197.18-2.906.09-.143-.198 1.166-4.915.466-2.135c.771-3.372.915-4.107 1.363-7.21l.198-.198c1.327-.18 1.65-.233 3.013-.52l.144.197-.305 1.417-.449 2.207-.466 2.08c1.04.018 2.099.036 3.157.036 1.112 0 1.848-.018 3.085-.053.395-1.83.556-2.817.915-5.184l.197-.198c1.346-.18 1.651-.233 3.032-.52l.143.197-.323 1.418Zm-35.032 6.404c.197-.825.34-1.668.34-2.457 0-2.906-1.865-3.39-2.923-3.39-4.502 0-5.077 6.995-5.077 8.053 0 2.296 1.382 3.3 2.924 3.3 3.068 0 4.216-3.138 4.736-5.506Zm2.977.897c-.627 2.475-2.385 6.745-7.767 6.745-3.82 0-5.9-1.974-5.9-5.884 0-.502.035-1.058.125-1.65l.053-.43c1.04-6.458 3.84-12.593 9.992-12.647.825-.018 2.475-.09 3.605-.358l-.412 2.583c-1.148.287-2.942.448-4 .448-1.31.018-2.207.502-2.835 1.112a4.702 4.702 0 0 0-.735.915c-.18.287-.323.556-.413.771a9.251 9.251 0 0 1 2.727-.412c3.749 0 5.991 2.098 5.991 5.793 0 .987-.179 2.01-.431 3.014Zm36.988-2.637c.682-.592 1.077-.969 2.027-1.883.987-.969 3.426-3.48 3.875-3.965l.323-.16h3.282l.09.25c-.287.251-.43.377-1.578 1.345-.449.377-.736.664-1.274 1.149l-3.713 3.426 4.431 8.43-.18.233-3.175.09-.233-.18c-.735-1.775-.933-2.17-1.973-4.25l-2.009-4.054a213.919 213.919 0 0 0-1.722 8.25l-.197.18-2.906.09-.144-.197 1.166-4.915.449-2.135c.771-3.372.914-4.107 1.363-7.21l.197-.198c1.345-.18 1.65-.233 3.032-.52l.143.197-.305 1.417-.448 2.207-.521 2.403Zm-25.257 5.202c-.305.251-.628.538-.951.735-.735.467-1.722.664-2.493.664-2.619 0-3.354-2.206-3.354-3.57 0-.143.054-3.838 3.067-5.883 1.686-1.148 3.552-1.202 4.502-1.202.431 0 .861.018 1.292.018l-2.063 9.238Zm5.489-11.175-.144-.233-3.964-.018c-2.637 0-6.332.161-9.004 3.3-1.202 1.435-2.296 3.893-2.296 6.153 0 3.57 2.385 5.632 5.309 5.632 2.44 0 3.695-1.058 4.18-1.453l-.198 1.148.144.198 2.69-.054.198-.197c.574-3.409.771-4.503 1.775-8.897l1.31-5.58ZM42.064 23.983c-3.103 0-7.587-.986-5.955-8.161.61-2.69 2.475-8.413 10.135-8.413 7.444 0 6.331 6.099 5.883 8.251-1.381 6.081-5.094 8.323-10.063 8.323Zm1.023-3.157c2.188 0 3.21-2.278 3.874-5.201.467-2.063.969-5.095-1.668-5.095-2.242 0-3.247 2.153-3.893 5.095-.627 2.708-.77 5.201 1.687 5.201Zm17.183 2.816c-1.434 0-3.802 0-4.789.036l-.161-.197c.269-.95.95-3.534 1.65-6.673.574-2.547 1.077-4.79 1.274-5.812-1.202.036-3.05.036-3.964.054l-.162-.215c.233-.771.574-2.117.79-2.924l.268-.161c.808.036 3.84.054 6.297.054 2.96 0 5.847-.054 6.457-.09l.197.161c-.215.718-.61 2.189-.807 2.924l-.287.18c-1.184-.018-2.08-.018-3.803-.018-.143.645-.61 2.565-1.38 5.973-.575 2.583-1.06 4.933-1.328 6.44l-.251.268Zm16.628-12.269c-.968 0-2.045.036-2.53.036-.143.664-.734 3.121-1.273 5.507-.627 2.816-1.201 5.453-1.417 6.547l-.287.18c-1.47 0-3.354 0-4.86.035l-.144-.197a519.462 519.462 0 0 0 1.847-7.91c.754-3.355 1.417-6.637 1.615-7.57l.25-.215c1.615 0 3.248.053 7.266.053 3.139 0 6.188-.09 7.802-.125l.144.18c-.215.806-1.112 4.663-1.973 8.484-.7 3.085-1.346 6.152-1.507 7.031l-.215.18c-1.292 0-3.642 0-4.88.036l-.125-.216c.27-1.04.843-3.462 1.525-6.457.52-2.278 1.022-4.7 1.238-5.597-.52.036-1.579.018-2.476.018Z"/></g></svg>