<svg width="124" height="40" viewBox="0 0 124 40" fill="none" xmlns="http://www.w3.org/2000/svg"><g clip-path="url(#a)"><path d="M118.299 14.733h5.69c-.72-5.518-4.764-8.418-10.385-8.418-5.689 0-9.494 3.007-9.494 8.17 0 5.871 4.901 7.18 7.506 7.71 3.359.672 6.649.743 6.649 3.714 0 2.016-1.645 3.006-3.976 3.006-2.878 0-4.798-1.485-5.278-4.173h-5.62c.342 5.8 4.421 8.912 10.419 8.912 5.552 0 10.11-2.617 10.11-8.276 0-6.083-5.244-7.18-8.911-7.745-2.502-.39-5.244-.743-5.244-3.466 0-1.91 1.406-3.077 3.77-3.077 2.742 0 4.387 1.592 4.764 3.643ZM100.272 7.2h-5.381v25.64h5.381V7.2ZM78.644 23.892h7.026c-1.097 2.76-3.565 4.068-6.41 4.068-5.003 0-7.334-3.997-7.334-7.958 0-3.996 2.194-8.063 7.3-8.063 3.12 0 5.45 1.485 6.341 4.137h5.792C90.365 10.1 85.293 6.67 79.295 6.67c-7.403 0-12.955 5.199-12.955 13.404 0 8.311 6.032 13.227 12.92 13.227 6.787 0 12.1-4.562 12.1-11.706v-2.087H78.643v4.385ZM54.037 6.669c-6.169 0-10.727 3.996-10.693 10.645h5.552c-.068-2.9 1.714-5.552 4.867-5.552 2.742 0 4.353 1.98 4.353 4.244 0 2.263-1.611 3.536-4.593 4.916-4.079 1.874-6.992 3.077-9.974 4.138v7.78h20.77v-5.234H50.061l.07-.023c2.426-.758 4.248-1.582 6.408-2.559 4.627-2.122 7.266-4.774 7.266-9.301 0-5.553-3.976-9.054-9.768-9.054Z" fill="#262626"/><path d="M28.743 23.822c-6.991.035-8.122 4.385-8.5 8.063l-.17 1.627h-1.406l-.171-1.627c-.377-3.678-1.543-8.028-8.294-8.063-1.131-2.405-1.611-4.35-1.611-6.543 0-5.482 4.353-10.61 10.796-10.61s10.727 5.092 10.727 10.645c0 2.157-.205 4.102-1.37 6.508ZM19.318.02C8.694.02-.012 9.003-.012 20.002c0 11.034 8.706 20.017 19.33 20.017 10.728 0 19.399-8.983 19.399-20.017 0-11-8.671-19.982-19.399-19.982Z" fill="#299400"/></g><defs><clipPath id="a"><path fill="#fff" d="M0 0h124v40H0z"/></clipPath></defs></svg>