<svg width="186" height="24" viewBox="0 0 186 24" fill="none" xmlns="http://www.w3.org/2000/svg"><path d="M43.1 21.106c-1.223 0-2.327-.27-3.314-.811a6.036 6.036 0 0 1-2.31-2.239c-.551-.963-.828-2.038-.828-3.225 0-1.187.277-2.256.829-3.208a5.965 5.965 0 0 1 2.326-2.256c.987-.54 2.092-.81 3.314-.81.916 0 1.762.152 2.538.458a5.26 5.26 0 0 1 1.974 1.34l-.829.828c-.963-.976-2.18-1.463-3.648-1.463-.975 0-1.862.223-2.661.67a4.959 4.959 0 0 0-1.886 1.833c-.447.775-.67 1.645-.67 2.608 0 .964.223 1.833.67 2.609a4.959 4.959 0 0 0 1.886 1.833c.799.446 1.686.67 2.661.67 1.48 0 2.697-.494 3.648-1.481l.829.828a5.412 5.412 0 0 1-1.992 1.357 6.865 6.865 0 0 1-2.538.459Zm15.517-1.199v3.331h-1.181V21h-8.301v2.238h-1.181v-3.33h.528c.623-.036 1.046-.494 1.27-1.376.223-.88.375-2.115.458-3.7l.123-3.103h6.839v8.178h1.445Zm-7.262-5.005c-.058 1.316-.17 2.403-.335 3.26-.164.846-.458 1.428-.88 1.745h5.78V12.84h-4.459l-.106 2.063Zm17.808 1.85h-7.755c.07.964.44 1.745 1.11 2.344.67.588 1.516.882 2.538.882a4.1 4.1 0 0 0 1.587-.3 3.56 3.56 0 0 0 1.251-.916l.705.81c-.411.494-.928.87-1.551 1.128a5.15 5.15 0 0 1-2.027.388c-.952 0-1.798-.2-2.538-.6a4.463 4.463 0 0 1-1.71-1.691c-.41-.717-.616-1.528-.616-2.433 0-.904.194-1.715.581-2.432a4.36 4.36 0 0 1 1.622-1.674c.693-.4 1.468-.6 2.326-.6.858 0 1.628.2 2.31.6.68.4 1.215.958 1.603 1.674.388.705.582 1.516.582 2.432l-.018.388Zm-4.477-4.018c-.893 0-1.645.288-2.256.863-.599.564-.94 1.305-1.022 2.221h6.574c-.082-.916-.429-1.657-1.04-2.22-.599-.576-1.351-.864-2.256-.864ZM79.34 11.73V21h-1.251v-8.16h-4.442l-.123 2.29c-.094 1.928-.317 3.408-.67 4.442-.353 1.034-.981 1.551-1.886 1.551a3.63 3.63 0 0 1-.899-.14l.088-1.076c.212.047.359.07.441.07.482 0 .846-.223 1.093-.67.246-.446.411-.998.493-1.656.082-.658.153-1.527.212-2.608l.158-3.314h6.786Zm6.748-.071c1.21 0 2.138.305 2.784.916.647.6.97 1.492.97 2.68V21h-1.199v-1.445c-.282.481-.699.857-1.251 1.128-.54.27-1.187.405-1.939.405-1.034 0-1.856-.247-2.468-.74-.61-.494-.916-1.146-.916-1.957 0-.787.282-1.421.846-1.903.576-.482 1.486-.723 2.732-.723h2.943v-.564c0-.799-.223-1.404-.67-1.815-.446-.423-1.098-.635-1.956-.635-.587 0-1.151.1-1.692.3a4.145 4.145 0 0 0-1.392.793l-.564-.934c.47-.4 1.034-.705 1.692-.917a6.43 6.43 0 0 1 2.08-.334Zm-.441 8.442c.705 0 1.31-.159 1.815-.476.505-.329.882-.799 1.128-1.41V16.7h-2.908c-1.586 0-2.38.553-2.38 1.657 0 .54.206.97.618 1.287.41.305.987.458 1.727.458Zm7.526-8.371h1.251v4.106h5.834v-4.107h1.252V21h-1.252v-4.088h-5.834V21h-1.251v-9.27Zm15.718 9.358c-.893 0-1.698-.2-2.415-.6a4.51 4.51 0 0 1-1.692-1.691c-.411-.717-.617-1.528-.617-2.433 0-.904.206-1.715.617-2.432a4.381 4.381 0 0 1 1.692-1.674c.717-.4 1.522-.6 2.415-.6s1.698.2 2.415.6c.716.4 1.274.958 1.674 1.674.411.717.617 1.528.617 2.432 0 .905-.206 1.716-.617 2.433a4.38 4.38 0 0 1-1.674 1.692c-.717.4-1.522.599-2.415.599Zm0-1.11c.658 0 1.245-.147 1.762-.441a3.17 3.17 0 0 0 1.234-1.287c.294-.552.441-1.18.441-1.886 0-.705-.147-1.333-.441-1.885a3.06 3.06 0 0 0-1.234-1.27c-.517-.305-1.104-.458-1.762-.458-.658 0-1.251.153-1.78.459a3.213 3.213 0 0 0-1.234 1.269c-.294.552-.441 1.18-.441 1.886 0 .705.147 1.333.441 1.885a3.34 3.34 0 0 0 1.234 1.287 3.6 3.6 0 0 0 1.78.44Zm17.897-3.772c1.258.294 1.886 1.052 1.886 2.274 0 .81-.299 1.433-.899 1.868-.599.434-1.492.652-2.679.652h-4.212v-9.27h4.089c1.058 0 1.886.205 2.485.616.599.411.899.999.899 1.762 0 .506-.141.94-.423 1.305-.27.352-.652.617-1.146.793Zm-4.688-.353h2.785c.717 0 1.263-.135 1.639-.405.388-.27.582-.664.582-1.18 0-.518-.194-.906-.582-1.164-.376-.259-.922-.388-1.639-.388H122.1v3.137Zm2.944 4.16c.799 0 1.398-.13 1.797-.388.4-.258.6-.664.6-1.216 0-.552-.183-.958-.547-1.216-.364-.27-.94-.405-1.727-.405H122.1v3.225h2.944Z" fill="#1C1C20"/><path d="M0 24 13.875 0l3.469 6-3.469 6h6.938l6.937 12H0Z" fill="#0061FF"/><path fill-rule="evenodd" clip-rule="evenodd" d="M179.308 16.683c0-1.336 1.059-2.32 2.324-2.32a2.3 2.3 0 0 1 2.323 2.32c0 1.336-1.059 2.32-2.323 2.32a2.295 2.295 0 0 1-2.324-2.32Zm-2.007.188c.085 2.45 2.101 4.034 4.348 4.034 2.426 0 4.348-1.799 4.348-4.162 0-2.45-1.939-4.05-4.169-4.145a1.783 1.783 0 0 0-.717.137c.401-.454 3.263-3.785 3.741-4.11h-2.434a70.044 70.044 0 0 0-2.469 2.8c-1.29 1.481-2.648 3.365-2.648 5.446Zm-29.941 2.2 1.098 1.922h2.178l-7.068-12.368-7.068 12.369h2.177l1.099-1.923h7.584Zm-1.093-1.913-2.699-4.723-2.699 4.723h5.398Z" fill="#1C1C20"/><path d="M164.907 8.625v1.92h4.635V20.98h2.206V10.545h4.635v-1.92h-11.476Z" fill="#1C1C20"/><path fill-rule="evenodd" clip-rule="evenodd" d="M158.782 10.553h-3.849l-2.206-.008V8.642h6.314c2.133 0 3.877 1.43 3.877 3.573 0 1.593-.941 2.825-2.677 3.35l3.397 5.416h-2.483l-3.277-5.235h-2.945v5.235h-2.206v-7.104h6.055c.97 0 1.967-.629 1.967-1.662 0-.973-.914-1.662-1.967-1.662Z" fill="#1C1C20"/></svg>