<svg width="158" height="40" viewBox="0 0 158 40" fill="none" xmlns="http://www.w3.org/2000/svg"><mask id="a" style="mask-type:luminance" maskUnits="userSpaceOnUse" x="0" y="0" width="158" height="40"><path d="M157.263 0H0v40h157.263V0Z" fill="#fff"/></mask><g mask="url(#a)"><path d="M60.115.941 46.547 36.39h7.291l2.816-7.404h14.405l2.802 7.404h7.236L67.58.94h-7.465Zm-.99 21.54 4.747-12.474 4.72 12.473h-9.467Zm85.234-11.441a12.897 12.897 0 0 0-2.517 25.547 12.902 12.902 0 0 0 13.24-5.485 12.9 12.9 0 0 0-10.723-20.063Zm0 19.181a6.283 6.283 0 1 1 6.282-6.283 6.265 6.265 0 0 1-3.877 5.808 6.269 6.269 0 0 1-2.405.475Zm-54.574-2.973-5.889-15.762h-6.955l9.48 24.904h6.899l9.309-24.904h-6.954l-5.89 15.762Zm34.718-22.381h-6.618v6.618h-3.869v5.947h3.869v10.6c0 6.002 3.31 8.582 7.964 8.582a11.388 11.388 0 0 0 4.6-.898v-6.17a7.408 7.408 0 0 1-2.469.458c-2.01 0-3.477-.785-3.477-3.477V17.43h5.946v-5.946h-5.946V4.867ZM108.07 9.692a4.824 4.824 0 1 0 .001-9.649 4.824 4.824 0 0 0-.001 9.649Zm3.309 1.794h-6.617V36.39h6.617V11.486Z" fill="#1A1A1A"/><path d="M12.944 39.924c7.125 0 12.9-5.776 12.9-12.901s-5.775-12.9-12.9-12.9S.043 19.897.043 27.022s5.776 12.901 12.9 12.901Z" fill="#04E061"/><path d="M35.323 38.296a7.795 7.795 0 1 0 0-15.59 7.795 7.795 0 0 0 0 15.59Z" fill="#FF4053"/><path d="M15.41 12.44a4.824 4.824 0 1 0 0-9.648 4.824 4.824 0 0 0 0 9.648Z" fill="#965EEB"/><path d="M32.294 21.022c5.793 0 10.489-4.696 10.489-10.49 0-5.792-4.697-10.488-10.49-10.488-5.792 0-10.488 4.696-10.488 10.489 0 5.793 4.696 10.489 10.489 10.489Z" fill="#0AF"/></g></svg>