<svg width="44" height="44" viewBox="0 0 44 44" fill="none" xmlns="http://www.w3.org/2000/svg"><path fill="#B01525" d="M0 0h44v44H0z"/><path d="M22 5.703c8.962 0 16.296 7.333 16.296 16.296s-7.334 16.297-16.297 16.297c-8.962 0-16.296-7.334-16.296-16.297 0-8.962 7.333-16.296 16.296-16.296Zm0 3.26c-3.097 0-5.867.977-7.986 2.77l18.252 18.252c1.63-2.282 2.77-5.052 2.77-7.986 0-7.17-5.866-13.037-13.037-13.037Zm7.985 23.303L11.733 14.014c-1.793 2.119-2.77 4.89-2.77 7.985 0 7.17 5.866 13.037 13.036 13.037 3.097 0 5.867-.977 7.986-2.77Z" fill="#fff"/></svg>