<svg width="20" height="20" viewBox="0 0 20 20" fill="none" xmlns="http://www.w3.org/2000/svg"><path d="m10.051 15.421-.002.002-.05.05-.056-.052c-1.98-1.796-3.62-3.286-4.767-4.626-1.147-1.342-1.791-2.526-1.791-3.712 0-1.639 1.227-2.866 2.866-2.866 1.264 0 2.495.821 2.929 1.934l.012.032h1.618l.013-.032c.434-1.113 1.664-1.934 2.928-1.934 1.64 0 2.867 1.227 2.867 2.866 0 1.186-.644 2.37-1.792 3.712-1.148 1.34-2.79 2.83-4.775 4.626Zm-.083 2.408.033.03.034-.03 1.208-1.1c2.145-1.945 3.93-3.565 5.177-5.091 1.248-1.527 1.965-2.967 1.965-4.555 0-2.602-2.04-4.633-4.634-4.633a5.062 5.062 0 0 0-3.75 1.707 5.062 5.062 0 0 0-3.75-1.707c-2.594 0-4.633 2.03-4.633 4.633 0 1.588.716 3.028 1.964 4.555 1.248 1.526 3.033 3.146 5.177 5.09l1.209 1.1Z" fill="#1A1A1A" stroke="#1A1A1A" stroke-width=".1"/></svg>