<svg width="20" height="20" viewBox="0 0 20 20" fill="none" xmlns="http://www.w3.org/2000/svg"><path d="M9.168 15h1.667v-1.666H9.168V15Zm.833-13.333a8.333 8.333 0 1 0 0 16.667 8.333 8.333 0 0 0 0-16.667Zm0 15A6.676 6.676 0 0 1 3.335 10 6.676 6.676 0 0 1 10 3.334 6.676 6.676 0 0 1 16.668 10a6.676 6.676 0 0 1-6.667 6.667Zm0-11.667a3.333 3.333 0 0 0-3.333 3.334h1.667a1.667 1.667 0 1 1 3.333 0c0 1.666-2.5 1.458-2.5 4.166h1.667c0-1.875 2.5-2.083 2.5-4.166A3.333 3.333 0 0 0 10 5Z" fill="#7C7C7C"/></svg>