<svg width="40" height="40" viewBox="0 0 40 40" fill="none" xmlns="http://www.w3.org/2000/svg"><path d="M11.666 25H15c0 1.8 2.283 3.333 5 3.333 2.716 0 5-1.533 5-3.333 0-1.833-1.733-2.5-5.4-3.383-3.534-.884-7.934-1.984-7.934-6.617 0-2.983 2.45-5.517 5.834-6.367V5h5v3.633c3.383.85 5.833 3.384 5.833 6.367H25c0-1.8-2.284-3.333-5-3.333-2.717 0-5 1.533-5 3.333 0 1.833 1.733 2.5 5.4 3.383 3.533.884 7.933 1.984 7.933 6.617 0 2.983-2.45 5.517-5.833 6.367V35h-5v-3.633c-3.383-.85-5.834-3.384-5.834-6.367Z" fill="#fff"/></svg>