<svg width="342" height="121" viewBox="0 0 342 121" fill="none" xmlns="http://www.w3.org/2000/svg"><path fill="#fff" d="M0 .497h342v120H0z"/><path d="M208.807 81.749c0 3.413 1.363 6.5 3.568 8.73a12.053 12.053 0 0 0 8.602 3.6c3.364 0 6.405-1.376 8.604-3.6a12.377 12.377 0 0 0 3.569-8.73 12.38 12.38 0 0 0-3.569-8.733 12.055 12.055 0 0 0-8.604-3.599 12.053 12.053 0 0 0-8.603 3.6 12.383 12.383 0 0 0-3.567 8.732Zm1.671 10.596a15.03 15.03 0 0 1-4.339-10.596 15.03 15.03 0 0 1 4.338-10.598c2.688-2.72 6.4-4.402 10.5-4.402s7.813 1.682 10.501 4.402a15.027 15.027 0 0 1 4.34 10.598c0 4.136-1.658 7.883-4.34 10.596-2.689 2.72-6.402 4.401-10.501 4.401-4.1 0-7.811-1.682-10.499-4.4ZM104.561 81.749c0 3.413 1.363 6.5 3.568 8.73a12.053 12.053 0 0 0 8.602 3.6c3.362 0 6.403-1.376 8.601-3.6a12.373 12.373 0 0 0 3.569-8.73c0-3.415-1.363-6.501-3.568-8.732a12.05 12.05 0 0 0-8.602-3.6 12.053 12.053 0 0 0-8.603 3.6 12.383 12.383 0 0 0-3.567 8.732Zm1.671 10.596a15.03 15.03 0 0 1-4.339-10.596 15.03 15.03 0 0 1 4.338-10.598c2.688-2.72 6.4-4.402 10.5-4.402 4.099 0 7.811 1.682 10.499 4.402a15.03 15.03 0 0 1 4.339 10.598c0 4.136-1.658 7.883-4.34 10.595-2.688 2.72-6.4 4.402-10.498 4.402-4.1 0-7.812-1.682-10.499-4.4Z" fill="#1A1A1A" stroke="#1A1A1A" stroke-width=".5"/><path d="M202.522 87.634a19.813 19.813 0 0 1-.901-5.885c0-2.638.523-5.164 1.469-7.477a19.62 19.62 0 0 1 4.195-6.354 19.359 19.359 0 0 1 6.287-4.256 19.126 19.126 0 0 1 7.404-1.484c2.617 0 5.116.528 7.398 1.486 1.906.8 3.659 1.9 5.203 3.24l.043-.053 1.049 1.061a19.576 19.576 0 0 1 4.194 6.358 19.724 19.724 0 0 1 1.469 7.478 21.435 21.435 0 0 1-.085 1.813h12.483v.005c2.688-.07 5.141-.44 6.83-2.043 1.75-1.661 2.849-4.736 2.849-10.293 0-.088-.118-.243-.294-.428-.321-.338-.779-.672-1.241-.984l-.043-.028c-3.124-2.219-2.988-5.188-2.851-8.185.025-.55.051-1.102.052-1.585h-.006l.007-.196c.071-.798.142-2.771.205-5.188.081-3.148.153-7.032.197-10.13.003-.299.017-.539.03-.79.087-1.602.205-3.773-3.342-4.962-9.083-3.045-24.346-4.726-40.332-5.334-18.965-.72-38.907.077-50.78 1.904v-.003c-4.717.765-9.297 2.334-13.854 4.368-4.601 2.053-9.197 4.59-13.891 7.258l-.016.01c-1.336.737-2.01 1.113-2.652 1.47-4.495 2.507-8.022 4.473-10.474 5.067-.903.23-2.273.281-4.248.353-.571.021-1.198.044-1.965.078h-.016c-5.703.198-16.208 2.985-24.373 7.463-5.74 3.147-10.249 7.079-10.84 11.398-.126.972.11 5.085.563 8.903.299 2.519.682 4.845 1.098 5.903 4.32.492 10.423.07 14.942.07a19.46 19.46 0 0 1-.634-2.63 19.709 19.709 0 0 1 1.194-10.76 19.6 19.6 0 0 1 4.194-6.354 19.35 19.35 0 0 1 6.287-4.256 19.125 19.125 0 0 1 7.406-1.484c2.615 0 5.114.528 7.396 1.486a19.352 19.352 0 0 1 5.297 3.329l.042-.044.957.969a19.617 19.617 0 0 1 4.194 6.354 19.714 19.714 0 0 1 .568 13.358c15.216-.2 30.518-.132 45.798-.064 7.189.032 14.375.064 21.538.068Zm1.998-3.06c.16.954.393 1.87.694 2.74.12.348.156.702.108 1.048a2.217 2.217 0 0 1-.394.98l.004.003a2.23 2.23 0 0 1-.795.702h-.006c-.316.164-.663.25-1.027.25v-.006c-7.368-.002-14.747-.035-22.131-.068-15.46-.068-30.943-.137-46.341.073a2.2 2.2 0 0 1-1.044-.234 2.23 2.23 0 0 1-.806-.697l-.005-.01a2.223 2.223 0 0 1-.285-2.036c.301-.871.536-1.788.695-2.741.152-.91.232-1.856.232-2.83 0-2.304-.448-4.491-1.26-6.476a16.95 16.95 0 0 0-3.181-5.014l-.455-.46a16.789 16.789 0 0 0-5.427-3.674 16.402 16.402 0 0 0-6.364-1.278 16.48 16.48 0 0 0-6.384 1.275 16.649 16.649 0 0 0-5.412 3.662 16.947 16.947 0 0 0-3.631 5.49 17.06 17.06 0 0 0-1.261 6.475c0 .98.081 1.932.234 2.846.16.955.396 1.873.699 2.747.122.346.157.7.11 1.046v.005c-.048.348-.177.68-.386.979a2.206 2.206 0 0 1-.794.702c-.319.17-.67.258-1.036.258H83.985c-.4-.023-.793-.076-1.19-.126v.002a2.212 2.212 0 0 1-1.05-.397l.002-.002a2.242 2.242 0 0 1-.711-.851c-.597-1.238-1.09-4.016-1.438-6.955-.474-3.992-.702-8.429-.553-9.566v-.005c.726-5.298 5.786-9.863 12.196-13.378 8.504-4.664 19.526-7.57 25.555-7.785.669-.03 1.358-.055 1.986-.078 1.792-.065 3.035-.111 3.696-.278h.011c2.102-.507 5.493-2.398 9.817-4.808l2.662-1.482c4.745-2.694 9.396-5.26 14.105-7.362 4.754-2.121 9.552-3.761 14.532-4.567l.01-.006c11.995-1.846 32.129-2.652 51.27-1.924 16.213.616 31.744 2.338 41.082 5.468 5.47 1.834 5.289 5.163 5.156 7.62a18.74 18.74 0 0 0-.031.687 924.864 924.864 0 0 1-.197 10.16c-.065 2.516-.136 4.541-.201 5.317l-.003.038a40.75 40.75 0 0 1-.054 1.667c-.104 2.272-.207 4.522 1.737 5.902l.055.04c.579.395 1.157.825 1.614 1.306.62.651 1.034 1.394 1.034 2.262 0 6.39-1.42 10.073-3.682 12.22-2.316 2.2-5.357 2.693-8.634 2.774-2.335.4-10.089.005-12.988.005-.321 0-.629-.066-.919-.197h-.005a2.217 2.217 0 0 1-.751-.567h-.005a2.251 2.251 0 0 1-.455-.812 2.262 2.262 0 0 1-.086-.918v-.01c.04-.344.069-.672.087-.983.016-.291.025-.622.025-.994 0-2.305-.449-4.493-1.26-6.478a16.904 16.904 0 0 0-3.195-5.023l-.444-.45a16.768 16.768 0 0 0-5.423-3.673 16.4 16.4 0 0 0-6.366-1.278c-2.264 0-4.42.454-6.383 1.276a16.661 16.661 0 0 0-5.411 3.661 16.934 16.934 0 0 0-3.632 5.49 17.043 17.043 0 0 0-1.261 6.475c0 .974.08 1.918.231 2.826Zm56.169-24.554v.007c-.001.035.002.005.004-.007h-.004Z" fill="#1A1A1A" stroke="#1A1A1A" stroke-width=".5"/><path d="M168.651 70.386a2.357 2.357 0 0 1-2.35-2.35 2.357 2.357 0 0 1 2.35-2.35 2.358 2.358 0 0 1 2.351 2.35 2.358 2.358 0 0 1-2.351 2.35Zm7.051 3.526V62.159H161.6v11.753h14.102Zm0-14.103a2.358 2.358 0 0 1 2.351 2.35v11.753a2.358 2.358 0 0 1-2.351 2.35H161.6a2.357 2.357 0 0 1-2.35-2.35V62.159a2.357 2.357 0 0 1 2.35-2.35h1.175v-2.35c0-3.29 2.586-5.876 5.876-5.876 3.291 0 5.877 2.586 5.877 5.876v2.35h1.174Zm-7.051-5.876c-1.998 0-3.525 1.528-3.525 3.526v2.35h7.051v-2.35c0-1.998-1.528-3.526-3.526-3.526Z" fill="#B01525" stroke="#B01525" stroke-width=".5"/></svg>