<svg width="28" height="28" viewBox="0 0 28 28" fill="none" xmlns="http://www.w3.org/2000/svg"><path d="M9.1 2.332h9.8a6.771 6.771 0 0 1 6.766 6.767v9.8a6.767 6.767 0 0 1-6.766 6.766H9.1A6.772 6.772 0 0 1 2.333 18.9V9.1A6.767 6.767 0 0 1 9.1 2.332Zm-.234 2.333a4.2 4.2 0 0 0-4.2 4.2v10.267c0 2.322 1.879 4.2 4.2 4.2h10.267a4.2 4.2 0 0 0 4.2-4.2V8.865c0-2.321-1.878-4.2-4.2-4.2H8.866Zm11.259 1.75a1.458 1.458 0 1 1 0 2.917 1.458 1.458 0 0 1 0-2.917ZM14 8.165a5.833 5.833 0 1 1 0 11.667 5.833 5.833 0 0 1 0-11.667Zm0 2.334a3.5 3.5 0 1 0 0 7 3.5 3.5 0 0 0 0-7Z" fill="#7C7C7C"/></svg>