<svg width="29" height="29" viewBox="0 0 29 29" fill="none" xmlns="http://www.w3.org/2000/svg"><path d="M.094 0h28.31v29H.094z"/><path d="M19.176 4.55H9.729c-2.597 0-4.723 2.178-4.723 4.84v9.677c0 2.66 2.126 4.838 4.723 4.838h9.447c2.597 0 4.723-2.178 4.723-4.838V9.389c0-2.66-2.126-4.838-4.723-4.838Zm3.148 14.517c0 1.778-1.412 3.225-3.148 3.225H9.729c-1.736 0-3.149-1.447-3.149-3.225V9.389c0-1.778 1.413-3.225 3.15-3.225h9.446c1.736 0 3.148 1.447 3.148 3.225v9.678Z" fill="#fff"/><path d="M19.571 10.19c.653 0 1.181-.54 1.181-1.209 0-.668-.528-1.21-1.18-1.21-.653 0-1.181.542-1.181 1.21 0 .668.528 1.21 1.18 1.21Zm-5.116-.805c-2.61 0-4.724 2.166-4.724 4.838s2.115 4.84 4.724 4.84c2.608 0 4.723-2.168 4.723-4.84 0-2.672-2.115-4.838-4.723-4.838Zm0 8.064c-1.74 0-3.15-1.444-3.15-3.226s1.41-3.225 3.15-3.225c1.739 0 3.149 1.444 3.149 3.225 0 1.782-1.41 3.226-3.15 3.226Z" fill="#fff"/></svg>