<svg width="40" height="40" viewBox="0 0 40 40" fill="none" xmlns="http://www.w3.org/2000/svg"><path d="M28.333 25.366a2.973 2.973 0 0 1-2.967 2.967 2.959 2.959 0 0 1-2.95-2.967 2.945 2.945 0 0 1 2.95-2.95 2.959 2.959 0 0 1 2.967 2.95Zm-13.617-7.7a2.945 2.945 0 0 0 2.95-2.95 2.948 2.948 0 0 0-2.95-2.966 2.952 2.952 0 0 0-2.966 2.966 2.948 2.948 0 0 0 2.966 2.95Zm-3.05 8.217 2.5 2.5 14.217-14.217-2.5-2.5-14.217 14.217Zm25-5.883c0 9.166-7.5 16.666-16.666 16.666-9.167 0-16.667-7.5-16.667-16.666 0-9.167 7.5-16.667 16.667-16.667 9.166 0 16.666 7.5 16.666 16.667Zm-3.333 0c0-7.35-5.983-13.334-13.333-13.334C12.65 6.666 6.666 12.65 6.666 20S12.65 33.333 20 33.333 33.333 27.35 33.333 20Z" fill="#fff"/></svg>