<svg width="32" height="32" viewBox="0 0 32 32" fill="none" xmlns="http://www.w3.org/2000/svg"><path d="M24 21.333h-.773l-1.08-1.08A9.427 9.427 0 0 0 24 14.666a9.326 9.326 0 0 0-9.333-9.333c-2 0-4 .667-5.614 1.867-4.12 3.093-4.96 8.946-1.866 13.066 3.093 4.12 8.946 4.96 13.066 1.867l1.08 1.08V24L28 30.666 30.667 28 24 21.333Zm-9.333 0A6.67 6.67 0 0 1 8 14.666 6.67 6.67 0 0 1 14.667 8a6.67 6.67 0 0 1 6.666 6.666 6.67 6.67 0 0 1-6.666 6.667ZM4 8l-2.667 2.666V1.333h9.334L8 4H4v4Zm24-6.667v9.333L25.333 8V4h-4l-2.666-2.667H28Zm-20 24L10.667 28H1.333v-9.334L4 21.333v4h4Z" fill="#fff"/></svg>