<svg width="342" height="121" viewBox="0 0 342 121" fill="none" xmlns="http://www.w3.org/2000/svg"><path fill="#fff" d="M0 .497h342v120H0z"/><path d="M93.543 82.267c0 3.318 1.35 6.319 3.535 8.488a12.102 12.102 0 0 0 8.558 3.514c3.347 0 6.372-1.343 8.557-3.514a11.924 11.924 0 0 0 3.535-8.488c0-3.32-1.351-6.32-3.535-8.49a12.096 12.096 0 0 0-8.557-3.515 12.1 12.1 0 0 0-8.558 3.514 11.927 11.927 0 0 0-3.535 8.49Zm1.659 10.375a14.576 14.576 0 0 1-4.327-10.375 14.58 14.58 0 0 1 4.327-10.377 14.76 14.76 0 0 1 10.434-4.296 14.76 14.76 0 0 1 10.434 4.296 14.582 14.582 0 0 1 4.326 10.377c0 4.051-1.653 7.719-4.326 10.374a14.76 14.76 0 0 1-10.434 4.296 14.76 14.76 0 0 1-10.434-4.295Zm115.7-10.375c0 3.318 1.351 6.319 3.535 8.488a12.101 12.101 0 0 0 8.558 3.514c3.347 0 6.373-1.343 8.559-3.514a11.924 11.924 0 0 0 3.535-8.488c0-3.32-1.351-6.321-3.535-8.491a12.103 12.103 0 0 0-8.559-3.514 12.101 12.101 0 0 0-8.558 3.514 11.929 11.929 0 0 0-3.535 8.49Zm1.659 10.374a14.574 14.574 0 0 1-4.327-10.374c0-4.053 1.654-7.721 4.327-10.377a14.76 14.76 0 0 1 10.434-4.296 14.76 14.76 0 0 1 10.435 4.296 14.58 14.58 0 0 1 4.327 10.377c0 4.052-1.654 7.72-4.327 10.375a14.764 14.764 0 0 1-10.435 4.295 14.757 14.757 0 0 1-10.434-4.296Z" fill="#1A1A1A" stroke="#1A1A1A" stroke-width=".5"/><path d="m205.667 36.556 18.19-8.261v15.174h13.931l-1.248 13.989 21.161-3.35c.359 1.996.752 4.782 1.064 6.744 1.299 8.16 2.102 15.754 1.621 20.295-.387 3.645-3.776 5.447-7.899 6.304-3.718.774-8.062.783-11.03.729h-.01a2.233 2.233 0 0 1-2.125-1.699 2.187 2.187 0 0 1-.023-.969h.006a16.537 16.537 0 0 0 .316-3.246c0-2.234-.447-4.362-1.255-6.299a16.532 16.532 0 0 0-3.608-5.355l-.395-.398a16.639 16.639 0 0 0-5.001-3.206 16.69 16.69 0 0 0-6.365-1.246 16.62 16.62 0 0 0-6.35 1.248 16.731 16.731 0 0 0-5.402 3.594l-.449.446a16.36 16.36 0 0 0-4.423 11.216c0 .573.025 1.113.074 1.615.052.522.132 1.056.24 1.6a2.212 2.212 0 0 1-.471 1.85l-.002-.002a2.229 2.229 0 0 1-1.724.815h-80.349a2.224 2.224 0 0 1-1.722-.815l-.003.002a2.212 2.212 0 0 1-.471-1.85c.108-.547.188-1.082.239-1.6.049-.502.074-1.041.074-1.615 0-2.24-.446-4.373-1.255-6.313a16.514 16.514 0 0 0-3.606-5.358 16.673 16.673 0 0 0-5.4-3.587 16.68 16.68 0 0 0-6.361-1.246 16.7 16.7 0 0 0-6.365 1.246 16.64 16.64 0 0 0-5.001 3.206l-.396.398a16.535 16.535 0 0 0-3.607 5.355 16.318 16.318 0 0 0-1.255 6.299c0 .575.026 1.115.075 1.619.05.516.13 1.05.238 1.595a2.197 2.197 0 0 1-.47 1.851 2.224 2.224 0 0 1-.775.599c-.3.141-.621.214-.95.214h-5.612c-7.765 0-9.518-5.787-9.518-12.2h.005c0-2.74.324-5.518.608-7.96.18-1.548.345-2.961.395-4.04a9.708 9.708 0 0 1 .797-3.438c.724-1.67 1.728-2.711 1.998-2.97l.132-.117.143-.11-.001-.002a3412.024 3412.024 0 0 1 24.42-16.803 3342.997 3342.997 0 0 1 24.39-16.48l.01-.01c1.425-.934 3.018-1.585 4.508-2.037 2.748-.834 5.167-.983 5.449-.997l.056-.002c8.999-.25 28.375.185 55.233.648l15.524 14.93Zm49.856 21.01-22.119 3.287 1.313-14.716h-13.528V32.432l-16.063 7.296-16.078-15.462c-26.536-.455-45.137-.874-54.029-.632l-.034.002c-.171.008-2.318.129-4.809.884-1.266.384-2.617.935-3.82 1.724l-.002-.003a3341.794 3341.794 0 0 0-24.356 16.462 3407.329 3407.329 0 0 0-24.383 16.782c-.225.224-.877.934-1.372 2.074a7.053 7.053 0 0 0-.578 2.5c-.058 1.245-.223 2.668-.405 4.228-.28 2.4-.597 5.131-.597 7.658h.005c0 5.01 1.262 9.53 6.85 9.53h5.098c-.072-.43-.131-.877-.177-1.34a18.965 18.965 0 0 1 1.368-9.19 19.188 19.188 0 0 1 3.795-5.815v-.028l.395-.393a19.307 19.307 0 0 1 13.639-5.616 19.346 19.346 0 0 1 13.637 5.616 19.041 19.041 0 0 1 5.558 15.423c-.045.464-.105.912-.177 1.344h79.323a19.78 19.78 0 0 1-.176-1.335v-.005a19.017 19.017 0 0 1 1.368-9.204 19.183 19.183 0 0 1 4.191-6.223l.987-.98.042.046a19.375 19.375 0 0 1 5.246-3.224 19.28 19.28 0 0 1 7.362-1.458c2.604 0 5.096.518 7.376 1.456a19.305 19.305 0 0 1 6.262 4.16l.396.393v.028a19.2 19.2 0 0 1 3.794 5.816 18.96 18.96 0 0 1 1.179 10.585c2.808.04 6.673-.006 9.941-.685 3.063-.637 5.564-1.808 5.794-3.97.454-4.292-.333-11.65-1.6-19.607a280.833 280.833 0 0 0-.616-3.703Z" fill="#1A1A1A" stroke="#1A1A1A" stroke-width=".5"/><path fill-rule="evenodd" clip-rule="evenodd" d="m228.729 37.383 20.886-20.886 1.907 1.907-20.887 20.886-1.906-1.907Z" fill="#B01525" stroke="#B01525" stroke-width=".5"/><path fill-rule="evenodd" clip-rule="evenodd" d="m251.522 37.383-20.887-20.886-1.906 1.907 20.886 20.886 1.907-1.907Z" fill="#B01525" stroke="#B01525" stroke-width=".5"/></svg>