<svg width="29" height="29" viewBox="0 0 29 29" fill="none" xmlns="http://www.w3.org/2000/svg"><path d="M24.108 5.785a1.325 1.325 0 0 0-1.309-.281L3.517 11.86a1.314 1.314 0 0 0-.908 1.195A1.315 1.315 0 0 0 3.4 14.33l4.768 2.087 1.44 6.673c.059.277.2.524.498.6.301.077.514-.088.74-.256l3.538-2.65 4.137 3.385a1.316 1.316 0 0 0 1.264.23c.435-.148.758-.504.863-.951l3.854-16.384a1.325 1.325 0 0 0-.395-1.279ZM11.154 17.612a.172.172 0 0 0-.006.02l-.798 2.787-.89-4.129 6.121-3.401-4.28 4.475a.644.644 0 0 0-.147.248Zm.254 3.792.362-1.266.347-1.21 1.241 1.016-1.95 1.46ZM23.248 6.77l-3.853 16.384c-.002.008-.004.02-.023.026-.019.006-.028-.001-.034-.007l-4.527-3.704-2.098-1.717 6.739-7.046a.644.644 0 0 0-.779-1.008l-9.978 5.544-4.778-2.09c-.015-.007-.023-.01-.022-.035.002-.025.01-.027.025-.032l19.283-6.357c.01-.003.02-.006.035.008.016.014.013.025.01.034Z" fill="#7C7C7C"/></svg>