<svg width="29" height="29" viewBox="0 0 29 29" fill="none" xmlns="http://www.w3.org/2000/svg"><path d="M22.536 7.081a10.571 10.571 0 0 0-7.524-3.116A10.572 10.572 0 0 0 7.488 7.08a10.571 10.571 0 0 0-3.117 7.525c0 1.809.46 3.587 1.334 5.16l-1.31 4.69a.624.624 0 0 0 .768.768l4.689-1.311a10.634 10.634 0 0 0 5.16 1.334c2.842 0 5.514-1.107 7.524-3.117a10.57 10.57 0 0 0 3.117-7.524c0-2.843-1.107-5.515-3.117-7.525ZM15.012 24a9.383 9.383 0 0 1-4.76-1.295.623.623 0 0 0-.485-.063l-3.874 1.082 1.083-3.873a.624.624 0 0 0-.063-.485 9.385 9.385 0 0 1-1.295-4.76c0-2.51.977-4.869 2.751-6.643a9.332 9.332 0 0 1 6.643-2.751c5.18 0 9.394 4.214 9.394 9.394S20.192 24 15.012 24Z" fill="#fff"/><path d="M19.605 15.402a2.01 2.01 0 0 0-1.431-.59c-.542 0-1.05.209-1.431.59l-.29.29a.379.379 0 0 1-.269.11.379.379 0 0 1-.27-.111l-1.99-1.99a.379.379 0 0 1-.11-.27c0-.102.039-.198.11-.27l.29-.288a2.026 2.026 0 0 0 0-2.862l-.579-.578a2.01 2.01 0 0 0-1.43-.591c-.542 0-1.05.21-1.432.59l-.43.432c-.912.911-1.243 2.269-.932 3.822.292 1.461 1.127 2.94 2.352 4.166 1.544 1.543 3.51 2.465 5.26 2.465 1.102 0 2.046-.36 2.728-1.044l.432-.43a2.026 2.026 0 0 0 0-2.863l-.578-.578Zm-.304 2.559-.431.43c-.444.445-1.083.68-1.847.68-1.427 0-3.063-.786-4.378-2.1-1.053-1.054-1.767-2.307-2.012-3.53-.226-1.13-.016-2.088.591-2.695l.431-.431a.77.77 0 0 1 .55-.226c.208 0 .403.08.549.225l.578.579a.778.778 0 0 1 0 1.098l-.29.29a1.617 1.617 0 0 0-.475 1.15c0 .436.169.845.476 1.152l1.99 1.99c.306.307.715.476 1.151.476.436 0 .845-.17 1.151-.476l.29-.29a.77.77 0 0 1 .549-.225.77.77 0 0 1 .549.226l.578.578a.778.778 0 0 1 0 1.099Z" fill="#fff"/></svg>