<svg width="342" height="121" viewBox="0 0 342 121" fill="none" xmlns="http://www.w3.org/2000/svg"><path fill="#fff" d="M0 .497h342v120H0z"/><path d="M211.068 81.727c0 3.418 1.373 6.507 3.592 8.74a12.19 12.19 0 0 0 8.677 3.61c3.391 0 6.458-1.38 8.675-3.61a12.355 12.355 0 0 0 3.591-8.74c0-3.418-1.372-6.508-3.591-8.74a12.19 12.19 0 0 0-8.675-3.61 12.19 12.19 0 0 0-8.677 3.61 12.355 12.355 0 0 0-3.592 8.74Zm1.705 10.616a15.014 15.014 0 0 1-4.373-10.616 15.01 15.01 0 0 1 4.374-10.616 14.845 14.845 0 0 1 10.563-4.402c4.124 0 7.858 1.682 10.561 4.402a15.008 15.008 0 0 1 4.373 10.616c0 4.144-1.671 7.897-4.372 10.616a14.845 14.845 0 0 1-10.562 4.402 14.85 14.85 0 0 1-10.564-4.402ZM97.725 81.727c0 3.418 1.372 6.507 3.591 8.74a12.19 12.19 0 0 0 8.675 3.61c3.391 0 6.459-1.38 8.677-3.61a12.353 12.353 0 0 0 3.591-8.74c0-3.417-1.372-6.507-3.591-8.739a12.194 12.194 0 0 0-8.677-3.611c-3.391 0-6.458 1.38-8.675 3.61a12.354 12.354 0 0 0-3.591 8.74Zm1.704 10.616a15.011 15.011 0 0 1-4.372-10.616c0-4.144 1.67-7.897 4.372-10.616a14.844 14.844 0 0 1 10.562-4.402c4.124 0 7.859 1.682 10.563 4.403a15.012 15.012 0 0 1 4.373 10.615 15.01 15.01 0 0 1-4.373 10.615 14.85 14.85 0 0 1-10.563 4.403 14.845 14.845 0 0 1-10.562-4.402Z" fill="#1A1A1A" stroke="#B01525" stroke-width=".5"/><path d="M211.874 33.924c3.358.921 6.578 2.143 9.622 3.468 3.037 1.323 5.887 2.74 8.524 4.067 2.133 1.073 4.149 2.087 5.981 2.892 1.792.787 3.43 1.387 4.871 1.667l.076.016-.001.004c2.495.554 5.448.74 8.223.915.697.044 1.382.087 1.928.126l.045.005c1.172.055 2.467.134 3.61.237.984.09 1.844.196 2.409.318a2.24 2.24 0 0 1 1.194.69v.005c.304.34.504.77.558 1.247.101.87.093 2.359.034 3.989-.086 2.365-.271 4.96-.394 6.402 0 .683-.05 2.546-.087 3.934-.018.662-.033 1.19-.033 1.533 0 .358.171.683.426.982.333.393.82.765 1.319 1.119.054.032.083.056.111.079.576.388 1.158.818 1.633 1.315l.002-.003c.626.654 1.043 1.4 1.043 2.27 0 1.15-.105 2.644-.247 4.092-.198 2.027-.466 3.93-.611 4.664-.1.663-.343 1.321-1.11 2.065-.604.586-1.577 1.235-3.192 2.015l-.043.019c-1.154.529-3.825 1.177-6.753 1.731-3.074.582-6.479 1.076-8.707 1.227a2.214 2.214 0 0 1-1.805-.732l-.002.003a2.22 2.22 0 0 1-.553-1.87 17.033 17.033 0 0 0 .206-2.689c0-2.293-.451-4.474-1.269-6.459a17.027 17.027 0 0 0-3.649-5.492l-.022-.023a16.901 16.901 0 0 0-5.461-3.673 16.622 16.622 0 0 0-6.414-1.278 16.679 16.679 0 0 0-11.414 4.487l-.469.473a17.026 17.026 0 0 0-3.661 5.5 16.905 16.905 0 0 0-1.272 6.465c0 .979.08 1.928.233 2.84.16.956.396 1.875.699 2.749h.005c.118.341.151.695.102 1.046v.005c-.049.342-.18.673-.395.977l.004.002a2.25 2.25 0 0 1-.803.704 2.22 2.22 0 0 1-1.028.25v-.006c-8.343-.003-16.703-.043-25.067-.081-17.434-.082-34.895-.164-52.253.076a2.213 2.213 0 0 1-1.038-.236h-.006a2.24 2.24 0 0 1-.802-.698 2.215 2.215 0 0 1-.297-2.052c.306-.877.542-1.793.701-2.739.153-.912.233-1.86.233-2.836 0-2.303-.452-4.492-1.27-6.48a16.953 16.953 0 0 0-3.197-5.016l-.468-.47a16.894 16.894 0 0 0-5.464-3.68 16.61 16.61 0 0 0-6.417-1.28A16.686 16.686 0 0 0 98.1 69.752a16.947 16.947 0 0 0-3.653 5.495 16.993 16.993 0 0 0-1.27 6.48 16.858 16.858 0 0 0 .941 5.603v.005c.12.347.156.7.108 1.046-.05.347-.18.68-.39.98l-.004.011a2.245 2.245 0 0 1-.794.699c-.316.164-.664.25-1.034.25h-14.99l-.027-.005c-.385-.009-.795-.073-1.18-.117a2.225 2.225 0 0 1-1.756-1.253c-.6-1.238-1.097-4.02-1.449-6.965-.477-3.997-.707-8.439-.556-9.577v-.005c.73-5.305 5.827-9.875 12.283-13.395 8.565-4.67 19.66-7.581 25.727-7.795.673-.03 1.366-.056 1.997-.079 1.808-.065 3.063-.11 3.729-.279h.016c2.111-.505 5.528-2.399 9.884-4.813l2.683-1.484.002.003c4.801-2.714 9.503-5.294 14.207-7.381l.002.004c4.79-2.125 9.62-3.767 14.627-4.573l.011-.005c9.289-1.42 19.456-2.307 29.603-2.065 8.558.203 17.092 1.212 25.057 3.387Zm8.559 5.907c-2.951-1.285-6.054-2.464-9.258-3.343-7.741-2.114-16.061-3.096-24.42-3.294-9.944-.236-19.963.641-29.145 2.044l-.001-.003c-4.759.767-9.374 2.339-13.962 4.374v.005c-4.675 2.075-9.288 4.606-13.99 7.264l-.01.01c-1.321.724-2.022 1.113-2.673 1.474-4.522 2.507-8.071 4.473-10.547 5.07l.001.004c-.91.23-2.291.28-4.281.352-.575.02-1.206.044-1.976.077h-.016c-5.747.199-16.332 2.99-24.555 7.473-5.78 3.152-10.321 7.09-10.918 11.415-.127.974.111 5.092.567 8.915.301 2.52.688 4.849 1.108 5.912l.656.074 14.41-.001a19.767 19.767 0 0 1-.914-5.926 19.605 19.605 0 0 1 5.704-13.851 19.517 19.517 0 0 1 6.327-4.257 19.336 19.336 0 0 1 7.452-1.486c2.628 0 5.142.53 7.439 1.489a19.522 19.522 0 0 1 5.37 3.361l.041-.04.927.933a19.632 19.632 0 0 1 4.229 6.36 19.65 19.65 0 0 1 1.203 10.765c-.15.892-.362 1.768-.631 2.621 17.176-.23 34.457-.149 51.711-.068 8.171.039 16.338.077 24.479.082a19.534 19.534 0 0 1-.908-5.91 19.584 19.584 0 0 1 4.765-12.814l-.048-.043.987-.993a19.513 19.513 0 0 1 6.327-4.257 19.337 19.337 0 0 1 7.453-1.486c2.627 0 5.139.528 7.435 1.486a19.57 19.57 0 0 1 6.315 4.246l.028.028a19.72 19.72 0 0 1 4.227 6.363 19.556 19.556 0 0 1 1.305 10.061c2.126-.18 5.132-.626 7.876-1.145 2.741-.52 5.179-1.097 6.13-1.53 1.334-.647 2.083-1.13 2.493-1.528.239-.231.308-.403.332-.564.007-.032.018-.07.018-.103.139-.707.393-2.508.579-4.404.129-1.327.226-2.72.226-3.843 0-.087-.117-.24-.293-.424v-.005c-.293-.307-.727-.625-1.175-.928l-.025-.011c-.036-.026-.155-.102-.185-.132-.638-.453-1.276-.948-1.795-1.559-.636-.748-1.061-1.623-1.061-2.702l.043-1.596c.033-1.218.077-2.856.077-3.872l.005-.005.003-.181c.126-1.477.316-4.091.397-6.309.047-1.31.06-2.509.004-3.29a23.33 23.33 0 0 0-1.781-.217 83.503 83.503 0 0 0-3.544-.23l-1.967-.129c-2.86-.18-5.905-.372-8.631-.978l-.049-.008c-1.641-.325-3.444-.981-5.385-1.835-1.922-.844-3.96-1.869-6.116-2.954-2.613-1.313-5.431-2.716-8.389-4.004Z" fill="#1A1A1A" stroke="#B01525" stroke-width=".5"/><path fill-rule="evenodd" clip-rule="evenodd" d="M168.349 65.05c.099.046.172.119.255.33a.57.57 0 0 1 .051.221l.009.099c.027.219.035 1.147.032 2.281a540.828 540.828 0 0 1-.049 5.257l-.044.48-.469.11c-.114.026-1.636.07-2.984.082-.937.008-1.812.005-2.107-.026-.908-.096-.942-.297-.814-.74l.008-8.239 5.995.006.117.138Zm27.465-2.651-.024 2.022-.504.12c-.12.03-1.637.075-2.981.087-.94.008-1.82.004-2.116-.027-.92-.096-.951-.305-.814-.748l.001-1.454h-2.523c-.003.4-.004.797 0 1.186a35.4 35.4 0 0 0 .057 1.737c.021.353.131.64.29.87.201.291.486.506.78.654.504.254 1.445.227 2.262.204.276-.007.542-.015.667-.015.188 0 .636.01 1.15.023 1.797.042 4.583.107 5.225-.255.276-.156.515-.356.685-.621.171-.267.279-.612.296-1.058.017-.468.026-1.001.029-1.567l.001-1.158h-2.481Zm-3.775 11.84h3.802l.008 2.114h2.474l.001-4.602-6.285-.002v2.49Zm-10.207-9.19c.098.047.171.12.254.331.044.109.045.14.051.221l.009.1c.028.218.035 1.147.033 2.28-.006 2.2-.048 5.248-.049 5.26l-.046.476-.465.11c-.114.027-1.631.071-2.98.083-.939.008-1.818.005-2.114-.026-.907-.095-.94-.3-.814-.74l.008-8.239 5.996.006.117.139Zm-8.586 9.555c.021.353.131.641.29.871.201.29.487.505.78.653.504.254 1.446.228 2.263.204.276-.007.541-.015.666-.015.188 0 .636.011 1.151.023 1.797.042 4.582.107 5.224-.255a1.91 1.91 0 0 0 .685-.62c.171-.268.28-.612.296-1.059.047-1.266.03-3.095.015-4.759l-.016-2.133c0-.336.016-.758.032-1.175.061-1.64.119-3.185-1.124-3.753-.496-.226-1.463-.201-2.286-.18l-.665.014h-3.528c-.126 0-.381-.007-.645-.014-.799-.023-1.678-.047-2.175.235a1.906 1.906 0 0 0-.695.684c-.157.267-.26.591-.273.967-.105 3.13-.175 7.332.005 10.312Zm-22.839-9.699h3.802l.035 11.414 2.447-.002.001-13.9-6.285-.002v2.49Zm-13.764 0 8.845.004-2.786 3.91a229.78 229.78 0 0 1-1.899 2.615c-1.225 1.678-2.711 3.71-3.539 4.884l2.816-.005c.182-.285.426-.61.632-.884 1.134-1.536 2.244-3.093 3.364-4.64.262-.367.586-.81.91-1.255.383-.525.767-1.05 1.166-1.623.083-.12.231-.316.411-.556.547-.727 1.438-1.912 1.438-2.001V62.42h-11.358v2.486Zm23.121 9.7c.021.353.131.64.289.87.201.29.487.505.781.653.504.254 1.446.228 2.262.204.276-.007.541-.015.666-.015.189 0 .636.011 1.15.023 1.798.042 4.584.107 5.226-.255a1.91 1.91 0 0 0 .685-.62c.171-.267.279-.612.295-1.059.059-1.602.617-11.039-1.093-11.82-.496-.226-1.462-.201-2.286-.18l-.664.014h-3.529c-.125 0-.38-.007-.644-.014-.8-.023-1.679-.047-2.175.234a1.896 1.896 0 0 0-.695.686c-.158.267-.261.59-.273.966-.106 3.13-.175 7.331.005 10.313Z" fill="#B01525" stroke="#B01525" stroke-width=".5"/></svg>