<svg width="342" height="121" viewBox="0 0 342 121" fill="none" xmlns="http://www.w3.org/2000/svg"><path fill="#fff" d="M0 .497h342v120H0z"/><path d="M209.596 82.213c0 3.277 1.349 6.241 3.532 8.385a12.187 12.187 0 0 0 8.569 3.478c3.352 0 6.38-1.329 8.568-3.478 2.183-2.144 3.532-5.108 3.532-8.385s-1.349-6.241-3.532-8.385a12.186 12.186 0 0 0-8.568-3.478 12.187 12.187 0 0 0-8.569 3.478c-2.183 2.144-3.532 5.108-3.532 8.385Zm1.666 10.282c-2.678-2.631-4.334-6.266-4.334-10.282s1.656-7.65 4.334-10.282a14.847 14.847 0 0 1 10.435-4.25c4.072 0 7.761 1.624 10.434 4.25 2.678 2.631 4.334 6.266 4.334 10.282s-1.656 7.651-4.334 10.282a14.845 14.845 0 0 1-10.434 4.25 14.847 14.847 0 0 1-10.435-4.25Z" fill="#1A1A1A" stroke="#1A1A1A" stroke-width=".5"/><path d="M82.566 86.72c-.552-.498-1.09-1.438-1.56-2.686-1.068-2.832-1.995-7.683-2.006-12.528-.01-4.964.946-9.981 3.69-13.027a8.624 8.624 0 0 1 3.398-2.34h.006c5.325-1.985 17.702-4.505 27.119-6.421l4.261-.864c3.156-.634 5.578-1.121 6.863-1.458 1.425-.368 3.781-2.341 6.558-4.667l.908-.757c3.059-2.625 6.5-5.073 10.241-6.979 3.267-1.664 6.775-2.922 10.476-3.536h.01c3.131-.487 14.767-.878 25.812-.949 9.387-.06 18.387.112 21.464.65 1.649.196 3.027.922 4.09 2.093 1.031 1.136 1.743 2.683 2.09 4.551l.018.093c.339 2.081.805 8.097 1.066 11.476l.035.446 57.075-.093a2.24 2.24 0 0 1 1.566.633c.408.397.664.95.671 1.568.019 2.048.107 4.165.195 6.281.102 2.456.204 4.913.204 7.215 0 .48.352.846.768 1.278 1.52 1.58 3.542 3.682 1.584 11.932l-.005-.001c-.986 4.348-17.042 5.04-23.673 5.326-.761.032-1.386.06-1.889.088-1.166.295-1.324.506-1.586.857a8.732 8.732 0 0 1-.494.615 2.227 2.227 0 0 1-.92.633h-.005a2.23 2.23 0 0 1-1.1.108l-.205-.037-.203-.056-1.126-.326.178-1.154c.065-.42.114-.833.145-1.234.03-.395.046-.808.046-1.236 0-2.208-.445-4.307-1.251-6.216a16.39 16.39 0 0 0-3.61-5.3l-.037-.037a16.747 16.747 0 0 0-11.736-4.764 16.732 16.732 0 0 0-11.763 4.792l-.466.458a16.296 16.296 0 0 0-3.153 4.832 16.004 16.004 0 0 0-1.251 6.235 16.127 16.127 0 0 0 .251 2.844h-.005c.06.33.045.655-.04.968l.005.001a2.23 2.23 0 0 1-.461.858 2.23 2.23 0 0 1-1.706.78l-74.432-.133a2.215 2.215 0 0 1-1.737-.818 2.196 2.196 0 0 1-.445-.89l.005-.002a2.178 2.178 0 0 1-.005-.987 16.13 16.13 0 0 0 .381-3.512 16.01 16.01 0 0 0-1.251-6.235 16.3 16.3 0 0 0-3.149-4.828l-.47-.46a16.726 16.726 0 0 0-11.762-4.793c-2.259 0-4.412.44-6.372 1.237a16.69 16.69 0 0 0-5 3.164v.005l-.4.394a16.325 16.325 0 0 0-3.61 5.292 15.965 15.965 0 0 0-1.25 6.224 15.804 15.804 0 0 0 .39 3.54v.006a2.189 2.189 0 0 1-.447 1.877 2.193 2.193 0 0 1-1.746.823 141.414 141.414 0 0 1-3.945-.067 85.064 85.064 0 0 1-3.972-.213h-.005a2.255 2.255 0 0 1-1.32-.57Zm.931-3.624c.282.748.544 1.284.761 1.548 1.28.1 2.503.163 3.689.201 1.126.037 2.237.055 3.343.063a18.899 18.899 0 0 1-.348-3.585c0-2.56.523-5.012 1.47-7.256a18.963 18.963 0 0 1 3.791-5.751v-.03l.402-.394a19.357 19.357 0 0 1 6.265-4.118 19.535 19.535 0 0 1 7.373-1.435c2.601 0 5.088.511 7.359 1.438a19.411 19.411 0 0 1 5.293 3.23l.042-.04.943.926a18.976 18.976 0 0 1 4.193 6.163 18.665 18.665 0 0 1 1.127 10.82l73.403.131a19.143 19.143 0 0 1-.207-2.794c0-2.565.523-5.02 1.47-7.266a18.983 18.983 0 0 1 4.193-6.164l.928-.91.04.039a19.422 19.422 0 0 1 5.311-3.245 19.45 19.45 0 0 1 7.359-1.438c2.6 0 5.084.51 7.353 1.435a19.448 19.448 0 0 1 6.269 4.12l.043.043a19.083 19.083 0 0 1 4.168 6.139 18.597 18.597 0 0 1 1.469 7.218c.427-.26 1.027-.492 1.985-.732l.203-.038.005-.005c.052-.008.12-.014.206-.02h.005a163.98 163.98 0 0 1 1.972-.09c6.046-.261 20.714-.893 21.193-3.24l.005-.042c1.624-6.842.18-8.344-.907-9.473-.823-.856-1.518-1.578-1.518-3.123 0-2.456-.097-4.783-.193-7.11-.082-1.962-.164-3.925-.191-5.928l-57.05.092a2.242 2.242 0 0 1-1.515-.58 2.211 2.211 0 0 1-.72-1.471l-.066-.855c-.261-3.374-.728-9.403-1.046-11.294l-.013-.072c-.257-1.332-.743-2.406-1.428-3.16a3.794 3.794 0 0 0-2.442-1.24.792.792 0 0 0-.136-.018c-2.945-.516-11.763-.678-20.996-.62-10.922.07-22.372.449-25.405.917-3.396.565-6.645 1.734-9.694 3.288-3.562 1.814-6.838 4.147-9.751 6.65l-.898.751c-3.022 2.531-5.586 4.679-7.6 5.2-1.322.346-3.791.842-7.008 1.489l-1.419.285-2.833.579c-9.33 1.898-21.592 4.394-26.718 6.304a6.016 6.016 0 0 0-2.355 1.634c-2.242 2.487-3.023 6.853-3.014 11.244.01 4.511.861 8.993 1.84 11.59Z" fill="#1A1A1A"/><path d="m243.588 84.045-.034.002M82.566 86.72c-.552-.498-1.09-1.438-1.56-2.686-1.068-2.832-1.995-7.683-2.006-12.528-.01-4.964.946-9.981 3.69-13.027a8.624 8.624 0 0 1 3.398-2.34h.006c5.325-1.985 17.702-4.505 27.119-6.421l4.261-.864c3.156-.634 5.578-1.121 6.863-1.458 1.425-.368 3.781-2.341 6.558-4.667l.908-.757c3.059-2.625 6.5-5.073 10.241-6.979 3.267-1.664 6.775-2.922 10.476-3.536h.01c3.131-.487 14.767-.878 25.812-.949 9.387-.06 18.387.112 21.464.65 1.649.196 3.027.922 4.09 2.093 1.031 1.136 1.743 2.683 2.09 4.551l.018.093c.339 2.081.805 8.097 1.066 11.476l.035.446 57.075-.093a2.24 2.24 0 0 1 1.566.633c.408.397.664.95.671 1.568.019 2.048.107 4.165.195 6.281.102 2.456.204 4.913.204 7.215 0 .48.352.846.768 1.278 1.52 1.58 3.542 3.682 1.584 11.932l-.005-.001c-.986 4.348-17.042 5.04-23.673 5.326-.761.032-1.386.06-1.889.088-1.166.295-1.324.506-1.586.857a8.732 8.732 0 0 1-.494.615 2.227 2.227 0 0 1-.92.633h-.005a2.23 2.23 0 0 1-1.1.108l-.205-.037-.203-.056-1.126-.326.178-1.154c.065-.42.114-.833.145-1.234.03-.395.046-.808.046-1.236 0-2.208-.445-4.307-1.251-6.216a16.39 16.39 0 0 0-3.61-5.3l-.037-.037a16.747 16.747 0 0 0-11.736-4.764 16.732 16.732 0 0 0-11.763 4.792l-.466.458a16.295 16.295 0 0 0-3.153 4.832 16.004 16.004 0 0 0-1.251 6.235 16.127 16.127 0 0 0 .251 2.844h-.005c.06.33.045.655-.04.968l.005.001a2.23 2.23 0 0 1-.461.858 2.23 2.23 0 0 1-1.706.78l-74.432-.133a2.215 2.215 0 0 1-1.737-.818 2.196 2.196 0 0 1-.445-.89l.005-.002a2.178 2.178 0 0 1-.005-.987 16.13 16.13 0 0 0 .381-3.512 16.01 16.01 0 0 0-1.251-6.235 16.3 16.3 0 0 0-3.149-4.828l-.47-.46a16.726 16.726 0 0 0-11.762-4.793c-2.259 0-4.412.44-6.372 1.237a16.69 16.69 0 0 0-5 3.164v.005l-.4.394a16.325 16.325 0 0 0-3.61 5.292 15.965 15.965 0 0 0-1.25 6.224 15.804 15.804 0 0 0 .39 3.54v.006a2.189 2.189 0 0 1-.447 1.877 2.193 2.193 0 0 1-1.746.823 141.414 141.414 0 0 1-3.945-.067 85.064 85.064 0 0 1-3.972-.213h-.005a2.255 2.255 0 0 1-1.32-.57Zm.931-3.624c.282.748.544 1.284.761 1.548 1.28.1 2.503.163 3.689.201 1.126.037 2.237.055 3.343.063a18.899 18.899 0 0 1-.348-3.585c0-2.56.523-5.012 1.47-7.256a18.963 18.963 0 0 1 3.791-5.751v-.03l.402-.394a19.357 19.357 0 0 1 6.265-4.118 19.535 19.535 0 0 1 7.373-1.435c2.601 0 5.088.511 7.359 1.438a19.411 19.411 0 0 1 5.293 3.23l.042-.04.943.926a18.976 18.976 0 0 1 4.193 6.163 18.665 18.665 0 0 1 1.127 10.82l73.403.131a19.143 19.143 0 0 1-.207-2.794c0-2.565.523-5.02 1.47-7.266a18.982 18.982 0 0 1 4.193-6.164l.928-.91.04.039a19.422 19.422 0 0 1 5.311-3.245 19.45 19.45 0 0 1 7.359-1.438c2.6 0 5.084.51 7.353 1.435a19.448 19.448 0 0 1 6.269 4.12l.043.043a19.083 19.083 0 0 1 4.168 6.139 18.597 18.597 0 0 1 1.469 7.218c.427-.26 1.027-.492 1.985-.732l.203-.038.005-.005c.052-.008.12-.014.206-.02h.005a163.98 163.98 0 0 1 1.972-.09c6.046-.261 20.714-.893 21.193-3.24l.005-.042c1.624-6.842.18-8.344-.907-9.473-.823-.856-1.518-1.578-1.518-3.123 0-2.456-.097-4.783-.193-7.11-.082-1.962-.164-3.925-.191-5.928l-57.05.092a2.242 2.242 0 0 1-1.515-.58 2.211 2.211 0 0 1-.72-1.471l-.066-.855c-.261-3.374-.728-9.403-1.046-11.294l-.013-.072c-.257-1.332-.743-2.406-1.428-3.16a3.794 3.794 0 0 0-2.442-1.24.792.792 0 0 0-.136-.018c-2.945-.516-11.763-.678-20.996-.62-10.922.07-22.372.449-25.405.917-3.396.565-6.645 1.734-9.694 3.288-3.562 1.814-6.838 4.147-9.751 6.65l-.898.751c-3.022 2.531-5.586 4.679-7.6 5.2-1.322.346-3.791.842-7.008 1.489l-1.419.285-2.833.579c-9.33 1.898-21.592 4.394-26.718 6.304a6.016 6.016 0 0 0-2.355 1.634c-2.242 2.487-3.023 6.853-3.014 11.244.01 4.511.861 8.993 1.84 11.59Z" stroke="#1A1A1A" stroke-width=".5"/><path d="M83.49 27.908c1.18-.568 2.377-.95 3.574-1.094a8.376 8.376 0 0 1 3.94.438l.003.003.042.016c5.296 1.994 16.258 8.214 24.627 12.963L83.489 27.908Zm0 0 1.8 1.57a8.712 8.712 0 0 1 2.035-.516c1-.122 1.998-.03 2.966.33h.002c5.137 1.936 16.025 8.115 24.291 12.806l.027.015 2.516 1.426h.001l1.256.717c.778.444 1.507.86 2.18 1.242a57.226 57.226 0 0 0 2.465-.561h.001c.169-.044.357-.114.563-.21a439.5 439.5 0 0 1-4.129-2.339l-.008-.004-3.78-2.15-32.187-12.326Z" fill="#B01525" stroke="#B01525" stroke-width=".5"/><path fill-rule="evenodd" clip-rule="evenodd" d="M105.682 89.28h9.099v2.697h-9.099V89.28Zm0-5.018h2.84a2.669 2.669 0 1 1 3.419 0h2.84v2.697h-9.099v-2.697Zm-10.219 9.7H125v2.697H95.463v-2.697Z" fill="#B01525" stroke="#B01525" stroke-width=".5"/></svg>