<svg width="28" height="29" viewBox="0 0 28 29" fill="none" xmlns="http://www.w3.org/2000/svg"><path d="m18.174 13.674-5.484-3a.999.999 0 0 0-.997.017.998.998 0 0 0-.494.866v5.95c0 .358.184.681.49.865a1.005 1.005 0 0 0 .995.022l5.484-2.949a1.007 1.007 0 0 0 .006-1.77Zm-5.52 3.085v-4.447l4.099 2.243-4.1 2.204Z" fill="#fff"/><path d="m26.584 9.82-.002-.01c-.02-.2-.23-1.978-1.094-2.882-.998-1.063-2.13-1.192-2.675-1.254a6.705 6.705 0 0 1-.124-.015l-.043-.005c-3.282-.238-8.238-.27-8.288-.271h-.008c-.05 0-5.007.033-8.318.271l-.044.005a2.48 2.48 0 0 1-.116.014c-.538.062-1.658.191-2.66 1.293-.823.895-1.06 2.634-1.085 2.83l-.003.025a51.557 51.557 0 0 0-.183 4.05v1.857c0 1.987.176 3.967.183 4.05l.001.012c.021.197.23 1.942 1.09 2.846.94 1.028 2.127 1.164 2.766 1.237.1.011.187.021.247.032l.057.008c1.895.18 7.836.269 8.088.272h.015c.05 0 5.006-.032 8.288-.271l.043-.005a5.03 5.03 0 0 1 .14-.015c.535-.057 1.649-.175 2.637-1.262.823-.895 1.06-2.634 1.085-2.829l.003-.025c.007-.084.182-2.063.182-4.05V13.87c0-1.987-.175-3.966-.182-4.05Zm-1.273 5.908c0 1.84-.16 3.733-.175 3.907-.062.48-.313 1.58-.714 2.015-.618.68-1.253.748-1.717.797a8.002 8.002 0 0 0-.155.018c-3.174.229-7.943.264-8.163.266-.246-.004-6.1-.094-7.938-.264a6.412 6.412 0 0 0-.303-.04c-.544-.062-1.288-.147-1.86-.777l-.014-.014c-.394-.41-.638-1.44-.7-1.995a50.84 50.84 0 0 1-.176-3.913V13.87c0-1.837.16-3.729.176-3.906.074-.565.33-1.598.714-2.016.637-.7 1.309-.779 1.753-.83l.118-.014c3.22-.23 8.024-.265 8.197-.266.172 0 4.974.035 8.166.266l.128.015c.457.052 1.148.13 1.782.807l.006.006c.393.41.637 1.458.7 2.025.01.124.175 2.044.175 3.913v1.858Z" fill="#fff"/></svg>