<svg width="24" height="24" viewBox="0 0 24 24" fill="none" xmlns="http://www.w3.org/2000/svg"><g clip-path="url(#a)"><mask id="b" style="mask-type:luminance" maskUnits="userSpaceOnUse" x="0" y="0" width="24" height="24"><path d="M23.881 0H.12v24h23.762V0Z" fill="#fff"/></mask><g mask="url(#b)"><path fill-rule="evenodd" clip-rule="evenodd" d="M1.79 1.687C.12 3.374.12 6.09.12 11.52v.96c0 5.43 0 8.146 1.67 9.833C3.46 24 6.147 24 11.524 24h.95c5.377 0 8.066 0 9.736-1.687s1.67-4.402 1.67-9.833v-.96c0-5.43 0-8.146-1.67-9.833C20.541 0 17.852 0 12.476 0h-.95C6.147 0 3.46 0 1.79 1.687ZM4.13 7.3c.128 6.24 3.217 9.99 8.633 9.99h.307v-3.57c1.99.2 3.495 1.67 4.099 3.57h2.812c-.773-2.84-2.803-4.41-4.07-5.01 1.268-.74 3.05-2.54 3.475-4.98h-2.554c-.555 1.98-2.198 3.78-3.762 3.95V7.3h-2.555v6.92c-1.584-.4-3.584-2.34-3.673-6.92H4.129Z" fill="#7C7C7C"/></g></g><defs><clipPath id="a"><path fill="#fff" d="M0 0h24v24H0z"/></clipPath></defs></svg>