<svg width="217" height="29" viewBox="0 0 217 29" fill="none" xmlns="http://www.w3.org/2000/svg"><path d="M38.004 12.486v7.868h6.634c1.029 0 1.837-.043 2.436-.124.598-.087 1.09-.259 1.478-.522.383-.259.666-.646.843-1.163.177-.512.268-1.21.268-2.091 0-1.168-.115-2.035-.35-2.59-.23-.555-.617-.923-1.163-1.105-.55-.182-1.383-.273-2.512-.273h-7.634Zm0-9.361v7.265h6.835c1.081 0 1.919-.11 2.522-.33.598-.22 1.029-.608 1.282-1.163.259-.555.388-1.35.388-2.379 0-1.311-.234-2.206-.699-2.68-.464-.474-1.34-.713-2.632-.713h-7.696Zm8.582 19.383H35.62V1h10.361c1.881 0 3.264.407 4.145 1.225.876.819 1.316 2.183 1.316 4.092 0 .914-.057 1.67-.177 2.26a3.333 3.333 0 0 1-.77 1.56c-.393.45-.977.813-1.752 1.086.923.258 1.627.598 2.106 1.029.478.425.804.957.971 1.598.168.637.254 1.465.254 2.484 0 2.034-.421 3.575-1.259 4.614-.837 1.038-2.25 1.56-4.23 1.56Zm107.211 0L161.641 1h3.47l8.012 21.508h-2.551l-1.613-4.422h-10.85l-1.727 4.422h-2.585Zm14.391-6.519L163.422 2.78l-4.738 13.21h9.504Z" fill="#8C1C0B"/><path d="M65.215 18.118c0-.904-.139-1.56-.412-1.972-.277-.406-.751-.674-1.421-.799-.67-.124-1.733-.186-3.192-.186-1.235 0-2.125.177-2.666.526-.54.35-.809 1.039-.809 2.058 0 .857.12 1.522.359 1.996.235.474.608.804 1.11.995.508.187 1.182.282 2.034.282 1.192 0 2.12-.052 2.786-.153.665-.1 1.2-.359 1.603-.775.407-.416.608-1.077.608-1.972Zm-.029-2.957v-2.154c0-1.254-.11-2.168-.33-2.733a1.813 1.813 0 0 0-1.211-1.124c-.589-.187-1.541-.278-2.852-.278-.938 0-1.651.062-2.135.182-.483.12-.833.345-1.053.67-.22.325-.344.804-.373 1.445l.029.436H54.93c0-1.307.249-2.278.742-2.91.493-.637 1.148-1.043 1.967-1.22.818-.178 1.904-.269 3.268-.269 1.56 0 2.8.125 3.714.374.92.244 1.623.756 2.12 1.522.493.77.742 1.91.742 3.417v9.993h-2.158l.086-1.896c-.35.637-.723 1.11-1.115 1.417-.393.306-.886.507-1.479.613-.593.1-1.412.153-2.46.153-1.354 0-2.455-.12-3.297-.364-.848-.244-1.498-.718-1.953-1.416-.46-.704-.689-1.719-.689-3.044 0-1.235.23-2.188.684-2.858.455-.67 1.096-1.124 1.92-1.359.827-.234 1.87-.35 3.139-.35 1.163 0 2.072.058 2.723.178.65.115 1.139.292 1.465.531.325.24.603.589.837 1.044Zm8.037-.259c.053 1.613.163 2.814.335 3.604.167.79.54 1.392 1.11 1.804.575.417 1.46.622 2.661.622 1.321 0 2.283-.21 2.886-.631.608-.422.986-1.024 1.134-1.81.153-.79.23-1.986.23-3.589 0-1.54-.072-2.694-.21-3.455-.14-.766-.503-1.36-1.092-1.776-.588-.416-1.536-.627-2.833-.627-1.32 0-2.273.192-2.871.574-.594.383-.972.958-1.12 1.719-.153.76-.23 1.952-.23 3.565Zm0 5.882v8.217h-2.297V7.465h2.24l-.082 1.924c.546-.819 1.211-1.393 1.991-1.718.785-.33 1.718-.493 2.8-.493 1.727 0 3.025.296 3.9.895.88.598 1.45 1.44 1.723 2.517.273 1.077.407 2.522.407 4.34 0 1.327-.062 2.437-.191 3.341-.125.9-.379 1.69-.766 2.37-.383.684-.972 1.21-1.761 1.588-.785.378-1.814.57-3.078.57-1.139 0-2.115-.139-2.924-.412-.809-.277-1.46-.813-1.962-1.603Zm13.66 1.728V7.465h2.269v12.319L96.88 7.465h2.78v15.047h-2.268V10.279l-7.667 12.233h-2.843Zm26.491-4.394c0-.904-.138-1.56-.411-1.972-.278-.406-.751-.674-1.421-.799-.67-.124-1.733-.186-3.193-.186-1.234 0-2.124.177-2.665.526-.541.35-.809 1.039-.809 2.058 0 .857.12 1.522.359 1.996.234.474.608.804 1.11.995.507.187 1.182.282 2.034.282 1.192 0 2.12-.052 2.786-.153.665-.1 1.201-.359 1.603-.775.407-.416.607-1.077.607-1.972Zm-.028-2.957v-2.154c0-1.254-.11-2.168-.33-2.733a1.817 1.817 0 0 0-1.211-1.124c-.589-.187-1.541-.278-2.853-.278-.938 0-1.651.062-2.134.182-.483.12-.833.345-1.053.67-.22.325-.344.804-.373 1.445l.029.436h-2.331c0-1.307.249-2.278.742-2.91.492-.637 1.148-1.043 1.967-1.22.818-.178 1.904-.269 3.268-.269 1.561 0 2.8.125 3.714.374.919.244 1.622.756 2.12 1.522.493.77.742 1.91.742 3.417v9.993h-2.158l.086-1.896c-.35.637-.723 1.11-1.115 1.417-.393.306-.886.507-1.479.613-.594.1-1.412.153-2.46.153-1.354 0-2.455-.12-3.298-.364-.847-.244-1.497-.718-1.952-1.416-.46-.704-.689-1.719-.689-3.044 0-1.235.229-2.188.684-2.858.455-.67 1.096-1.124 1.919-1.359.828-.234 1.871-.35 3.14-.35 1.163 0 2.072.058 2.723.178.651.115 1.139.292 1.464.531.326.24.603.589.838 1.044Zm5.682-7.696h2.297v6.145h7.897V7.465h2.297v15.047h-2.297v-7.064h-7.897v7.064h-2.297V7.465Zm19.437 15.047h2.297V9.302h5.198V7.466h-12.692v1.838h5.197v13.209Zm39.073-6.978v5.168h5.312c1.781 0 2.671-.86 2.671-2.589 0-.976-.23-1.65-.694-2.024-.459-.368-1.12-.555-1.977-.555h-5.312Zm0-6.318v4.566h5.255c.928 0 1.57-.172 1.929-.517.359-.349.541-.942.541-1.785 0-.866-.192-1.464-.575-1.785-.383-.32-1.014-.479-1.895-.479h-5.255Zm5.714 13.267h-8.011V7.436h7.614c1.503 0 2.666.278 3.484.838.819.56 1.226 1.57 1.226 3.039a3.18 3.18 0 0 1-.68 2.015c-.455.579-1.149.947-2.087 1.115 2.015.483 3.02 1.708 3.02 3.67 0 1.652-.397 2.79-1.187 3.422-.789.632-1.914.948-3.379.948Zm11.163.029h2.297V9.302h5.197V7.466h-12.692v1.838h5.198v13.209Zm22.074-7.524c0 1.575-.115 2.867-.34 3.872-.225 1.01-.598 1.8-1.11 2.374-.508.57-1.183.976-2.015 1.21-.838.235-1.9.355-3.197.355-1.283 0-2.336-.115-3.164-.35-.832-.234-1.498-.64-2.005-1.215-.507-.574-.876-1.364-1.101-2.37-.225-1.004-.335-2.287-.335-3.847 0-2.091.201-3.695.608-4.814.407-1.12 1.082-1.896 2.02-2.336.938-.44 2.263-.66 3.977-.66 1.321 0 2.388.114 3.211.349.823.23 1.493.632 2.001 1.201.512.57.885 1.355 1.11 2.355.225 1 .34 2.292.34 3.876Zm-2.326 0c0-1.278-.067-2.302-.196-3.058-.13-.76-.355-1.345-.67-1.761a2.427 2.427 0 0 0-1.283-.857c-.541-.158-1.268-.239-2.187-.239-1.182 0-2.073.148-2.671.45-.593.301-1.01.871-1.249 1.709-.239.837-.359 2.096-.359 3.785 0 1.69.12 2.953.364 3.786.244.832.66 1.392 1.254 1.689.593.292 1.479.44 2.661.44.909 0 1.632-.076 2.168-.23.536-.157.966-.435 1.282-.842.321-.407.546-.995.68-1.766.139-.77.206-1.804.206-3.106Z" fill="#000"/><path fill-rule="evenodd" clip-rule="evenodd" d="M17.977 22.381h-5.991L1 1.142h5.991l8.134 15.726 8.134-15.726h5.991L18.264 22.38h-.287Z" fill="#8C1C0B" stroke="#fff" stroke-width=".533" stroke-miterlimit="22.926"/><path fill-rule="evenodd" clip-rule="evenodd" d="M9.343 17.834h5.624v4.546H6.992v.001H1l10.986-21.24h6.278L29.25 22.38h-5.99L15.125 6.655 9.343 17.833Z" fill="#1A1A1A" stroke="#fff" stroke-width=".533" stroke-miterlimit="22.926"/></svg>