<svg width="139" height="40" viewBox="0 0 139 40" fill="none" xmlns="http://www.w3.org/2000/svg"><g clip-path="url(#a)" fill="#7c7c7c"><path d="M132.521 34.83c2.727 0 4.659-.49 6.098-1.547V28.49c-1.477 1.02-3.257 1.66-5.757 1.66-4.204 0-5.946-3.245-5.946-8.377 0-5.396 2.121-8.15 5.984-8.15 2.273 0 4.507.792 5.681 1.546v-4.98c-1.249-.68-3.408-1.17-6.363-1.17-7.537 0-11.438 5.396-11.438 12.943.038 8.264 3.864 12.868 11.741 12.868Zm-36.852-2.19v-4.79c-1.817 1.245-4.923 2.34-7.764 2.34-4.318 0-5.946-2.038-6.211-6.19h14.24v-3.094c0-8.641-3.825-11.886-9.695-11.886-7.197 0-10.605 5.471-10.605 12.98 0 8.642 4.28 12.83 11.779 12.83 3.75 0 6.514-1.018 8.256-2.188ZM41.622 9.471v9.812h-7.878V9.47h-5.908v24.87h5.908V23.962h7.878v10.377h5.909V9.471h-5.909Zm32.535 20.19h-2.614V9.47H54.348v2.114c0 6.075-.379 13.924-2.462 18.075h-1.893V40h5.454v-5.66h13.218V40h5.454V29.66h.038Zm40.336 4.678h6.704l-9.469-13.396 8.333-11.472h-5.947l-8.332 11.472V9.471h-5.908V34.34h5.908V22.113l8.711 12.226ZM86.087 13.622c2.916 0 3.825 2.415 3.825 5.547v.491h-8.218c.151-3.962 1.59-6.038 4.393-6.038ZM65.635 29.66h-8.333c1.629-3.736 2.084-10.528 2.084-14.83v-.755h6.249V29.66Zm-42.721 4.68h-6.022V4.642h-2.689c-4.924 0-7.5 2.452-7.5 6.113 0 4.15 1.78 6.075 5.455 8.528l3.03 2.038L6.477 34.34H0l7.84-11.623C3.333 19.509.795 16.377.795 11.094.795 4.491 5.416 0 14.165 0h8.711v34.34h.038Z"/></g><defs><clipPath id="a"><path fill="#fff" d="M0 0h139v40H0z"/></clipPath></defs></svg>