<svg width="175" height="18" viewBox="0 0 175 18" fill="none" xmlns="http://www.w3.org/2000/svg"><path d="M6.958 16.99h5.066V5.201h6.958V.912H0v4.29h6.958v11.787ZM34.35.911l-8.444 9.356V.912h-4.898v16.077h4.324l8.444-9.356v9.356h4.897V.912H34.35ZM47.28 11.01h7.87v5.978h4.897V.912H55.15v5.877h-7.87V.912h-4.897v16.077h4.897v-5.978Zm26.406 5.978c1.114 0 2.128-.101 3.073-.372 2.533-.709 4.189-2.77 4.189-5.573 0-2.668-1.42-4.525-3.682-5.37-1.08-.405-2.364-.439-3.58-.439h-5.033V.912h-4.897v16.077h9.93Zm-5.033-7.971h4.188c.676 0 1.318 0 1.892.203.81.27 1.283.945 1.283 1.756 0 .844-.473 1.553-1.25 1.891-.54.237-1.08.237-1.925.237h-4.188V9.018Zm19.725 1.891h1.35l5.844 6.08h6.519l-8.14-8.376 7.836-7.7H95.64l-5.91 6.045h-1.352V.912h-4.897V16.99h4.897v-6.08ZM112.168.473c-6.587 0-10.538 3.715-10.538 8.51 0 4.797 3.952 8.512 10.538 8.512 6.552 0 10.504-3.715 10.504-8.511 0-4.796-3.952-8.511-10.504-8.511Zm0 13.105c-3.276 0-5.371-1.96-5.371-4.594 0-2.634 2.095-4.56 5.371-4.56 3.242 0 5.37 1.926 5.37 4.56 0 2.635-2.128 4.594-5.37 4.594ZM138.982 1.62V0h-4.897v1.621c-6.147.135-9.829 2.736-9.829 7.33 0 4.593 3.681 6.991 9.829 7.126v1.621h4.897v-1.621c6.181-.135 9.863-2.533 9.863-7.126 0-4.594-3.682-7.195-9.863-7.33Zm-4.897 11.01c-3.378-.134-4.864-1.519-4.864-3.68 0-2.162 1.486-3.716 4.864-3.851v7.532Zm4.897 0V5.1c3.411.135 4.864 1.688 4.864 3.85s-1.453 3.547-4.864 3.682Zm26.155-11.01V0h-4.897v1.621c-6.147.135-9.829 2.736-9.829 7.33 0 4.593 3.682 6.991 9.829 7.126v1.621h4.897v-1.621c6.181-.135 9.863-2.533 9.863-7.126 0-4.594-3.681-7.195-9.863-7.33Zm-4.897 11.01c-3.378-.134-4.864-1.519-4.864-3.68 0-2.162 1.486-3.716 4.864-3.851v7.532Zm4.897 0V5.1c3.412.135 4.864 1.688 4.864 3.85s-1.452 3.547-4.864 3.682Z" fill="#fff" opacity=".85"/></svg>