<svg width="156" height="36" viewBox="0 0 156 36" fill="none" xmlns="http://www.w3.org/2000/svg"><g opacity=".85" fill="#fff"><path d="M87.393 0 67.957 2.54v5.75l19.436-1.734V0Zm-75.37 11.55c-3.174 0-5.753 1.958-6.392 2.768V11.97H0V36h5.596v-8.547c.656.828 3.218 2.75 6.409 2.75 5.295 0 8.212-2.873 8.212-9.34 0-6.466-2.913-9.312-8.194-9.312Zm-2.005 13.997c-3.334 0-4.383-1.211-4.383-4.698s1.041-4.698 4.383-4.698 4.364 1.194 4.364 4.698c0 3.504-1.006 4.69-4.364 4.69v.008Zm17.987-4.6c0 3.49 1.042 4.698 4.383 4.698 3.342 0 4.366-1.214 4.366-4.698 0-3.485-1.008-4.699-4.366-4.699-3.358 0-4.383 1.19-4.383 4.699Zm-5.872-.051c0-6.396 3.554-9.323 10.255-9.323 6.702 0 10.272 2.927 10.272 9.323 0 6.395-3.53 9.424-10.272 9.424-6.74 0-10.255-3.029-10.255-9.424Zm36.868 2.214c-.44 1.846-1.616 2.535-4.166 2.535-3.334 0-4.381-1.214-4.381-4.699 0-3.484 1.047-4.698 4.381-4.698 2.55 0 3.727.687 4.168 2.545l5.872-.444c-.877-4.62-4.315-6.768-10.04-6.768-6.701 0-10.253 2.927-10.253 9.323 0 6.395 3.53 9.424 10.253 9.424 5.721 0 9.124-2.193 10.023-6.768L59 23.11Z"/><path d="M83.713 13.18 67.957 2.546v5.738l4.913 3.328.966.563c-1.765.022-2.61.38-3.46.893-2.425 1.463-3.685 4.035-3.685 7.831 0 6.396 3.53 9.424 10.256 9.424 6.725 0 10.273-3.028 10.273-9.424 0-3.702-1.2-6.233-3.507-7.717Zm-6.766 12.465c-3.334 0-4.383-1.214-4.383-4.698 0-3.485 1.041-4.699 4.383-4.699s4.366 1.19 4.366 4.699c0 3.508-1.006 4.698-4.366 4.698Zm12.209-4.782c0 6.46 2.913 9.34 8.212 9.34 3.189 0 5.751-1.922 6.408-2.75v2.185h5.597v-17.68h-5.631v2.35c-.643-.8-3.222-2.757-6.393-2.757-5.282 0-8.193 2.864-8.193 9.312Zm5.833-.025c0-3.508 1.006-4.698 4.366-4.698 3.36 0 4.381 1.194 4.381 4.698 0 3.504-1.041 4.698-4.38 4.698-3.341 0-4.369-1.207-4.369-4.698h.002Zm30.735-8.861V18.5h-7.429v-6.524h-5.631v17.658h5.631V23.02h7.429v6.615h5.633V11.977h-5.633Zm29.465 17.656-8.912-9.272 8.433-8.384h-6.966l-7.557 7.67v-7.67h-5.531v17.656h5.531v-8.13l7.763 8.13h7.239Z"/></g></svg>