<svg width="164" height="26" viewBox="0 0 164 26" fill="none" xmlns="http://www.w3.org/2000/svg"><g opacity=".85" fill="#fff"><path d="m73.345 7.623 3.422-2.558H65.309v15.32h11.458v-2.56h-8.185v-3.91h6.995v-2.557h-6.995V7.623h4.763Zm-16.692 3.408h-3.97V7.623h6.35l3.424-2.558H49.41v15.32h6.82c3.82 0 6.027-1.757 6.027-4.815 0-2.933-1.983-4.539-5.604-4.539Zm-.546 6.795h-3.424v-4.238h3.424c2.083 0 3.05.704 3.05 2.133 0 1.43-1.041 2.105-3.05 2.105ZM86.045 5.065H79.82v15.32h3.273v-4.34h2.978c3.967 0 6.448-2.104 6.448-5.49 0-3.385-2.48-5.49-6.474-5.49Zm-.074 8.424H83.07V7.623h2.901c2.109 0 3.25 1.053 3.25 2.933s-1.141 2.933-3.25 2.933Zm-42.168 3.585a5.842 5.842 0 0 1-2.827.729c-2.952 0-5.084-2.133-5.084-5.066s2.132-5.065 5.084-5.065a4.913 4.913 0 0 1 2.976.954l2.357-1.755-.148-.15c-1.364-1.23-3.2-1.857-5.284-1.857-2.256 0-4.316.778-5.803 2.181a7.595 7.595 0 0 0-2.283 5.593 7.953 7.953 0 0 0 2.283 5.69c1.561 1.48 3.645 2.308 5.78 2.257 2.355 0 4.413-.828 5.802-2.332l-2.107-1.58-.746.401ZM131.882 5.09v15.318h3.272v-6.267h6.971v6.267h3.275V5.091h-3.275v6.293h-6.971V5.09h-3.272Zm-5.631 15.318h3.447l-6.399-15.317h-3.324l-6.522 15.317h3.298l1.315-3.084h6.945l1.24 3.084Zm-7.193-5.64 2.529-6.143 2.381 6.142h-4.91Zm33.684-.55h2.033l5.01 6.167h4.216l-6.697-7.924 5.854-7.396h-3.745l-4.861 6.57h-1.81v-6.57h-3.275v15.32h3.275v-6.168Zm-50.104-3.161V7.648h8.557V5.091H99.363v15.317h6.822c3.819 0 6.028-1.754 6.028-4.813 0-2.933-1.984-4.538-5.607-4.538h-3.968Zm0 6.794v-4.237h3.424c2.081 0 3.05.703 3.05 2.132 0 1.43-1.018 2.13-3.05 2.13h-3.424v-.025ZM22.548 4.966a13.597 13.597 0 0 1 1.512 2.531l-11.458 8.549-4.813-3.058v-3.66l4.787 3.033 9.972-7.395ZM2.901 12.737c0-.176 0-.325.026-.501l-2.902-.151c0 .202-.025.427-.025.626 0 3.511 1.414 6.695 3.696 9.001l2.058-2.081A9.686 9.686 0 0 1 2.9 12.737Zm9.674-9.779c.174 0 .323 0 .497.026L13.221.05c-.2 0-.423-.026-.62-.026-3.473 0-6.623 1.43-8.906 3.736l2.058 2.082a9.53 9.53 0 0 1 6.822-2.885Zm0 19.557c-.174 0-.322 0-.497-.025l-.148 2.933c.2 0 .422.025.62.025 3.472 0 6.624-1.43 8.905-3.736l-2.058-2.081a9.39 9.39 0 0 1-6.822 2.884Z"/><path d="m18.03 4.664 2.456-1.83C18.328 1.078 15.576 0 12.574 0v2.933c2.035.026 3.919.652 5.456 1.731Zm7.146 8.073c0-.777-.074-1.53-.2-2.28l-2.703 2.03v.25a9.763 9.763 0 0 1-3.199 7.247l1.958 2.18a12.758 12.758 0 0 0 4.144-9.427Zm-12.6 9.778c-2.852 0-5.407-1.253-7.168-3.235L3.25 21.262c2.307 2.582 5.63 4.186 9.326 4.186v-2.933ZM6.102 5.49l-1.96-2.18A12.712 12.712 0 0 0 0 12.737h2.901a9.803 9.803 0 0 1 3.2-7.246Z"/></g></svg>