<svg width="164" height="44" viewBox="0 0 164 44" fill="none" xmlns="http://www.w3.org/2000/svg">
  <g opacity="0.85">
    <mask id="mask0_11_7003" style="mask-type:luminance" maskUnits="userSpaceOnUse" x="0" y="0" width="164" height="44">
      <path d="M164 0H0V43.7333H164V0Z" fill="white" />
    </mask>
    <g mask="url(#mask0_11_7003)">
      <path d="M69.0321 16.3525C66.8778 16.3525 65.2665 17.1497 64.4695 18.4683H64.2971V16.7576H60.3594V34.8766H64.2971V29.1328H64.4695C65.2623 30.4513 66.8778 31.2485 69.0321 31.2485C73.0732 31.2485 76.2786 27.9479 76.2786 23.7984C76.2786 19.6532 73.0732 16.3525 69.0321 16.3525ZM68.2351 27.6635C66.0377 27.6635 64.2971 25.9528 64.2971 23.7984C64.2971 21.6224 66.0377 19.9333 68.2351 19.9333C70.4969 19.9333 72.2159 21.6224 72.2159 23.7984C72.2159 25.9744 70.4753 27.6635 68.2351 27.6635Z" fill="white" />
      <path d="M157.108 17.416C154.856 17.416 153.093 18.2692 152.02 19.7515H151.844C152.136 17.0713 153.653 15.7699 156.92 15.3046L162.636 14.4774V10.8535L156.54 11.7196C150.909 12.5038 148.207 15.4855 148.207 20.8589C148.207 24.7454 148.457 25.9735 149.151 27.4428C150.241 29.7997 152.943 31.2476 156.207 31.2476C160.607 31.2476 164.002 28.1279 164.002 24.0431C163.997 20.1134 161.193 17.416 157.108 17.416ZM156.165 27.6453C153.925 27.6453 152.27 26.1156 152.27 24.0431C152.27 21.9489 153.903 20.4193 156.165 20.4193C158.383 20.4193 160.02 21.9489 160.02 24.0431C160.02 26.1156 158.363 27.6453 156.165 27.6453Z" fill="white" />
      <path d="M56.2293 12.5024L51.796 21.439L45.7557 12.5024H41.0469L49.8142 25.4377L49.573 25.9289C49.1938 26.7131 48.6941 27.1354 47.5395 27.1354H44.4374V30.8584H47.9789C50.6802 30.8584 51.7702 30.1732 52.899 27.9196L60.6497 12.498H56.2293V12.5024Z" fill="white" />
      <path d="M99.026 16.7744L98.3539 25.5302C98.2504 26.9005 97.7894 27.4002 96.6995 27.4002H95.7344V30.9637H98.0824C100.723 30.9637 101.895 29.7572 102.085 27.2408L102.602 20.4371H107.444V30.843H111.425V16.7744H99.026Z" fill="white" />
      <path d="M121.688 19.974C123.299 19.974 124.579 20.8788 125.186 22.0897L128.706 20.7625C127.724 18.0866 124.936 16.3545 121.606 16.3545C117.143 16.3545 113.773 19.5733 113.773 23.8046C113.773 28.0317 117.147 31.2547 121.606 31.2547C124.936 31.2547 127.724 29.5225 128.706 26.8467L125.186 25.5195C124.579 26.726 123.299 27.6352 121.688 27.6352C119.448 27.6352 117.832 26.0453 117.832 23.8088C117.832 21.564 119.448 19.974 121.688 19.974Z" fill="white" />
      <path d="M141.141 16.752L135.028 25.6973V16.752H131.09V30.8421H135.446L141.52 21.9614V30.8421H145.458V16.752H141.141Z" fill="white" />
      <path d="M89.8055 18.4624H89.6333C88.8405 17.1439 87.225 16.3467 85.0707 16.3467C81.0296 16.3467 77.8242 19.6473 77.8242 23.7968C77.8242 27.942 81.0296 31.2469 85.0707 31.2469C87.225 31.2469 88.8363 30.4499 89.6333 29.1313H89.8055V30.842H93.7434V16.7518H89.8055V18.4624ZM85.8721 27.6619C83.6317 27.6619 81.8913 25.9728 81.8913 23.7968C81.8913 21.6208 83.6103 19.9317 85.8721 19.9317C88.0693 19.9317 89.8099 21.6208 89.8099 23.7968C89.8056 25.9513 88.0693 27.6619 85.8721 27.6619Z" fill="white" />
      <path d="M29.9482 22.0898C29.9482 16.988 27.1693 12.5024 22.9946 9.94721L23.0506 13.4116C25.5322 15.5445 27.1047 18.6469 27.1047 22.0898C27.1047 23.6625 26.7686 25.162 26.1783 26.5323C24.3819 24.8258 23.1023 22.8179 22.3052 20.448C21.3444 17.5783 21.1205 14.4371 21.086 10.5979L21.0902 8.94754C20.2286 8.57698 19.3282 8.28397 18.4062 8.07715L18.4105 10.5936C18.501 23.8477 20.7974 29.3115 24.2138 33.4178C27.7078 30.7808 29.9482 26.6874 29.9482 22.0898C29.9482 22.094 29.9482 22.094 29.9482 22.0898Z" fill="white" />
      <path d="M11.542 10.5965L11.5463 8.08008C10.6243 8.28691 9.72385 8.57991 8.86219 8.95048L8.8665 10.6008C8.82772 14.4357 8.60799 17.5813 7.64724 20.451C6.85452 22.8208 5.57064 24.8245 3.77408 26.5351C3.18384 25.1649 2.84779 23.6654 2.84779 22.0926C2.84779 18.6455 4.41601 15.5474 6.90191 13.4145L6.95792 9.95014C2.77886 12.501 0 16.9866 0 22.0884V22.0926C0 26.6902 2.24463 30.7837 5.73436 33.4208C9.15945 29.3187 11.4515 23.8507 11.542 10.5965Z" fill="white" />
      <path d="M16.3195 5.52282C15.8327 5.48403 15.3933 5.4668 14.9796 5.4668C14.566 5.4668 14.1265 5.48403 13.6354 5.52282V8.50026C13.6354 21.5477 13.1313 27.2181 11.1797 36.0256C13.6527 36.6504 16.2808 36.6504 18.758 36.0298C16.8193 27.2871 16.3195 21.6166 16.3195 8.50026V5.52282Z" fill="white" />
    </g>
  </g>
</svg>
