<svg width="156" height="36" viewBox="0 0 156 36" fill="none" xmlns="http://www.w3.org/2000/svg">
  <g opacity="0.85">
    <path d="M87.3931 0L67.957 2.5391V8.2908L87.3931 6.5563V0Z" fill="white" />
    <path d="M12.0227 11.5501C8.84943 11.5501 6.2703 13.5077 5.63087 14.3182V11.969H0V35.9991H5.59558V27.4519C6.25248 28.28 8.81378 30.2025 12.0049 30.2025C17.3004 30.2025 20.2167 27.3286 20.2167 20.8626C20.2167 14.3962 17.3043 11.5501 12.0227 11.5501ZM10.0182 25.5474C6.68412 25.5474 5.63479 24.3356 5.63479 20.8489C5.63479 17.3623 6.67628 16.1505 10.0182 16.1505C13.36 16.1505 14.3819 17.3447 14.3819 20.8489C14.3819 24.3532 13.3757 25.5395 10.0182 25.5395V25.5474Z" fill="white" />
    <path d="M28.005 20.9466C28.005 24.4371 29.0465 25.645 32.3884 25.645C35.7302 25.645 36.7543 24.4313 36.7543 20.9466C36.7543 17.4618 35.7459 16.2481 32.3884 16.2481C29.0304 16.2481 28.005 17.4384 28.005 20.9466ZM22.1328 20.8957C22.1328 14.4999 25.6868 11.5732 32.3884 11.5732C39.0899 11.5732 42.6596 14.4999 42.6596 20.8957C42.6596 27.2914 39.1291 30.3196 32.3884 30.3196C25.6476 30.3196 22.1328 27.2911 22.1328 20.8957Z" fill="white" />
    <path d="M59.0014 23.1098C58.5619 24.9558 57.3853 25.6449 54.8354 25.6449C51.5014 25.6449 50.4538 24.4312 50.4538 20.9464C50.4538 17.4617 51.5014 16.248 54.8354 16.248C57.3853 16.248 58.5619 16.9352 59.0032 18.793L64.8753 18.3486C63.9985 13.7285 60.5604 11.5811 54.8354 11.5811C48.1338 11.5811 44.582 14.5078 44.582 20.9035C44.582 27.2992 48.1121 30.3275 54.8354 30.3275C60.5565 30.3275 63.9593 28.1349 64.8575 23.5599L59.0014 23.1098Z" fill="white" />
    <path d="M83.7134 13.1808L67.9567 2.54492V8.28272L72.8698 11.6107L73.8364 12.1745C72.0713 12.1961 71.2259 12.5543 70.3769 13.0672C67.9507 14.5296 66.6914 17.102 66.6914 20.898C66.6914 27.2938 70.2218 30.322 76.9469 30.322C83.6724 30.322 87.2203 27.2935 87.2203 20.898C87.2203 17.1961 86.0199 14.6646 83.7134 13.1808ZM76.9469 25.6451C73.6129 25.6451 72.5636 24.4314 72.5636 20.9467C72.5636 17.462 73.6051 16.2482 76.9469 16.2482C80.2892 16.2482 81.3128 17.4385 81.3128 20.9467C81.3128 24.4548 80.3066 25.6451 76.9469 25.6451Z" fill="white" />
    <path d="M89.1562 20.8635C89.1562 27.3238 92.069 30.2034 97.3684 30.2034C100.557 30.2034 103.119 28.2809 103.776 27.4528V29.6376H109.373V11.958H103.742V14.3072C103.099 13.5085 100.52 11.5508 97.3488 11.5508C92.0669 11.5508 89.1562 14.4148 89.1562 20.8635ZM94.9892 20.838C94.9892 17.3299 95.9954 16.1396 99.3551 16.1396C102.715 16.1396 103.736 17.3337 103.736 20.838C103.736 24.3422 102.695 25.5365 99.3551 25.5365C96.015 25.5365 94.9871 24.3286 94.9871 20.838H94.9892Z" fill="white" />
    <path d="M125.724 11.9766V18.5014H118.295V11.9766H112.664V29.6348H118.295V23.0198H125.724V29.6348H131.357V11.9766H125.724Z" fill="white" />
    <path d="M155.189 29.6326L146.277 20.3612L154.71 11.9766H147.744L140.187 19.6466V11.9766H134.656V29.6326H140.187V21.5025L147.95 29.6326H155.189Z" fill="white" />
  </g>
</svg>
