<svg width="164" height="26" viewBox="0 0 164 26" fill="none" xmlns="http://www.w3.org/2000/svg">
  <g opacity="0.85">
    <path d="M73.3453 7.62255L76.7668 5.06543H65.3086V20.3848H76.7668V17.8256H68.5815V13.9155H75.5774V11.3584H68.5815V7.62255H73.3453Z" fill="white" />
    <path d="M56.6525 11.0313H52.683V7.62255H59.0333L62.457 5.06543H49.4102V20.3848H56.2299C60.0507 20.3848 62.2574 18.6284 62.2574 15.57C62.2574 12.637 60.2737 11.0313 56.6525 11.0313ZM56.1067 17.8256H52.683V13.5885H56.1067C58.1902 13.5885 59.1565 14.2915 59.1565 15.7208C59.1565 17.1502 58.1158 17.8256 56.1067 17.8256Z" fill="white" />
    <path d="M86.0453 5.06543H79.8203V20.3848H83.0932V16.0458H86.0708C90.0382 16.0458 92.5188 13.941 92.5188 10.5556C92.5188 7.17017 90.0382 5.06543 86.0453 5.06543ZM85.971 13.4886H83.0698V7.62255H85.971C88.08 7.62255 89.2205 8.67598 89.2205 10.5556C89.2205 12.4352 88.08 13.4886 85.971 13.4886Z" fill="white" />
    <path d="M43.8033 17.0743C42.9367 17.5522 41.9683 17.8028 40.9764 17.8028C38.0243 17.8028 35.8919 15.6704 35.8919 12.7374C35.8919 9.80434 38.0243 7.67199 40.9764 7.67199C42.0426 7.64863 43.0854 7.99907 43.9519 8.62561L46.3094 6.8713L46.1607 6.72051C44.7972 5.4908 42.9601 4.86426 40.8766 4.86426C38.6211 4.86426 36.5609 5.64159 35.0742 7.04546C33.5854 8.5003 32.7422 10.5307 32.7911 12.6376C32.7656 14.7678 33.5854 16.8237 35.0742 18.3274C36.6353 19.8077 38.7188 20.636 40.8532 20.585C43.2086 20.585 45.2666 19.7567 46.6556 18.253L44.5487 16.6729L43.8033 17.0743Z" fill="white" />
    <path d="M131.882 5.09092V20.4082H135.154V14.1407H142.125V20.4082H145.4V5.09092H142.125V11.3839H135.154V5.09092H131.882ZM126.251 20.4082H129.698L123.299 5.09092H119.975L113.453 20.4082H116.751L118.066 17.3243H125.011L126.251 20.4082ZM119.058 14.7672L121.587 8.62501L123.968 14.7672H119.058ZM152.742 14.2171H154.775L159.785 20.3848H164.001L157.304 12.4607L163.158 5.06543H159.413L154.552 11.6345H152.742V5.06543H149.467V20.3848H152.742V14.2171ZM102.638 11.0568V7.64804H111.195V5.09092H99.3633V20.4082H106.185C110.004 20.4082 112.213 18.6539 112.213 15.5955C112.213 12.6625 110.229 11.0568 106.606 11.0568H102.638ZM102.638 17.851V13.6139H106.062C108.143 13.6139 109.112 14.3169 109.112 15.7463C109.112 17.1757 108.094 17.8765 106.062 17.8765H102.638V17.851Z" fill="white" />
    <path d="M22.5477 4.96582C23.1424 5.74315 23.6394 6.59482 24.0599 7.49746L12.6017 16.046L7.78906 12.9876V9.32822L12.5762 12.3611L22.5477 4.96582Z" fill="white" />
    <path d="M2.90119 12.737C2.90119 12.5607 2.90119 12.412 2.92667 12.2358L0.0254863 12.085C0.0254863 12.2867 0 12.5119 0 12.7115C0 16.2222 1.41449 19.4059 3.69551 21.7124L5.75352 19.631C3.99285 17.8767 2.90119 15.4449 2.90119 12.737Z" fill="white" />
    <path d="M12.5752 2.95843C12.7493 2.95843 12.898 2.95843 13.0721 2.98392L13.2208 0.0508764C13.0212 0.0508764 12.7982 0.0253906 12.6006 0.0253906C9.12813 0.0253906 5.97846 1.45474 3.69531 3.76125L5.75333 5.84263C7.49064 4.06284 9.92033 2.95843 12.5752 2.95843Z" fill="white" />
    <path d="M12.5753 22.5151C12.4012 22.5151 12.2525 22.5151 12.0784 22.4896L11.9297 25.4226C12.1293 25.4226 12.3523 25.4481 12.5499 25.4481C16.0224 25.4481 19.1742 24.0187 21.4552 21.7122L19.3972 19.6309C17.6598 21.4361 15.2535 22.5151 12.5753 22.5151Z" fill="white" />
    <path d="M18.0304 4.66399L20.4856 2.83322C18.3277 1.07892 15.5752 0 12.5742 0V2.93304C14.6089 2.95853 16.4927 3.58507 18.0304 4.66399Z" fill="white" />
    <path d="M25.1761 12.7371C25.1761 11.9597 25.1017 11.2079 24.9764 10.4561L22.2727 12.4865C22.2727 12.5608 22.2727 12.6627 22.2727 12.7371C22.2727 15.6213 21.0324 18.2039 19.0742 19.9837L21.0324 22.1649C23.564 19.8584 25.1761 16.4729 25.1761 12.7371Z" fill="white" />
    <path d="M12.5758 22.5149C9.72351 22.5149 7.16851 21.2618 5.40784 19.2803L3.25 21.2618C5.55651 23.8444 8.88034 25.4479 12.5758 25.4479V22.5149Z" fill="white" />
    <path d="M6.10184 5.49077L4.14152 3.30957C1.58652 5.64156 0 9.0015 0 12.7374H2.90119C2.90119 9.87865 4.14152 7.27268 6.10184 5.49077Z" fill="white" />
  </g>
</svg>
