<svg width="157" height="31" viewBox="0 0 157 31" fill="none" xmlns="http://www.w3.org/2000/svg">
  <g opacity="0.85">
    <path d="M15.2468 0C6.81538 0 0 6.81538 0 15.2468C0 23.6782 6.81538 30.4936 15.2468 30.4936C23.6782 30.4936 30.4936 23.6782 30.4936 15.2468C30.4936 6.81538 23.6079 0 15.2468 0ZM13.0687 21.7109L11.9445 25.0132C7.72879 23.6079 4.91832 19.603 4.91832 15.1063C4.91832 10.6095 7.72879 6.67486 12.0147 5.19937L13.1389 8.50166C10.3285 9.41507 8.50166 12.085 8.50166 15.036C8.4314 18.1275 10.2582 20.7975 13.0687 21.7109ZM18.3383 25.0834L17.2844 21.7811C20.1651 20.8677 22.0622 18.1978 22.0622 15.1765C22.0622 12.1553 20.1651 9.55559 17.3546 8.64219L18.4788 5.26963C22.7648 6.67486 25.6455 10.6798 25.6455 15.1765C25.5753 19.7435 22.6243 23.7485 18.3383 25.0834Z" fill="white" />
    <path d="M154.787 17.9158L156.473 19.9534C154.716 21.7802 152.538 22.272 150.782 22.272C149.095 22.272 147.901 21.991 146.847 21.4991C144.599 20.3749 143.475 18.1266 143.475 15.3864C143.475 11.2409 146.285 8.14941 150.43 8.14941C155.068 8.14941 157.316 11.5922 156.965 16.089H146.425C146.496 17.2132 147.128 18.2671 148.042 18.8292C148.814 19.321 149.728 19.5318 150.922 19.5318C152.257 19.6021 153.592 19.1102 154.787 17.9158ZM146.566 13.7001H154.014C153.803 12.0841 152.468 10.6788 150.36 10.6788C148.112 10.6788 146.777 12.2246 146.566 13.7001ZM75.7422 21.9207H79.5364L73.5641 14.9648L79.4661 8.43046H75.7422L71.2455 13.6298H69.9105V8.43046H67.0298V21.8504H69.9105V16.5106H71.2455L75.7422 21.9207ZM88.1786 10.8896C85.7194 10.8896 84.1034 12.7867 84.1034 15.1756C84.1034 17.5645 85.7194 19.4615 88.1786 19.4615C90.6377 19.4615 92.1835 17.6347 92.1835 15.1756C92.1835 12.8569 90.708 10.8896 88.1786 10.8896ZM88.6704 8.14941C92.4645 8.14941 95.275 11.1004 95.275 15.1756C95.275 19.1805 92.5348 22.272 88.6704 22.272C86.8436 22.272 85.3681 21.6397 84.3142 20.5155V27.5416H81.3632V8.50072H84.2439V10.1167C85.3681 8.78177 86.7733 8.14941 88.6704 8.14941ZM126.893 8.50072H114.878V11.1707H119.445V21.9207H122.396V11.1707H126.963V8.50072H126.893ZM64.9922 8.50072H52.9775V11.1707H57.5445V21.9207H60.4252V11.1707H64.9922V8.50072ZM49.3941 15.2458C49.3941 12.7164 47.6376 10.8896 45.1784 10.8896C42.7895 10.8896 40.9627 12.7164 40.9627 15.2458C40.9627 17.7753 42.7193 19.6021 45.1784 19.6021C47.5673 19.6021 49.3941 17.7753 49.3941 15.2458ZM38.0117 15.2458C38.0117 11.2409 41.1032 8.21968 45.2487 8.21968C49.3941 8.21968 52.4856 11.2409 52.4856 15.2458C52.4856 19.2508 49.3941 22.3423 45.2487 22.3423C41.1032 22.3423 38.0117 19.2508 38.0117 15.2458ZM141.156 8.50072V21.9207H138.275V13.2785L131.249 21.9207H128.93V8.50072H131.811V17.1429L138.837 8.50072H141.156ZM112.911 21.9207H110.03V8.50072H112.911V21.9207ZM105.393 17.3537C105.393 16.1592 104.55 15.3161 103.425 15.3161H100.474V19.4615H103.425C104.55 19.4615 105.393 18.5481 105.393 17.3537ZM108.344 17.3537C108.344 20.0236 106.376 21.9207 103.566 21.9207H97.6639V8.50072H100.545V12.8569H103.847C106.587 12.8569 108.344 14.6135 108.344 17.3537Z" fill="white" />
  </g>
</svg>
