<svg width="175" height="18" viewBox="0 0 175 18" fill="none" xmlns="http://www.w3.org/2000/svg">
  <g opacity="0.85">
    <path d="M6.95791 16.9892H12.0242V5.20178H18.9817V0.912332H0V5.20178H6.95754L6.95791 16.9892ZM34.3497 0.91197L25.9057 10.2678V0.91197H21.0083V16.9892H25.3316L33.7755 7.63338V16.9892H38.673V0.91197H34.3497ZM47.2803 11.0107H55.1497V16.989H60.0471V0.911727H55.1497V6.78861H47.2803V0.911727H42.3829V16.989H47.2803V11.0107ZM73.6858 16.989C74.8003 16.989 75.8136 16.8876 76.7593 16.6174C79.2924 15.9082 80.9475 13.8479 80.9475 11.0445C80.9475 8.37629 79.5289 6.51863 77.266 5.67423C76.1851 5.26892 74.9017 5.23515 73.6858 5.23515H68.6533V0.911914H63.7559V16.9892L73.6858 16.989ZM68.6533 9.01786H72.8414C73.517 9.01786 74.1587 9.01786 74.7328 9.22052C75.5434 9.49072 76.0163 10.1662 76.0163 10.9768C76.0163 11.8212 75.5435 12.5305 74.7666 12.8682C74.2262 13.1046 73.6858 13.1046 72.8414 13.1046H68.6533V9.01786ZM88.3779 10.9093H89.7289L95.5721 16.9889H102.091L93.9506 8.61268L101.787 0.912212H95.6399L89.7292 6.95797H88.3782V0.912212H83.4808V16.9895H88.3782L88.3779 10.9093ZM112.168 0.472634C105.581 0.472634 101.63 4.18791 101.63 8.98384C101.63 13.7798 105.582 17.495 112.168 17.495C118.72 17.495 122.672 13.7798 122.672 8.98384C122.672 4.18791 118.72 0.472634 112.168 0.472634ZM112.168 13.5776C108.892 13.5776 106.797 11.6186 106.797 8.98414C106.797 6.34964 108.892 4.42447 112.168 4.42447C115.41 4.42447 117.538 6.34964 117.538 8.98414C117.538 11.6186 115.41 13.5776 112.168 13.5776ZM138.982 1.62123V0H134.085V1.62123C127.938 1.75633 124.256 4.35702 124.256 8.95053C124.256 13.5441 127.937 15.942 134.085 16.077V17.6982H138.982V16.077C145.163 15.9419 148.845 13.5439 148.845 8.95053C148.845 4.3572 145.163 1.75625 138.982 1.62123ZM134.085 12.6318C130.707 12.4967 129.221 11.112 129.221 8.95035C129.221 6.78874 130.707 5.23508 134.085 5.1V12.6318ZM138.982 12.6318V5.0997C142.393 5.2348 143.846 6.78843 143.846 8.95005C143.846 11.1117 142.393 12.4968 138.982 12.6318ZM165.137 1.62123V0H160.24V1.62123C154.093 1.75633 150.411 4.35702 150.411 8.95053C150.411 13.5441 154.093 15.942 160.24 16.077V17.6982H165.137V16.077C171.318 15.9419 175 13.5439 175 8.95053C175 4.3572 171.319 1.75625 165.137 1.62123ZM160.24 12.6318C156.862 12.4967 155.376 11.112 155.376 8.95035C155.376 6.78874 156.862 5.23508 160.24 5.1V12.6318ZM165.137 12.6318V5.0997C168.549 5.2348 170.001 6.78843 170.001 8.95005C170.001 11.1117 168.549 12.4968 165.137 12.6318Z" fill="white" />
  </g>
</svg>
