<svg width="156" height="36" viewBox="0 0 156 36" fill="none" xmlns="http://www.w3.org/2000/svg">
  <g opacity="0.85">
    <path d="M87.3931 0L67.957 2.5391V8.2908L87.3931 6.5563V0Z" fill="#1a1a1a" />
    <path d="M12.0227 11.5501C8.84943 11.5501 6.2703 13.5077 5.63087 14.3182V11.969H0V35.9991H5.59558V27.4519C6.25248 28.28 8.81378 30.2025 12.0049 30.2025C17.3004 30.2025 20.2167 27.3286 20.2167 20.8626C20.2167 14.3962 17.3043 11.5501 12.0227 11.5501ZM10.0182 25.5474C6.68412 25.5474 5.63479 24.3356 5.63479 20.8489C5.63479 17.3623 6.67628 16.1505 10.0182 16.1505C13.36 16.1505 14.3819 17.3447 14.3819 20.8489C14.3819 24.3532 13.3757 25.5395 10.0182 25.5395V25.5474Z" fill="#1a1a1a" />
    <path d="M28.0069 20.9466C28.0069 24.4371 29.0484 25.645 32.3903 25.645C35.7322 25.645 36.7562 24.4313 36.7562 20.9466C36.7562 17.4618 35.7479 16.2481 32.3903 16.2481C29.0324 16.2481 28.0069 17.4384 28.0069 20.9466ZM22.1348 20.8957C22.1348 14.4999 25.6887 11.5732 32.3903 11.5732C39.0919 11.5732 42.6615 14.4999 42.6615 20.8957C42.6615 27.2914 39.1311 30.3196 32.3903 30.3196C25.6495 30.3196 22.1348 27.2911 22.1348 20.8957Z" fill="#1a1a1a" />
    <path d="M59.0004 23.1098C58.5609 24.9558 57.3844 25.6449 54.8345 25.6449C51.5004 25.6449 50.4529 24.4312 50.4529 20.9464C50.4529 17.4617 51.5004 16.248 54.8345 16.248C57.3844 16.248 58.5609 16.9352 59.0022 18.793L64.8744 18.3486C63.9975 13.7285 60.5594 11.5811 54.8345 11.5811C48.1329 11.5811 44.5811 14.5078 44.5811 20.9035C44.5811 27.2992 48.1111 30.3275 54.8345 30.3275C60.5555 30.3275 63.9583 28.1349 64.8565 23.5599L59.0004 23.1098Z" fill="#1a1a1a" />
    <path d="M83.7153 13.1808L67.9587 2.54492V8.28272L72.8717 11.6107L73.8383 12.1745C72.0733 12.1961 71.2279 12.5543 70.3788 13.0672C67.9526 14.5296 66.6934 17.102 66.6934 20.898C66.6934 27.2938 70.2238 30.322 76.9489 30.322C83.6744 30.322 87.2223 27.2935 87.2223 20.898C87.2223 17.1961 86.0218 14.6646 83.7153 13.1808ZM76.9489 25.6451C73.6149 25.6451 72.5655 24.4314 72.5655 20.9467C72.5655 17.462 73.607 16.2482 76.9489 16.2482C80.2911 16.2482 81.3148 17.4385 81.3148 20.9467C81.3148 24.4548 80.3086 25.6451 76.9489 25.6451Z" fill="#1a1a1a" />
    <path d="M89.1572 20.8635C89.1572 27.3238 92.07 30.2034 97.3694 30.2034C100.558 30.2034 103.12 28.2809 103.777 27.4528V29.6376H109.374V11.958H103.743V14.3072C103.1 13.5085 100.521 11.5508 97.3498 11.5508C92.0678 11.5508 89.1572 14.4148 89.1572 20.8635ZM94.9902 20.838C94.9902 17.3299 95.9964 16.1396 99.3561 16.1396C102.716 16.1396 103.737 17.3337 103.737 20.838C103.737 24.3422 102.696 25.5365 99.3561 25.5365C96.016 25.5365 94.9881 24.3286 94.9881 20.838H94.9902Z" fill="#1a1a1a" />
    <path d="M125.723 11.9766V18.5014H118.294V11.9766H112.663V29.6348H118.294V23.0198H125.723V29.6348H131.356V11.9766H125.723Z" fill="#1a1a1a" />
    <path d="M155.189 29.6326L146.277 20.3612L154.71 11.9766H147.744L140.187 19.6466V11.9766H134.656V29.6326H140.187V21.5025L147.95 29.6326H155.189Z" fill="#1a1a1a" />
  </g>
</svg>
