<svg width="164" height="44" viewBox="0 0 164 44" fill="none" xmlns="http://www.w3.org/2000/svg">
  <g opacity="0.85">
    <mask id="mask0_11_9834" style="mask-type:luminance" maskUnits="userSpaceOnUse" x="0" y="0" width="164" height="44">
      <path d="M164 0H0V43.7333H164V0Z" fill="white" />
    </mask>
    <g mask="url(#mask0_11_9834)">
      <path d="M69.0321 16.3525C66.8778 16.3525 65.2665 17.1497 64.4695 18.4683H64.2971V16.7576H60.3594V34.8766H64.2971V29.1328H64.4695C65.2623 30.4513 66.8778 31.2485 69.0321 31.2485C73.0732 31.2485 76.2786 27.9479 76.2786 23.7984C76.2786 19.6532 73.0732 16.3525 69.0321 16.3525ZM68.2351 27.6635C66.0377 27.6635 64.2971 25.9528 64.2971 23.7984C64.2971 21.6224 66.0377 19.9333 68.2351 19.9333C70.4969 19.9333 72.2159 21.6224 72.2159 23.7984C72.2159 25.9744 70.4753 27.6635 68.2351 27.6635Z" fill="#1a1a1a" />
      <path d="M157.107 17.416C154.855 17.416 153.092 18.2692 152.019 19.7515H151.843C152.135 17.0713 153.652 15.7699 156.919 15.3046L162.635 14.4774V10.8535L156.539 11.7196C150.908 12.5038 148.206 15.4855 148.206 20.8589C148.206 24.7454 148.456 25.9735 149.15 27.4428C150.24 29.7997 152.942 31.2476 156.207 31.2476C160.606 31.2476 164.001 28.1279 164.001 24.0431C163.997 20.1134 161.192 17.416 157.107 17.416ZM156.164 27.6453C153.924 27.6453 152.269 26.1156 152.269 24.0431C152.269 21.9489 153.902 20.4193 156.164 20.4193C158.382 20.4193 160.02 21.9489 160.02 24.0431C160.02 26.1156 158.362 27.6453 156.164 27.6453Z" fill="#1a1a1a" />
      <path d="M56.2303 12.5024L51.797 21.439L45.7567 12.5024H41.0479L49.8152 25.4377L49.5739 25.9289C49.1948 26.7131 48.695 27.1354 47.5405 27.1354H44.4384V30.8584H47.9799C50.6812 30.8584 51.7711 30.1732 52.9 27.9196L60.6506 12.498H56.2303V12.5024Z" fill="#1a1a1a" />
      <path d="M99.025 16.7744L98.3529 25.5302C98.2494 26.9005 97.7885 27.4002 96.6985 27.4002H95.7334V30.9637H98.0815C100.722 30.9637 101.894 29.7572 102.084 27.2408L102.601 20.4371H107.443V30.843H111.424V16.7744H99.025Z" fill="#1a1a1a" />
      <path d="M121.689 19.974C123.3 19.974 124.58 20.8788 125.187 22.0897L128.707 20.7625C127.725 18.0866 124.937 16.3545 121.607 16.3545C117.144 16.3545 113.774 19.5733 113.774 23.8046C113.774 28.0317 117.148 31.2547 121.607 31.2547C124.937 31.2547 127.725 29.5225 128.707 26.8467L125.187 25.5195C124.58 26.726 123.3 27.6352 121.689 27.6352C119.449 27.6352 117.833 26.0453 117.833 23.8088C117.833 21.564 119.449 19.974 121.689 19.974Z" fill="#1a1a1a" />
      <path d="M141.141 16.752L135.028 25.6973V16.752H131.09V30.8421H135.446L141.52 21.9614V30.8421H145.458V16.752H141.141Z" fill="#1a1a1a" />
      <path d="M89.8045 18.4624H89.6323C88.8395 17.1439 87.224 16.3467 85.0697 16.3467C81.0286 16.3467 77.8232 19.6473 77.8232 23.7968C77.8232 27.942 81.0286 31.2469 85.0697 31.2469C87.224 31.2469 88.8353 30.4499 89.6323 29.1313H89.8045V30.842H93.7425V16.7518H89.8045V18.4624ZM85.8711 27.6619C83.6308 27.6619 81.8903 25.9728 81.8903 23.7968C81.8903 21.6208 83.6093 19.9317 85.8711 19.9317C88.0683 19.9317 89.8089 21.6208 89.8089 23.7968C89.8047 25.9513 88.0683 27.6619 85.8711 27.6619Z" fill="#1a1a1a" />
      <path d="M29.9491 22.0898C29.9491 16.988 27.1703 12.5024 22.9955 9.94721L23.0516 13.4116C25.5332 15.5445 27.1057 18.6469 27.1057 22.0898C27.1057 23.6625 26.7696 25.162 26.1793 26.5323C24.3828 24.8258 23.1032 22.8179 22.3062 20.448C21.3454 17.5783 21.1214 14.4371 21.087 10.5979L21.0912 8.94754C20.2295 8.57698 19.3292 8.28397 18.4072 8.07715L18.4115 10.5936C18.5019 23.8477 20.7983 29.3115 24.2147 33.4178C27.7088 30.7808 29.9491 26.6874 29.9491 22.0898C29.9491 22.094 29.9491 22.094 29.9491 22.0898Z" fill="#1a1a1a" />
      <path d="M11.542 10.5965L11.5463 8.08008C10.6243 8.28691 9.72385 8.57991 8.86219 8.95048L8.8665 10.6008C8.82772 14.4357 8.60799 17.5813 7.64724 20.451C6.85452 22.8208 5.57064 24.8245 3.77408 26.5351C3.18384 25.1649 2.84779 23.6654 2.84779 22.0926C2.84779 18.6455 4.41601 15.5474 6.90191 13.4145L6.95792 9.95014C2.77886 12.501 0 16.9866 0 22.0884V22.0926C0 26.6902 2.24463 30.7837 5.73436 33.4208C9.15945 29.3187 11.4515 23.8507 11.542 10.5965Z" fill="#1a1a1a" />
      <path d="M16.3185 5.52282C15.8317 5.48403 15.3923 5.4668 14.9786 5.4668C14.5651 5.4668 14.1255 5.48403 13.6344 5.52282V8.50026C13.6344 21.5477 13.1304 27.2181 11.1787 36.0256C13.6517 36.6504 16.2798 36.6504 18.757 36.0298C16.8183 27.2871 16.3185 21.6166 16.3185 8.50026V5.52282Z" fill="#1a1a1a" />
    </g>
  </g>
</svg>
