<svg width="147" height="30" viewBox="0 0 147 30" fill="none" xmlns="http://www.w3.org/2000/svg">
  <g opacity="0.85">
    <path fill-rule="evenodd" clip-rule="evenodd" d="M0 14.5294C0 6.51133 6.49339 0.0179375 14.5115 0V5.2557C9.39928 5.2557 5.2557 9.41721 5.2557 14.5294C5.2557 19.6595 9.41721 23.8031 14.5294 23.8031C19.6237 23.8031 23.8031 19.6954 23.8031 14.4935H29.0588C29.0588 22.5475 22.5654 29.0588 14.5294 29.0588C6.49339 29.0588 0 22.5475 0 14.5294Z" fill="#1a1a1a" />
    <path d="M8.12598 14.5284C8.12598 10.9768 11.0139 8.08887 14.5656 8.08887C18.1172 8.08887 21.0051 10.9768 21.0051 14.5284C21.0051 18.098 18.1172 20.968 14.5656 20.968C11.0139 20.968 8.12598 18.098 8.12598 14.5284Z" fill="#1a1a1a" />
    <path d="M19.0322 6.36896C19.0322 4.32408 20.6825 2.67383 22.7274 2.67383C24.7722 2.67383 26.4225 4.32408 26.4225 6.36896C26.4225 8.41384 24.7722 10.0641 22.7274 10.0641C20.6825 10.0641 19.0322 8.41384 19.0322 6.36896Z" fill="#1a1a1a" />
    <path d="M132.47 10.0275L132.022 12.2338C130.964 17.0231 130.587 18.5657 129.672 23.3371L129.475 23.5165L126.569 23.6062L126.425 23.4089L127.591 18.494L127.932 16.8796C126.677 16.8437 125.439 16.8258 124.183 16.8258C123.215 16.8258 122.461 16.8437 121.708 16.8617C121.277 18.7989 120.919 20.4851 120.38 23.3371L120.183 23.5165L117.277 23.6062L117.134 23.4089L118.3 18.494L118.766 16.3594C119.537 12.9872 119.681 12.2517 120.129 9.14852L120.327 8.95122C121.654 8.77184 121.977 8.71803 123.34 8.43103L123.484 8.62834L123.179 10.0454L122.73 12.2517L122.264 14.3325C123.304 14.3504 124.363 14.3683 125.421 14.3683C126.533 14.3683 127.269 14.3504 128.506 14.3145C128.901 12.4849 129.062 11.4983 129.421 9.13059L129.618 8.93328C130.964 8.7539 131.269 8.70009 132.65 8.41309L132.793 8.6104L132.47 10.0275Z" fill="#1a1a1a" />
    <path d="M97.4378 16.4311C97.6352 15.606 97.7787 14.7629 97.7787 13.9737C97.7787 11.0678 95.9131 10.5835 94.8548 10.5835C90.3525 10.5835 89.7785 17.5791 89.7785 18.6374C89.7785 20.9334 91.1597 21.9379 92.7023 21.9379C95.7697 21.9379 96.9177 18.7989 97.4378 16.4311ZM100.415 17.328C99.7877 19.8034 98.0298 24.0725 92.6485 24.0725C88.8278 24.0725 86.7471 22.0994 86.7471 18.189C86.7471 17.6867 86.7829 17.1307 86.8726 16.5387C86.8906 16.3952 86.9085 16.2517 86.9264 16.1082C87.9668 9.65072 90.7651 3.51608 96.9177 3.46227C97.7428 3.44433 99.393 3.37258 100.523 3.10352L100.111 5.68653C98.9625 5.97353 97.1688 6.13496 96.1105 6.13496C94.801 6.1529 93.9041 6.63721 93.2763 7.24709C92.9714 7.53409 92.7203 7.8749 92.5409 8.1619C92.3615 8.4489 92.218 8.71797 92.1283 8.93322C92.9535 8.68209 93.8503 8.52065 94.8548 8.52065C98.6038 8.52065 100.846 10.6193 100.846 14.3145C100.846 15.301 100.667 16.3235 100.415 17.328Z" fill="#1a1a1a" />
    <path d="M137.403 14.6911C138.085 14.0992 138.48 13.7225 139.43 12.8077C140.417 11.8391 142.856 9.3278 143.305 8.84348L143.628 8.68205H146.91L147 8.93317C146.713 9.1843 146.57 9.30986 145.422 10.2785C144.973 10.6552 144.686 10.9422 144.148 11.4265L140.435 14.8526L144.866 23.2832L144.686 23.5164L141.511 23.6061L141.278 23.4267C140.543 21.6509 140.345 21.2563 139.305 19.1755L137.296 15.1216C136.668 17.9199 136.273 19.6957 135.574 23.3729L135.377 23.5523L132.471 23.642L132.327 23.4446L133.493 18.5298L133.942 16.3952C134.713 13.0229 134.856 12.2875 135.305 9.18429L135.502 8.98698C136.847 8.8076 137.152 8.7538 138.534 8.4668L138.677 8.66411L138.372 10.0812L137.924 12.2875L137.403 14.6911Z" fill="#1a1a1a" />
    <path d="M112.146 19.893C111.841 20.1441 111.518 20.4311 111.195 20.6284C110.46 21.0948 109.473 21.2921 108.702 21.2921C106.083 21.2921 105.348 19.0858 105.348 17.7226C105.348 17.5791 105.402 13.8839 108.415 11.839C110.101 10.691 111.967 10.6372 112.917 10.6372C113.348 10.6372 113.778 10.6552 114.209 10.6552L112.146 19.893ZM117.635 8.71792L117.491 8.48473L113.527 8.4668C110.89 8.4668 107.195 8.62824 104.523 11.7673C103.321 13.2023 102.227 15.6598 102.227 17.9199C102.227 21.4895 104.612 23.5523 107.536 23.5523C109.976 23.5523 111.231 22.494 111.716 22.0993L111.518 23.2473L111.662 23.4446L114.352 23.3908L114.55 23.1935C115.124 19.7854 115.321 18.6912 116.325 14.2965L117.635 8.71792Z" fill="#1a1a1a" />
    <path d="M42.0641 23.9835C38.9609 23.9835 34.4765 22.9969 36.1089 15.8219C36.7187 13.1313 38.5842 7.40918 46.2436 7.40918C53.6877 7.40918 52.5755 13.5079 52.1271 15.6604C50.7459 21.7413 47.0328 23.9835 42.0641 23.9835ZM43.0866 20.8265C45.2749 20.8265 46.2974 18.5484 46.9611 15.6246C47.4275 13.5618 47.9297 10.5303 45.2929 10.5303C43.0507 10.5303 42.0462 12.6828 41.4004 15.6246C40.7726 18.3331 40.6291 20.8265 43.0866 20.8265Z" fill="#1a1a1a" />
    <path d="M60.2707 23.6424C58.8357 23.6424 56.468 23.6424 55.4814 23.6783L55.32 23.481C55.589 22.5303 56.2707 19.9473 56.9702 16.8082C57.5442 14.2611 58.0465 12.0189 58.2438 10.9964C57.042 11.0323 55.1944 11.0323 54.2796 11.0503L54.1182 10.835C54.3514 10.0637 54.6922 8.71837 54.9074 7.91118L55.1765 7.74974C55.9837 7.78562 59.0151 7.80355 61.4726 7.80355C64.4322 7.80355 67.3202 7.74974 67.9301 7.71387L68.1274 7.87531C67.9121 8.59281 67.5175 10.0637 67.3202 10.7991L67.0332 10.9785C65.8493 10.9606 64.9524 10.9606 63.2304 10.9606C63.0869 11.6063 62.6206 13.5256 61.8492 16.9338C61.2752 19.5168 60.7909 21.8666 60.5219 23.3733L60.2707 23.6424Z" fill="#1a1a1a" />
    <path d="M76.8981 11.3731C75.9295 11.3731 74.8532 11.409 74.3689 11.409C74.2254 12.0727 73.6335 14.5301 73.0954 16.9158C72.4675 19.732 71.8935 22.3688 71.6783 23.463L71.3913 23.6424C69.9204 23.6424 68.037 23.6424 66.5302 23.6783L66.3867 23.481C66.6917 22.2433 67.4809 18.9069 68.2343 15.5705C68.9877 12.2162 69.6513 8.93362 69.8487 8.00087L70.0998 7.78562C71.7142 7.78562 73.3465 7.83943 77.3645 7.83943C80.5036 7.83943 83.5529 7.74974 85.1673 7.71387L85.3108 7.89325C85.0956 8.70044 84.1987 12.557 83.3377 16.3777C82.6381 19.463 81.9924 22.5303 81.8309 23.4092L81.6157 23.5886C80.3242 23.5886 77.9744 23.5886 76.7367 23.6245L76.6111 23.4092C76.8802 22.3688 77.4542 19.9473 78.1358 16.9517C78.656 14.6736 79.1582 12.2521 79.3735 11.3552C78.8533 11.3911 77.795 11.3731 76.8981 11.3731Z" fill="#1a1a1a" />
  </g>
</svg>
